<svg id="svg" version="1.1" xmlns="http://www.w3.org/2000/svg" xmlns:xlink="http://www.w3.org/1999/xlink" width="400" height="266.6666666666667" viewBox="0, 0, 400,266.6666666666667"><g id="svgg"><path id="path0" d="M317.417 107.498 C 317.233 107.564,316.836 107.585,316.535 107.544 C 316.233 107.504,315.886 107.554,315.764 107.655 C 315.642 107.756,315.418 107.791,315.265 107.733 C 315.113 107.674,314.672 107.709,314.286 107.810 C 313.334 108.058,312.509 108.197,311.958 108.202 C 311.706 108.204,311.500 108.268,311.500 108.343 C 311.500 108.419,311.352 108.452,311.170 108.417 C 310.989 108.382,310.799 108.421,310.748 108.503 C 310.697 108.585,310.546 108.610,310.411 108.558 C 310.277 108.507,310.167 108.535,310.167 108.622 C 310.167 108.708,309.860 108.791,309.485 108.805 C 309.110 108.820,308.566 108.937,308.276 109.065 C 307.987 109.193,307.395 109.390,306.961 109.503 C 306.528 109.616,306.213 109.774,306.263 109.854 C 306.312 109.934,306.223 110.000,306.063 110.000 C 305.637 110.000,304.667 110.378,304.667 110.543 C 304.667 110.622,304.592 110.640,304.500 110.583 C 304.408 110.527,304.333 110.564,304.333 110.667 C 304.333 110.769,304.258 110.807,304.167 110.750 C 304.075 110.693,304.000 110.739,304.000 110.851 C 304.000 110.964,303.953 111.009,303.896 110.952 C 303.791 110.846,302.486 111.443,302.333 111.667 C 302.287 111.734,301.950 111.941,301.583 112.127 C 301.217 112.313,300.630 112.735,300.280 113.066 C 299.930 113.396,299.588 113.667,299.521 113.667 C 299.370 113.667,297.578 115.393,297.389 115.721 C 297.313 115.853,296.856 116.387,296.375 116.907 C 295.894 117.427,295.500 117.919,295.500 118.001 C 295.500 118.083,295.331 118.334,295.125 118.561 C 294.783 118.936,293.426 121.368,293.410 121.636 C 293.406 121.699,293.278 121.984,293.125 122.271 C 292.972 122.557,292.894 122.838,292.951 122.896 C 293.009 122.953,292.981 123.000,292.889 123.000 C 292.797 123.000,292.714 123.094,292.704 123.208 C 292.686 123.415,292.655 123.531,292.403 124.333 C 292.332 124.563,292.293 124.779,292.317 124.815 C 292.342 124.850,292.297 124.925,292.218 124.981 C 292.079 125.080,291.681 126.645,291.578 127.500 C 291.550 127.729,291.512 127.935,291.493 127.958 C 291.389 128.084,291.106 131.886,291.105 133.167 C 291.104 135.041,291.340 138.441,291.514 139.047 C 291.598 139.341,291.667 139.788,291.667 140.041 C 291.667 140.293,291.726 140.500,291.798 140.500 C 291.870 140.500,291.942 140.781,291.959 141.125 C 291.975 141.469,292.141 142.161,292.327 142.664 C 292.514 143.167,292.667 143.711,292.667 143.873 C 292.667 144.034,292.754 144.167,292.861 144.167 C 292.968 144.167,293.008 144.215,292.949 144.273 C 292.890 144.332,292.948 144.576,293.077 144.815 C 293.206 145.054,293.618 145.880,293.992 146.649 C 294.366 147.419,294.819 148.176,294.999 148.333 C 295.180 148.489,295.288 148.656,295.240 148.704 C 295.192 148.752,295.438 149.104,295.785 149.486 C 296.132 149.868,296.636 150.440,296.903 150.757 C 297.171 151.074,297.455 151.333,297.536 151.333 C 297.616 151.333,297.869 151.521,298.098 151.750 C 298.328 151.979,298.599 152.167,298.702 152.167 C 298.805 152.167,298.842 152.214,298.784 152.271 C 298.658 152.397,300.021 153.340,300.184 153.239 C 300.247 153.200,300.341 153.281,300.394 153.418 C 300.447 153.555,300.593 153.667,300.719 153.667 C 300.845 153.667,301.086 153.819,301.255 154.006 C 301.424 154.192,301.665 154.306,301.790 154.258 C 301.915 154.210,301.980 154.231,301.935 154.304 C 301.889 154.378,302.429 154.679,303.134 154.973 C 303.840 155.268,304.529 155.583,304.667 155.673 C 305.013 155.902,305.811 156.208,305.882 156.140 C 305.914 156.109,306.072 156.215,306.232 156.375 C 306.393 156.535,306.702 156.667,306.919 156.667 C 307.136 156.667,307.364 156.748,307.426 156.848 C 307.487 156.948,307.679 156.992,307.852 156.947 C 308.025 156.902,308.203 156.923,308.247 156.995 C 308.319 157.111,309.647 157.526,310.083 157.569 C 310.175 157.578,310.400 157.668,310.583 157.769 C 310.767 157.871,311.254 158.000,311.667 158.057 C 312.079 158.113,312.604 158.207,312.833 158.265 C 313.063 158.323,313.418 158.387,313.624 158.406 C 313.829 158.426,314.048 158.493,314.110 158.554 C 314.172 158.616,314.491 158.669,314.819 158.671 C 315.148 158.673,315.717 158.744,316.083 158.828 C 318.052 159.282,329.793 159.354,330.500 158.917 C 330.611 158.848,331.713 158.687,332.833 158.575 C 333.063 158.552,333.250 158.520,333.250 158.504 C 333.250 158.463,333.567 158.391,334.936 158.117 C 335.588 157.987,336.208 157.827,336.314 157.762 C 336.419 157.697,336.708 157.607,336.956 157.562 C 337.204 157.517,337.491 157.410,337.593 157.325 C 337.696 157.239,337.824 157.212,337.876 157.265 C 337.929 157.317,338.147 157.263,338.361 157.144 C 338.575 157.026,338.787 156.920,338.833 156.909 C 338.879 156.898,339.279 156.727,339.722 156.528 C 340.165 156.329,340.569 156.167,340.619 156.167 C 341.108 156.167,345.000 153.768,345.000 153.467 C 345.000 153.394,345.087 153.333,345.194 153.333 C 345.407 153.333,345.423 153.319,347.000 151.771 C 348.380 150.416,349.081 149.639,349.313 149.204 C 349.415 149.014,349.593 148.760,349.709 148.638 C 350.074 148.256,350.500 147.522,350.500 147.274 C 350.500 147.143,350.613 146.992,350.752 146.939 C 350.890 146.886,350.988 146.784,350.970 146.713 C 350.952 146.642,351.120 146.283,351.344 145.917 C 351.842 145.099,352.468 143.644,352.705 142.750 C 352.802 142.383,352.942 142.005,353.016 141.910 C 353.089 141.814,353.192 141.495,353.244 141.199 C 353.296 140.904,353.442 140.344,353.567 139.956 C 353.693 139.568,353.840 139.006,353.894 138.708 L 353.992 138.167 345.515 138.167 L 337.038 138.167 336.927 138.958 C 336.866 139.394,336.695 140.125,336.547 140.583 C 336.400 141.042,336.285 141.454,336.292 141.500 C 336.299 141.546,336.218 141.691,336.111 141.824 C 335.960 142.011,335.963 142.036,336.128 141.937 C 336.245 141.867,336.149 142.151,335.916 142.569 C 335.683 142.987,335.503 143.372,335.516 143.425 C 335.552 143.568,334.937 144.741,334.792 144.806 C 334.723 144.836,334.667 144.967,334.667 145.097 C 334.667 145.227,334.592 145.333,334.500 145.333 C 334.408 145.333,334.333 145.448,334.333 145.589 C 334.333 145.729,334.221 145.887,334.083 145.940 C 333.946 145.992,333.833 146.140,333.833 146.268 C 333.833 146.396,333.758 146.500,333.667 146.500 C 333.575 146.500,333.500 146.612,333.500 146.750 C 333.500 146.887,333.387 147.000,333.250 147.000 C 333.112 147.000,333.000 147.064,333.000 147.142 C 333.000 147.326,332.168 148.227,332.161 148.050 C 332.158 147.977,332.046 148.062,331.911 148.240 C 331.777 148.418,331.667 148.513,331.667 148.450 C 331.667 148.350,331.357 148.569,330.773 149.084 C 330.669 149.176,330.171 149.438,329.667 149.667 C 329.162 149.896,328.725 150.140,328.694 150.209 C 328.663 150.279,328.570 150.293,328.486 150.241 C 328.402 150.189,328.333 150.218,328.333 150.305 C 328.333 150.392,328.052 150.509,327.708 150.565 C 327.365 150.620,326.915 150.705,326.709 150.754 C 326.503 150.802,326.154 150.870,325.934 150.904 C 325.713 150.939,325.383 151.015,325.200 151.073 C 324.235 151.379,319.694 151.409,319.213 151.112 C 319.113 151.050,318.911 151.045,318.765 151.101 C 318.608 151.161,318.500 151.116,318.500 150.990 C 318.500 150.873,318.453 150.825,318.395 150.883 C 318.337 150.941,318.149 150.913,317.978 150.822 C 317.749 150.699,317.666 150.712,317.664 150.869 C 317.662 151.037,317.631 151.035,317.520 150.861 C 317.443 150.738,317.313 150.635,317.231 150.631 C 317.029 150.622,316.678 150.505,316.083 150.250 C 315.808 150.132,315.340 149.984,315.042 149.921 C 314.744 149.858,314.500 149.736,314.500 149.649 C 314.500 149.563,314.331 149.419,314.125 149.330 C 313.919 149.240,313.637 149.104,313.500 149.027 C 313.362 148.949,313.100 148.806,312.917 148.708 C 312.733 148.611,312.601 148.452,312.623 148.355 C 312.645 148.258,312.551 148.221,312.415 148.274 C 312.266 148.331,312.167 148.273,312.167 148.129 C 312.167 147.998,311.979 147.789,311.750 147.667 C 311.521 147.544,311.333 147.390,311.333 147.325 C 311.333 147.228,310.245 145.731,309.700 145.079 C 309.622 144.986,309.418 144.592,309.247 144.204 C 309.076 143.817,308.875 143.500,308.801 143.500 C 308.727 143.500,308.667 143.350,308.667 143.167 C 308.667 142.983,308.594 142.833,308.505 142.833 C 308.416 142.833,308.387 142.721,308.440 142.583 C 308.494 142.442,308.444 142.333,308.323 142.333 C 308.207 142.333,308.158 142.286,308.216 142.229 C 308.273 142.171,308.207 141.907,308.070 141.641 C 307.932 141.375,307.872 141.072,307.936 140.969 C 308.010 140.849,307.976 140.829,307.841 140.912 C 307.687 141.007,307.661 140.948,307.743 140.688 C 307.812 140.471,307.784 140.333,307.671 140.333 C 307.569 140.333,307.503 140.240,307.525 140.125 C 307.547 140.010,307.515 139.767,307.453 139.583 C 307.272 139.043,306.850 135.184,306.788 133.500 C 306.769 132.974,307.095 129.322,307.243 128.417 C 307.287 128.142,307.341 127.692,307.362 127.417 C 307.383 127.142,307.470 126.869,307.555 126.811 C 307.639 126.752,307.708 126.509,307.708 126.269 C 307.708 126.029,307.758 125.833,307.819 125.833 C 307.879 125.833,307.941 125.674,307.956 125.478 C 307.980 125.152,308.152 124.720,308.766 123.438 C 308.892 123.175,308.947 122.882,308.888 122.787 C 308.830 122.693,308.857 122.662,308.949 122.719 C 309.042 122.776,309.214 122.529,309.332 122.170 C 309.451 121.811,309.649 121.478,309.774 121.431 C 309.898 121.383,310.000 121.255,310.000 121.147 C 310.000 121.039,310.260 120.634,310.577 120.247 C 310.894 119.860,311.138 119.514,311.119 119.480 C 311.099 119.445,311.341 119.154,311.656 118.833 C 311.971 118.513,312.171 118.362,312.101 118.500 C 312.032 118.638,312.112 118.598,312.279 118.413 C 313.299 117.284,315.816 116.095,317.917 115.751 C 318.283 115.690,318.883 115.574,319.250 115.493 C 320.104 115.302,325.355 115.333,325.607 115.529 C 325.712 115.611,325.862 115.664,325.941 115.646 C 326.019 115.628,326.196 115.652,326.333 115.699 C 326.545 115.771,328.295 116.230,328.954 116.387 C 329.065 116.413,329.209 116.487,329.273 116.551 C 329.337 116.614,329.518 116.667,329.677 116.667 C 329.835 116.667,330.008 116.779,330.060 116.917 C 330.113 117.054,330.246 117.167,330.357 117.167 C 330.467 117.167,330.707 117.298,330.891 117.458 C 331.131 117.669,331.185 117.680,331.086 117.500 C 330.934 117.226,332.763 119.069,333.167 119.596 C 333.304 119.776,333.635 120.259,333.901 120.670 C 334.167 121.081,334.524 121.620,334.693 121.868 C 334.862 122.117,335.000 122.398,335.000 122.493 C 335.000 122.589,335.059 122.667,335.131 122.667 C 335.203 122.667,335.274 122.825,335.289 123.019 C 335.303 123.212,335.432 123.500,335.575 123.657 C 335.717 123.815,335.784 123.994,335.723 124.055 C 335.661 124.117,335.686 124.167,335.778 124.167 C 335.869 124.167,335.957 124.279,335.972 124.417 C 335.987 124.554,336.012 124.779,336.028 124.917 C 336.043 125.054,336.122 125.167,336.204 125.167 C 336.286 125.167,336.307 125.242,336.250 125.333 C 336.193 125.425,336.224 125.500,336.318 125.500 C 336.412 125.500,336.446 125.612,336.394 125.750 C 336.341 125.888,336.368 126.000,336.454 126.000 C 336.541 126.000,336.618 126.094,336.626 126.208 C 336.680 126.959,336.865 127.758,336.995 127.802 C 337.079 127.831,337.107 127.963,337.056 128.094 C 336.945 128.383,336.769 128.377,346.625 128.400 C 351.319 128.411,353.840 128.359,353.853 128.250 C 353.864 128.158,353.854 128.008,353.832 127.917 C 353.809 127.825,353.792 127.638,353.794 127.500 C 353.798 127.164,353.354 125.501,353.146 125.074 C 353.054 124.886,353.000 124.661,353.027 124.574 C 353.054 124.488,352.934 124.079,352.760 123.667 C 352.585 123.254,352.457 122.856,352.474 122.783 C 352.492 122.709,352.392 122.486,352.253 122.287 C 352.114 122.088,352.000 121.804,352.000 121.655 C 352.000 121.506,351.853 121.215,351.674 121.008 C 351.495 120.802,351.266 120.384,351.166 120.081 C 351.066 119.778,350.867 119.485,350.725 119.430 C 350.582 119.375,350.506 119.224,350.557 119.093 C 350.607 118.962,350.596 118.831,350.532 118.802 C 350.469 118.774,350.156 118.375,349.838 117.917 C 349.520 117.458,349.089 116.897,348.880 116.668 C 348.671 116.440,348.500 116.196,348.500 116.127 C 348.500 116.057,348.387 116.000,348.250 116.000 C 348.113 116.000,348.000 115.923,348.000 115.830 C 348.000 115.736,347.587 115.267,347.082 114.788 C 345.876 113.643,345.706 113.500,345.547 113.500 C 345.473 113.500,345.211 113.313,344.964 113.083 C 344.717 112.854,344.448 112.667,344.366 112.667 C 344.285 112.667,344.089 112.523,343.930 112.348 C 343.772 112.173,343.460 111.984,343.238 111.928 C 343.015 111.873,342.833 111.753,342.833 111.663 C 342.833 111.574,342.688 111.500,342.510 111.500 C 342.332 111.500,342.140 111.425,342.083 111.333 C 342.026 111.241,341.628 111.009,341.198 110.817 C 340.768 110.625,340.201 110.364,339.938 110.237 C 339.675 110.109,339.394 110.046,339.313 110.096 C 339.233 110.146,339.167 110.119,339.167 110.036 C 339.167 109.912,338.248 109.547,337.583 109.407 C 337.492 109.388,337.079 109.275,336.667 109.156 C 336.254 109.037,335.867 108.935,335.806 108.928 C 335.744 108.922,335.638 108.860,335.569 108.792 C 335.501 108.723,335.237 108.667,334.983 108.667 C 334.729 108.667,334.325 108.592,334.084 108.500 C 333.615 108.322,332.772 108.167,331.833 108.087 C 331.512 108.060,331.134 107.989,330.992 107.930 C 330.851 107.872,330.202 107.807,329.551 107.787 C 328.900 107.767,328.394 107.706,328.427 107.653 C 328.549 107.451,317.960 107.302,317.417 107.498 M225.168 125.850 C 225.171 135.255,225.215 142.992,225.266 143.044 C 225.317 143.095,225.384 143.537,225.414 144.027 C 225.474 145.006,226.188 147.230,226.583 147.666 C 226.721 147.818,226.833 148.036,226.833 148.149 C 226.833 148.338,227.384 149.147,228.000 149.863 C 229.160 151.210,229.443 151.495,229.625 151.497 C 229.740 151.499,229.835 151.556,229.836 151.625 C 229.841 151.837,230.865 152.919,231.020 152.875 C 231.101 152.852,231.167 152.913,231.167 153.010 C 231.167 153.107,231.242 153.140,231.333 153.083 C 231.425 153.027,231.500 153.056,231.500 153.149 C 231.500 153.343,233.020 154.432,233.208 154.373 C 233.277 154.351,233.333 154.413,233.333 154.510 C 233.333 154.607,233.408 154.640,233.500 154.583 C 233.592 154.527,233.667 154.551,233.667 154.637 C 233.667 154.723,233.910 154.893,234.208 155.014 C 234.506 155.136,234.853 155.337,234.980 155.461 C 235.106 155.585,235.306 155.649,235.424 155.603 C 235.542 155.558,235.680 155.629,235.731 155.761 C 235.782 155.892,235.933 156.000,236.067 156.000 C 236.202 156.000,236.485 156.066,236.697 156.147 C 236.910 156.227,237.150 156.296,237.231 156.299 C 237.313 156.302,237.432 156.390,237.496 156.494 C 237.561 156.598,237.775 156.696,237.973 156.710 C 238.171 156.725,238.333 156.805,238.333 156.887 C 238.333 156.969,238.443 156.993,238.578 156.942 C 238.713 156.890,238.866 156.918,238.918 157.003 C 239.004 157.141,239.902 157.436,240.708 157.591 C 240.869 157.622,241.077 157.695,241.170 157.752 C 241.263 157.809,241.506 157.888,241.711 157.927 C 242.090 157.999,242.192 158.022,243.486 158.336 C 243.891 158.434,244.320 158.477,244.439 158.431 C 244.558 158.385,244.695 158.411,244.742 158.488 C 244.790 158.564,245.298 158.680,245.873 158.744 C 246.447 158.808,247.142 158.892,247.417 158.930 C 249.036 159.156,250.109 159.205,253.333 159.203 C 255.304 159.201,257.217 159.154,257.583 159.098 C 257.950 159.042,258.530 158.993,258.872 158.988 C 259.214 158.983,259.537 158.908,259.591 158.820 C 259.646 158.733,259.756 158.702,259.837 158.752 C 259.918 158.802,260.456 158.759,261.034 158.655 C 261.611 158.552,262.283 158.445,262.528 158.418 C 262.772 158.391,263.229 158.284,263.543 158.180 C 263.857 158.076,264.404 157.954,264.758 157.909 C 265.112 157.864,265.557 157.725,265.746 157.601 C 265.936 157.477,266.421 157.320,266.825 157.251 C 267.229 157.183,267.811 156.986,268.118 156.814 C 268.426 156.641,268.787 156.500,268.922 156.500 C 269.056 156.500,269.167 156.425,269.167 156.333 C 269.167 156.242,269.321 156.167,269.510 156.167 C 270.142 156.167,273.449 154.400,273.639 153.962 C 273.669 153.891,273.801 153.833,273.931 153.833 C 274.060 153.833,274.167 153.758,274.167 153.667 C 274.167 153.575,274.271 153.500,274.398 153.500 C 274.525 153.500,275.028 153.125,275.516 152.667 C 276.005 152.208,276.476 151.833,276.563 151.833 C 276.651 151.833,276.687 151.798,276.645 151.756 C 276.602 151.713,277.038 151.174,277.613 150.557 C 278.189 149.941,278.812 149.113,278.997 148.718 C 279.183 148.323,279.404 148.000,279.489 148.000 C 279.615 148.000,280.251 146.558,280.409 145.917 C 280.431 145.825,280.493 145.637,280.545 145.500 C 280.646 145.236,280.799 144.408,280.976 143.167 C 281.035 142.754,281.083 134.857,281.083 125.618 L 281.083 108.819 274.020 108.830 C 270.135 108.835,266.891 108.881,266.809 108.932 C 266.725 108.984,266.665 116.083,266.670 125.486 C 266.675 136.514,266.621 142.099,266.505 142.405 C 266.409 142.656,266.369 142.922,266.415 142.997 C 266.460 143.071,266.386 143.175,266.249 143.227 C 266.112 143.280,266.000 143.422,266.000 143.543 C 266.000 144.480,263.858 146.874,262.443 147.518 C 262.205 147.627,262.057 147.791,262.114 147.883 C 262.171 147.976,262.143 148.005,262.051 147.948 C 261.959 147.892,261.442 148.065,260.900 148.334 C 260.359 148.603,259.798 148.825,259.653 148.828 C 259.508 148.831,259.337 148.886,259.273 148.949 C 259.209 149.013,259.065 149.085,258.954 149.109 C 258.842 149.134,258.450 149.235,258.083 149.334 C 257.717 149.433,257.079 149.546,256.667 149.584 C 256.254 149.623,255.729 149.702,255.500 149.761 C 254.972 149.898,251.326 149.881,250.333 149.738 C 249.921 149.679,249.396 149.610,249.167 149.586 C 248.938 149.562,248.563 149.472,248.333 149.386 C 248.104 149.300,247.804 149.237,247.667 149.245 C 247.529 149.254,247.379 149.217,247.333 149.164 C 247.236 149.049,245.690 148.449,245.350 148.394 C 245.222 148.373,245.072 148.293,245.017 148.217 C 244.962 148.141,244.542 147.892,244.083 147.665 C 243.625 147.437,243.175 147.193,243.083 147.122 C 242.992 147.052,242.659 146.827,242.343 146.622 C 242.028 146.417,241.774 146.175,241.779 146.083 C 241.784 145.992,241.648 145.818,241.477 145.698 C 241.305 145.578,241.049 145.257,240.909 144.984 C 240.760 144.698,240.574 144.537,240.467 144.604 C 240.354 144.673,240.329 144.642,240.402 144.524 C 240.543 144.296,240.364 143.628,240.190 143.736 C 240.124 143.776,240.055 143.616,240.035 143.380 C 240.016 143.144,239.935 142.868,239.856 142.767 C 239.526 142.345,239.485 140.347,239.496 124.924 L 239.507 108.750 232.335 108.750 L 225.164 108.750 225.168 125.850 M46.001 133.291 L 46.004 157.750 53.210 157.667 L 60.417 157.583 60.460 146.958 L 60.502 136.333 74.731 136.333 C 86.587 136.333,88.991 136.295,89.149 136.105 C 89.283 135.943,89.326 134.562,89.294 131.396 L 89.250 126.917 74.875 126.874 L 60.500 126.831 60.500 122.749 L 60.500 118.667 77.336 118.667 L 94.172 118.667 94.128 113.792 L 94.083 108.917 70.041 108.874 L 45.998 108.832 46.001 133.291 M114.143 109.292 C 114.042 109.544,113.820 110.020,113.649 110.350 C 113.479 110.681,113.388 110.999,113.447 111.058 C 113.505 111.117,113.440 111.296,113.302 111.457 C 113.088 111.706,112.832 112.197,112.758 112.500 C 112.747 112.546,112.650 112.742,112.542 112.936 C 112.434 113.131,112.393 113.338,112.452 113.396 C 112.511 113.455,112.435 113.596,112.283 113.710 C 112.131 113.824,111.982 114.067,111.952 114.250 C 111.923 114.433,111.774 114.818,111.622 115.104 C 111.471 115.390,111.383 115.661,111.427 115.705 C 111.472 115.750,111.394 115.881,111.254 115.997 C 111.114 116.113,111.000 116.321,111.000 116.459 C 111.000 116.597,110.832 116.982,110.627 117.314 C 110.422 117.645,110.270 117.935,110.289 117.957 C 110.365 118.043,109.381 120.331,108.816 121.382 C 108.728 121.546,108.707 121.764,108.770 121.866 C 108.833 121.968,108.813 122.007,108.725 121.953 C 108.637 121.898,108.357 122.356,108.102 122.969 C 107.847 123.582,107.532 124.282,107.403 124.526 C 107.273 124.769,107.167 125.088,107.167 125.234 C 107.167 125.380,107.098 125.500,107.013 125.500 C 106.929 125.500,106.808 125.744,106.745 126.042 C 106.681 126.340,106.518 126.710,106.381 126.865 C 106.244 127.020,106.122 127.332,106.108 127.558 C 106.094 127.783,106.014 127.925,105.930 127.873 C 105.845 127.821,105.826 127.906,105.886 128.065 C 105.947 128.222,105.932 128.311,105.853 128.262 C 105.712 128.175,105.061 129.630,105.131 129.875 C 105.151 129.944,105.092 130.000,105.000 130.000 C 104.908 130.000,104.850 130.056,104.870 130.125 C 104.891 130.194,104.656 130.775,104.350 131.417 C 104.044 132.058,103.780 132.670,103.764 132.775 C 103.748 132.880,103.636 133.086,103.514 133.233 C 103.392 133.380,103.344 133.500,103.407 133.500 C 103.469 133.500,103.316 133.875,103.067 134.334 C 102.817 134.793,102.660 135.216,102.718 135.273 C 102.775 135.331,102.675 135.566,102.495 135.795 C 102.314 136.024,102.167 136.352,102.167 136.522 C 102.167 136.693,102.097 136.833,102.011 136.833 C 101.853 136.833,101.574 137.481,101.634 137.708 C 101.652 137.777,101.587 137.833,101.490 137.833 C 101.393 137.833,101.357 137.903,101.410 137.988 C 101.462 138.074,101.428 138.191,101.333 138.250 C 101.239 138.309,101.204 138.426,101.257 138.512 C 101.310 138.597,101.269 138.667,101.167 138.667 C 101.064 138.667,101.027 138.742,101.083 138.833 C 101.140 138.925,101.102 139.000,101.000 139.000 C 100.898 139.000,100.860 139.075,100.917 139.167 C 100.973 139.258,100.940 139.333,100.843 139.333 C 100.746 139.333,100.667 139.451,100.667 139.594 C 100.667 139.738,100.576 140.019,100.466 140.219 C 100.356 140.420,100.259 140.658,100.251 140.750 C 100.229 140.999,99.777 141.902,99.617 142.017 C 99.541 142.072,99.457 142.222,99.431 142.350 C 99.406 142.478,99.298 142.794,99.192 143.053 C 99.087 143.311,99.000 143.592,99.000 143.678 C 99.000 143.763,98.912 143.833,98.806 143.833 C 98.699 143.833,98.657 143.880,98.714 143.936 C 98.770 143.992,98.627 144.402,98.394 144.845 C 98.162 145.289,97.952 145.749,97.928 145.868 C 97.903 145.986,97.671 146.533,97.411 147.083 C 97.152 147.633,96.931 148.121,96.920 148.167 C 96.894 148.272,95.825 150.531,95.705 150.734 C 95.655 150.817,95.699 150.833,95.802 150.769 C 96.023 150.633,95.159 152.363,94.921 152.533 C 94.832 152.596,94.812 152.700,94.875 152.764 C 94.938 152.827,94.838 153.093,94.651 153.355 C 94.465 153.617,94.366 153.918,94.432 154.025 C 94.506 154.145,94.479 154.173,94.359 154.099 C 94.246 154.029,94.167 154.085,94.167 154.235 C 94.167 154.375,94.015 154.759,93.830 155.089 C 93.645 155.419,93.537 155.758,93.590 155.844 C 93.643 155.930,93.625 156.000,93.551 156.000 C 93.414 156.000,93.124 156.595,92.921 157.288 L 92.813 157.660 99.909 157.705 L 107.004 157.750 107.289 157.005 C 107.445 156.595,107.704 156.003,107.865 155.689 C 108.025 155.375,108.116 155.053,108.068 154.975 C 108.020 154.897,108.072 154.833,108.185 154.833 C 108.297 154.833,108.339 154.783,108.277 154.722 C 108.216 154.661,108.283 154.481,108.425 154.324 C 108.568 154.166,108.697 153.879,108.711 153.685 C 108.726 153.492,108.778 153.333,108.828 153.333 C 108.963 153.333,109.349 152.405,109.378 152.010 C 109.393 151.821,109.448 151.667,109.502 151.667 C 109.599 151.667,109.977 150.733,110.008 150.417 C 110.016 150.325,110.135 150.127,110.271 149.977 C 110.407 149.827,110.530 149.546,110.544 149.352 C 110.559 149.158,110.624 149.000,110.689 149.000 C 110.754 149.000,110.856 148.775,110.917 148.500 L 111.026 148.000 121.489 148.000 L 131.951 148.000 132.491 149.208 C 133.330 151.082,133.691 151.876,133.939 152.389 C 134.064 152.648,134.167 152.967,134.167 153.097 C 134.167 153.227,134.239 153.333,134.328 153.333 C 134.417 153.333,134.446 153.446,134.394 153.583 C 134.341 153.721,134.362 153.833,134.441 153.833 C 134.521 153.833,134.670 154.040,134.773 154.292 C 135.051 154.969,135.219 155.406,135.238 155.500 C 135.247 155.546,135.314 155.677,135.387 155.791 C 135.460 155.905,135.550 156.159,135.588 156.356 C 135.625 156.552,135.771 156.839,135.911 156.994 C 136.052 157.149,136.167 157.363,136.167 157.468 C 136.167 157.688,150.308 157.843,150.442 157.625 C 150.485 157.556,150.436 157.500,150.333 157.500 C 150.231 157.500,150.188 157.433,150.239 157.351 C 150.326 157.211,150.019 156.390,149.673 155.833 C 149.400 155.395,147.963 152.021,147.997 151.898 C 148.015 151.833,147.909 151.712,147.761 151.630 C 147.614 151.547,147.533 151.414,147.583 151.335 C 147.632 151.255,147.596 151.143,147.503 151.085 C 147.410 151.027,147.333 150.874,147.333 150.745 C 147.333 150.615,146.995 149.795,146.582 148.922 C 146.168 148.049,145.823 147.278,145.813 147.209 C 145.804 147.140,145.640 146.864,145.449 146.595 C 145.244 146.307,145.200 146.166,145.342 146.252 C 145.552 146.379,145.552 146.359,145.343 146.101 C 145.211 145.939,145.091 145.647,145.077 145.453 C 145.063 145.259,144.964 145.071,144.859 145.036 C 144.753 145.001,144.667 144.870,144.667 144.744 C 144.667 144.619,144.341 143.819,143.943 142.967 C 143.545 142.114,143.008 140.929,142.750 140.333 C 142.492 139.737,142.030 138.706,141.724 138.041 C 141.417 137.376,141.167 136.802,141.167 136.766 C 141.167 136.662,139.851 133.802,139.568 133.291 C 139.428 133.039,139.288 132.702,139.257 132.541 C 139.171 132.107,138.237 130.152,138.155 130.234 C 138.115 130.273,138.072 130.120,138.059 129.893 C 138.045 129.666,137.914 129.348,137.767 129.185 C 137.620 129.023,137.549 128.839,137.611 128.778 C 137.672 128.717,137.622 128.667,137.500 128.667 C 137.378 128.667,137.327 128.617,137.387 128.557 C 137.448 128.497,137.414 128.347,137.311 128.224 C 137.209 128.101,137.177 128.000,137.240 128.000 C 137.302 128.000,137.102 127.531,136.795 126.958 C 136.488 126.385,136.143 125.598,136.028 125.208 C 135.914 124.819,135.744 124.500,135.650 124.500 C 135.557 124.500,135.527 124.424,135.584 124.332 C 135.641 124.240,135.571 124.119,135.428 124.065 C 135.285 124.010,135.205 123.906,135.250 123.834 C 135.345 123.679,134.861 122.458,134.652 122.326 C 134.573 122.276,134.480 122.089,134.446 121.909 C 134.412 121.730,134.306 121.396,134.210 121.167 C 134.114 120.938,133.907 120.432,133.750 120.043 C 133.593 119.654,133.405 119.373,133.331 119.418 C 133.258 119.463,133.235 119.357,133.281 119.182 C 133.328 119.003,133.230 118.724,133.057 118.543 C 132.778 118.251,132.695 118.077,132.599 117.583 C 132.582 117.492,132.461 117.229,132.331 117.000 C 132.201 116.771,132.082 116.546,132.067 116.500 C 132.051 116.454,131.984 116.248,131.916 116.042 C 131.849 115.835,131.728 115.667,131.647 115.667 C 131.566 115.667,131.512 115.610,131.527 115.542 C 131.584 115.284,131.291 114.500,131.139 114.500 C 131.052 114.500,131.017 114.441,131.062 114.368 C 131.142 114.239,130.994 113.869,130.223 112.278 C 130.009 111.835,129.833 111.375,129.833 111.257 C 129.833 111.138,129.722 110.948,129.585 110.835 C 129.449 110.722,129.374 110.569,129.420 110.495 C 129.465 110.422,129.429 110.337,129.339 110.306 C 129.250 110.275,129.152 110.100,129.122 109.917 C 129.092 109.733,128.974 109.415,128.861 109.208 L 128.655 108.833 121.491 108.833 L 114.326 108.833 114.143 109.292 M160.500 133.292 L 160.500 157.750 167.375 157.712 L 174.250 157.674 174.333 142.212 L 174.417 126.750 175.189 127.750 C 175.614 128.300,176.139 128.944,176.356 129.182 C 177.442 130.371,177.833 130.834,177.833 130.927 C 177.833 130.984,178.002 131.179,178.208 131.361 C 178.415 131.543,178.471 131.634,178.333 131.563 C 178.092 131.438,178.946 132.437,179.542 132.977 C 179.702 133.122,179.833 133.341,179.833 133.464 C 179.833 133.586,179.908 133.640,180.000 133.583 C 180.092 133.527,180.167 133.587,180.167 133.717 C 180.167 133.847,180.491 134.302,180.888 134.728 C 181.284 135.154,181.582 135.529,181.549 135.562 C 181.486 135.625,182.101 136.363,183.289 137.652 C 183.677 138.072,183.996 138.509,183.997 138.621 C 183.999 138.734,184.190 138.950,184.422 139.102 C 184.654 139.254,184.807 139.416,184.761 139.461 C 184.716 139.506,185.013 139.890,185.421 140.313 C 185.829 140.737,186.164 141.158,186.165 141.250 C 186.167 141.342,186.412 141.683,186.709 142.009 C 187.007 142.335,187.466 142.916,187.731 143.301 C 187.996 143.685,188.314 144.000,188.439 144.000 C 188.564 144.000,188.667 144.098,188.667 144.219 C 188.667 144.339,188.835 144.618,189.042 144.839 C 189.248 145.061,189.620 145.543,189.868 145.912 C 190.116 146.281,190.397 146.583,190.493 146.583 C 190.588 146.583,190.648 146.626,190.625 146.679 C 190.602 146.731,190.696 146.892,190.833 147.037 C 190.971 147.181,191.308 147.581,191.583 147.924 C 191.858 148.268,192.308 148.830,192.583 149.173 C 192.858 149.516,193.271 150.041,193.500 150.339 C 193.729 150.637,194.040 151.012,194.190 151.172 C 194.435 151.434,194.937 152.062,196.305 153.822 C 196.550 154.137,196.956 154.611,197.208 154.877 C 197.460 155.142,197.667 155.428,197.667 155.513 C 197.667 155.597,197.779 155.667,197.917 155.667 C 198.054 155.667,198.167 155.773,198.167 155.903 C 198.167 156.032,198.387 156.347,198.657 156.601 C 198.926 156.855,199.109 157.124,199.064 157.199 C 199.018 157.273,199.097 157.333,199.240 157.333 C 199.383 157.333,199.481 157.390,199.458 157.458 C 199.389 157.666,199.408 157.667,207.458 157.667 L 215.250 157.667 215.207 133.250 L 215.164 108.833 208.249 108.833 L 201.333 108.833 201.333 125.167 C 201.333 135.944,201.277 141.500,201.167 141.500 C 201.075 141.500,201.000 141.430,201.000 141.345 C 201.000 141.260,200.747 140.923,200.439 140.595 C 200.130 140.268,199.905 140.000,199.939 140.000 C 199.972 140.000,199.869 139.858,199.708 139.683 C 198.979 138.892,198.500 138.321,198.472 138.207 C 198.418 137.993,198.044 137.679,197.937 137.758 C 197.880 137.799,197.868 137.786,197.911 137.728 C 198.033 137.562,197.667 136.980,197.504 137.081 C 197.423 137.131,197.311 137.026,197.255 136.848 C 197.198 136.671,196.856 136.220,196.493 135.846 C 196.130 135.472,195.881 135.167,195.939 135.167 C 195.997 135.167,195.843 135.008,195.597 134.814 C 195.351 134.621,195.187 134.424,195.234 134.377 C 195.281 134.330,195.060 134.040,194.743 133.732 C 194.426 133.424,194.167 133.100,194.167 133.012 C 194.167 132.924,194.000 132.735,193.796 132.593 C 193.593 132.450,193.486 132.333,193.561 132.333 C 193.635 132.333,193.445 132.084,193.139 131.780 C 192.834 131.476,192.471 131.031,192.333 130.792 C 192.102 130.389,191.085 129.156,190.218 128.228 C 190.016 128.013,189.791 127.732,189.718 127.605 C 189.558 127.330,188.524 126.042,188.164 125.672 C 188.026 125.529,187.730 125.151,187.507 124.831 C 187.284 124.511,186.947 124.098,186.759 123.912 C 186.283 123.443,184.949 121.848,184.765 121.530 C 184.595 121.236,184.214 120.788,183.292 119.798 C 182.948 119.429,182.667 119.089,182.667 119.041 C 182.667 118.994,182.498 118.779,182.292 118.565 C 181.616 117.862,181.333 117.502,181.333 117.345 C 181.333 117.260,181.127 117.029,180.875 116.830 C 180.623 116.632,180.442 116.433,180.473 116.388 C 180.504 116.343,180.195 115.938,179.786 115.487 C 179.376 115.036,179.070 114.667,179.105 114.667 C 179.141 114.667,178.962 114.432,178.710 114.145 C 177.979 113.316,177.449 112.693,177.000 112.136 C 176.771 111.852,176.377 111.399,176.125 111.130 C 175.873 110.861,175.667 110.574,175.667 110.493 C 175.667 110.412,175.515 110.264,175.329 110.164 C 175.143 110.065,175.026 109.926,175.069 109.857 C 175.112 109.787,174.933 109.529,174.672 109.282 L 174.197 108.833 167.348 108.833 L 160.500 108.833 160.500 133.292 M122.094 125.050 C 122.151 125.310,122.288 125.557,122.397 125.599 C 122.507 125.641,122.609 125.836,122.623 126.033 C 122.663 126.561,123.014 127.333,123.215 127.333 C 123.310 127.333,123.341 127.381,123.282 127.440 C 123.223 127.499,123.280 127.742,123.409 127.982 C 123.537 128.221,123.923 129.129,124.267 130.000 C 124.611 130.871,124.954 131.608,125.030 131.639 C 125.106 131.670,125.126 131.764,125.075 131.848 C 125.023 131.931,125.060 132.000,125.157 132.000 C 125.254 132.000,125.333 132.188,125.333 132.417 C 125.333 132.646,125.408 132.833,125.500 132.833 C 125.592 132.833,125.652 132.890,125.634 132.958 C 125.572 133.193,125.855 133.833,126.021 133.833 C 126.112 133.833,126.151 133.891,126.107 133.961 C 126.064 134.032,126.169 134.388,126.342 134.753 C 126.514 135.118,126.658 135.543,126.661 135.698 C 126.664 135.854,126.736 136.023,126.821 136.076 C 126.906 136.128,127.066 136.452,127.176 136.794 C 127.286 137.136,127.484 137.541,127.617 137.694 C 127.750 137.846,127.874 138.071,127.892 138.194 C 127.911 138.316,127.997 138.529,128.083 138.667 C 128.170 138.804,128.253 139.001,128.269 139.104 C 128.285 139.208,128.348 139.451,128.410 139.646 L 128.522 140.000 121.595 140.000 C 114.051 140.000,114.384 140.049,115.001 139.038 C 115.184 138.738,115.333 138.379,115.333 138.240 C 115.333 138.102,115.454 137.803,115.603 137.577 C 115.751 137.352,115.823 137.167,115.763 137.167 C 115.704 137.167,115.749 136.998,115.863 136.792 C 115.977 136.585,116.055 136.360,116.035 136.292 C 116.016 136.223,116.083 136.167,116.184 136.167 C 116.286 136.167,116.324 136.050,116.270 135.908 C 116.213 135.760,116.241 135.693,116.335 135.751 C 116.426 135.807,116.500 135.752,116.500 135.628 C 116.500 135.505,116.650 135.110,116.833 134.750 C 117.017 134.390,117.169 133.981,117.172 133.840 C 117.175 133.699,117.285 133.441,117.417 133.267 C 117.548 133.093,117.616 132.887,117.568 132.809 C 117.520 132.731,117.549 132.667,117.634 132.667 C 117.832 132.667,118.530 130.850,118.407 130.651 C 118.356 130.568,118.387 130.500,118.476 130.500 C 118.629 130.500,119.174 129.283,119.185 128.917 C 119.188 128.825,119.286 128.637,119.403 128.500 C 119.677 128.177,120.171 126.902,120.074 126.769 C 120.033 126.713,120.050 126.704,120.111 126.750 C 120.237 126.844,121.088 124.903,121.257 124.136 L 121.368 123.628 121.679 124.103 C 121.850 124.363,122.037 124.790,122.094 125.050 " stroke="none" fill="#dc1434" fill-rule="evenodd"></path><path id="path1" d="M54.833 108.790 C 77.552 108.904,94.167 108.905,94.167 108.792 C 94.167 108.723,83.385 108.685,70.208 108.707 C 57.031 108.729,50.112 108.766,54.833 108.790 M117.083 108.786 C 123.452 108.903,128.795 108.905,128.724 108.792 C 128.682 108.723,125.483 108.683,121.615 108.704 C 117.748 108.724,115.708 108.761,117.083 108.786 M167.333 108.790 C 173.598 108.830,174.270 108.861,174.458 109.116 C 174.573 109.270,174.667 109.323,174.667 109.232 C 174.667 108.694,174.290 108.667,167.342 108.706 L 160.417 108.746 167.333 108.790 M204.886 108.792 C 206.794 108.818,209.869 108.818,211.719 108.791 C 213.570 108.765,212.008 108.743,208.250 108.743 C 204.492 108.743,202.978 108.765,204.886 108.792 M228.792 108.791 C 230.740 108.818,233.927 108.818,235.875 108.791 C 237.823 108.765,236.229 108.743,232.333 108.743 C 228.438 108.743,226.844 108.765,228.792 108.791 M266.667 108.792 C 266.666 108.905,272.048 108.903,278.417 108.786 C 279.792 108.761,277.710 108.724,273.792 108.704 C 269.873 108.683,266.667 108.723,266.667 108.792 M215.248 133.167 C 215.248 146.596,215.268 152.090,215.292 145.375 C 215.316 138.660,215.316 127.673,215.292 120.958 C 215.268 114.244,215.248 119.737,215.248 133.167 M300.000 113.113 C 300.000 113.206,299.831 113.364,299.625 113.463 C 299.419 113.563,299.329 113.649,299.426 113.655 C 299.707 113.673,300.262 113.207,300.125 113.069 C 300.056 113.001,300.000 113.020,300.000 113.113 M110.207 118.042 C 109.940 118.376,109.766 119.061,109.982 118.928 C 110.084 118.865,110.167 118.683,110.167 118.523 C 110.167 118.364,110.257 118.143,110.367 118.033 C 110.477 117.923,110.523 117.833,110.470 117.833 C 110.417 117.833,110.299 117.927,110.207 118.042 M109.491 119.606 C 109.399 119.848,109.355 120.077,109.393 120.115 C 109.431 120.153,109.541 119.955,109.639 119.675 C 109.855 119.053,109.725 118.993,109.491 119.606 M337.621 128.454 C 337.917 128.490,338.442 128.491,338.788 128.455 C 339.134 128.419,338.892 128.389,338.250 128.388 C 337.608 128.387,337.325 128.417,337.621 128.454 M342.288 128.454 C 342.584 128.490,343.109 128.491,343.455 128.455 C 343.800 128.419,343.558 128.389,342.917 128.388 C 342.275 128.387,341.992 128.417,342.288 128.454 M344.625 128.454 C 344.923 128.491,345.410 128.491,345.708 128.454 C 346.006 128.417,345.762 128.387,345.167 128.387 C 344.571 128.387,344.327 128.417,344.625 128.454 M349.292 128.454 C 349.590 128.491,350.077 128.491,350.375 128.454 C 350.673 128.417,350.429 128.387,349.833 128.387 C 349.238 128.387,348.994 128.417,349.292 128.454 M351.625 128.454 C 351.923 128.491,352.410 128.491,352.708 128.454 C 353.006 128.417,352.762 128.387,352.167 128.387 C 351.571 128.387,351.327 128.417,351.625 128.454 M192.437 130.904 C 192.564 131.241,193.157 131.900,193.248 131.806 C 193.277 131.775,193.079 131.487,192.809 131.167 C 192.538 130.846,192.371 130.728,192.437 130.904 M341.208 138.125 C 343.569 138.151,347.431 138.151,349.792 138.125 C 352.152 138.099,350.221 138.077,345.500 138.077 C 340.779 138.077,338.848 138.099,341.208 138.125 M242.126 146.458 C 242.342 146.665,242.608 146.831,242.718 146.828 C 242.827 146.825,242.767 146.740,242.583 146.638 C 242.400 146.537,242.134 146.370,241.992 146.268 C 241.850 146.167,241.910 146.252,242.126 146.458 M311.193 147.074 C 311.295 147.298,311.482 147.521,311.607 147.570 C 311.742 147.621,311.686 147.454,311.470 147.162 C 311.025 146.560,310.947 146.535,311.193 147.074 M332.443 147.637 C 332.044 148.079,332.102 148.231,332.514 147.819 C 332.705 147.628,332.829 147.441,332.791 147.402 C 332.752 147.363,332.596 147.469,332.443 147.637 M312.167 148.098 C 312.167 148.283,312.916 148.822,313.167 148.817 C 313.304 148.814,313.246 148.744,313.038 148.660 C 312.830 148.576,312.615 148.394,312.562 148.254 C 312.469 148.011,312.167 147.892,312.167 148.098 M229.734 151.917 C 230.306 152.447,230.433 152.449,230.049 151.922 C 229.885 151.696,229.645 151.508,229.517 151.505 C 229.379 151.502,229.467 151.669,229.734 151.917 M194.833 152.125 C 195.051 152.423,195.255 152.667,195.287 152.667 C 195.414 152.667,195.001 152.042,194.727 151.820 C 194.547 151.673,194.587 151.790,194.833 152.125 M304.333 155.577 C 304.333 155.792,304.987 155.989,305.099 155.808 C 305.170 155.693,305.145 155.660,305.037 155.727 C 304.938 155.788,304.809 155.763,304.752 155.669 C 304.647 155.500,304.333 155.431,304.333 155.577 M135.933 157.317 L 136.191 157.833 143.221 157.794 L 150.250 157.754 143.208 157.708 C 137.388 157.671,136.167 157.624,136.167 157.435 C 136.167 157.310,136.056 157.116,135.921 157.004 C 135.713 156.831,135.715 156.879,135.933 157.317 M92.723 157.261 C 92.514 157.805,92.947 157.837,99.927 157.792 L 106.917 157.746 99.864 157.706 C 92.896 157.667,92.812 157.663,92.917 157.333 C 93.041 156.942,92.870 156.878,92.723 157.261 M46.109 157.708 C 46.152 157.777,49.407 157.833,53.343 157.833 C 57.279 157.833,60.500 157.777,60.500 157.708 C 60.500 157.640,57.245 157.583,53.266 157.583 C 49.287 157.583,46.067 157.640,46.109 157.708 M163.958 157.791 C 165.815 157.818,168.852 157.818,170.708 157.791 C 172.565 157.765,171.046 157.743,167.333 157.743 C 163.621 157.743,162.102 157.765,163.958 157.791 M203.542 157.792 C 205.719 157.818,209.281 157.818,211.458 157.792 C 213.635 157.765,211.854 157.744,207.500 157.744 C 203.146 157.744,201.365 157.765,203.542 157.792 M323.208 159.288 C 323.552 159.324,324.115 159.324,324.458 159.288 C 324.802 159.252,324.521 159.223,323.833 159.223 C 323.146 159.223,322.865 159.252,323.208 159.288 " stroke="none" fill="#d41434" fill-rule="evenodd"></path><path id="path2" d="M67.638 126.792 C 71.609 126.817,78.059 126.817,81.971 126.792 C 85.883 126.767,82.633 126.746,74.750 126.746 C 66.867 126.746,63.666 126.767,67.638 126.792 " stroke="none" fill="#e01434" fill-rule="evenodd"></path><path id="path3" d="M67.638 126.792 C 71.609 126.817,78.059 126.817,81.971 126.792 C 85.883 126.767,82.633 126.746,74.750 126.746 C 66.867 126.746,63.666 126.767,67.638 126.792 " stroke="none" fill="#e01434" fill-rule="evenodd"></path><path id="path4" d="M67.638 126.792 C 71.609 126.817,78.059 126.817,81.971 126.792 C 85.883 126.767,82.633 126.746,74.750 126.746 C 66.867 126.746,63.666 126.767,67.638 126.792 " stroke="none" fill="#e01434" fill-rule="evenodd"></path></g></svg>