<svg id="svg" version="1.1" xmlns="http://www.w3.org/2000/svg" xmlns:xlink="http://www.w3.org/1999/xlink" width="400" height="144.0625" viewBox="0, 0, 400,144.0625"><g id="svgg"><path id="path0" d="M193.750 4.947 C 179.259 5.110,158.912 6.272,145.833 7.682 C 141.074 8.195,130.562 9.469,128.026 9.840 C 124.275 10.389,114.175 11.989,112.833 12.248 C 112.146 12.381,109.408 12.906,106.750 13.415 C 101.051 14.508,101.832 14.343,94.911 15.912 C 50.980 25.871,20.452 41.844,11.369 59.622 C 2.651 76.684,13.687 94.498,41.644 108.489 C 45.820 110.579,55.286 114.833,55.760 114.833 C 55.799 114.833,57.099 115.320,58.649 115.915 C 82.648 125.124,116.249 132.168,151.250 135.329 C 161.941 136.295,168.607 136.744,179.083 137.204 C 185.641 137.492,216.682 137.491,223.083 137.202 C 252.435 135.878,276.780 132.989,300.833 127.976 C 348.630 118.015,381.869 101.158,390.920 82.290 C 407.029 48.710,348.229 16.758,253.000 7.346 C 238.368 5.900,212.011 4.684,199.417 4.874 C 198.133 4.893,195.583 4.926,193.750 4.947 M218.750 10.844 C 240.040 11.435,265.736 13.828,283.871 16.908 C 292.978 18.454,294.413 18.720,300.583 20.005 C 414.123 43.643,415.882 97.376,303.917 121.817 C 300.983 122.457,297.908 123.103,297.083 123.252 C 296.258 123.401,294.046 123.814,292.167 124.169 C 245.464 132.987,184.432 134.388,133.250 127.819 C 129.117 127.288,116.553 125.392,113.583 124.850 C 106.242 123.510,103.261 122.934,100.070 122.238 C 98.152 121.819,95.721 121.290,94.667 121.063 C 88.151 119.660,77.193 116.650,69.583 114.174 C 9.158 94.516,-2.339 63.930,41.685 39.954 C 45.938 37.638,53.055 34.342,57.083 32.824 C 58.000 32.478,59.087 32.050,59.500 31.872 C 69.148 27.718,94.876 20.867,111.250 18.091 C 113.175 17.765,115.837 17.310,117.167 17.080 C 146.173 12.066,182.473 9.837,218.750 10.844 M145.000 21.611 C 122.588 22.810,106.046 34.971,106.726 49.750 C 107.376 63.867,123.869 67.648,135.806 56.417 C 140.368 52.125,145.079 44.168,144.593 41.578 C 144.375 40.416,143.266 39.717,142.257 40.104 C 142.108 40.161,141.319 41.080,140.504 42.145 C 134.071 50.557,124.396 54.076,120.283 49.501 C 117.104 45.965,118.992 39.140,124.370 34.723 C 133.509 27.219,148.065 25.567,169.667 29.583 C 171.821 29.983,174.708 30.513,176.083 30.759 C 179.779 31.422,179.809 31.527,176.792 33.176 C 168.952 37.460,162.089 43.892,154.512 54.057 C 150.553 59.368,151.330 58.781,147.386 59.448 C 136.169 61.346,129.170 64.462,129.167 67.558 C 129.166 69.614,131.221 70.143,133.340 68.632 C 136.543 66.347,140.933 64.833,144.355 64.833 C 145.854 64.833,145.951 64.593,142.625 69.119 C 134.135 80.671,125.865 89.561,119.374 94.111 C 110.336 100.446,99.683 100.738,95.422 94.767 C 90.554 87.945,93.741 79.698,103.418 74.079 C 106.180 72.475,106.647 71.141,105.038 69.454 C 101.256 65.491,88.460 72.987,84.333 81.583 C 76.851 97.167,86.712 112.841,104.002 112.849 C 122.185 112.857,133.419 102.552,156.587 64.612 C 157.025 63.895,157.541 63.207,157.733 63.083 C 158.283 62.730,170.091 61.461,175.010 61.226 L 177.329 61.116 178.123 61.992 C 181.593 65.825,186.000 66.967,186.000 64.035 C 186.000 63.480,185.776 63.257,183.870 61.910 C 181.997 60.586,181.869 60.080,183.285 59.597 C 191.810 56.692,192.777 44.750,184.487 44.750 C 179.799 44.750,176.070 49.043,175.872 54.667 C 175.832 55.813,175.746 56.807,175.682 56.876 C 175.442 57.134,161.687 57.920,161.456 57.689 C 161.385 57.618,161.763 56.866,162.297 56.016 C 166.467 49.379,172.209 43.585,181.524 36.617 C 184.292 34.547,184.333 34.500,184.333 33.483 C 184.333 32.888,184.368 32.835,184.708 32.912 C 184.915 32.959,185.796 33.152,186.667 33.341 C 188.444 33.726,196.562 35.850,200.000 36.829 C 219.431 42.362,231.952 43.820,242.250 41.748 C 253.546 39.476,262.441 32.736,260.446 27.962 C 259.817 26.456,258.901 26.380,253.780 27.411 C 240.782 30.029,226.329 30.470,210.000 28.745 C 205.252 28.243,196.039 26.878,186.417 25.250 C 167.905 22.118,155.649 21.041,145.000 21.611 M185.349 48.591 C 187.359 49.631,185.465 53.677,182.217 55.283 C 180.490 56.136,180.033 55.744,180.254 53.602 C 180.603 50.222,183.325 47.545,185.349 48.591 M308.896 49.206 C 308.713 49.414,308.123 50.296,307.585 51.167 C 307.046 52.038,303.374 57.625,299.425 63.583 C 295.475 69.542,291.764 75.145,291.178 76.034 C 289.754 78.196,289.366 78.302,289.008 76.631 C 287.960 71.743,281.615 68.616,275.064 69.758 C 269.442 70.738,265.145 73.361,256.250 81.244 C 250.878 86.004,248.703 87.740,245.935 89.474 C 241.242 92.414,237.363 92.723,234.987 90.347 C 232.203 87.563,232.841 82.069,236.398 78.200 C 237.433 77.075,237.745 77.238,237.771 78.917 C 237.898 87.237,249.135 86.525,250.915 78.083 C 251.525 75.192,250.870 72.849,248.900 70.872 C 244.449 66.407,236.156 68.426,230.492 75.354 C 228.746 77.488,228.621 77.479,228.471 75.217 C 228.126 70.025,225.979 67.583,221.583 67.383 C 216.204 67.139,210.939 70.424,203.417 78.718 C 200.099 82.375,200.040 82.391,199.807 79.634 C 199.461 75.530,197.816 71.094,196.295 70.167 C 195.357 69.595,194.623 69.722,192.673 70.792 C 189.498 72.536,189.337 72.845,190.078 75.785 C 192.774 86.480,188.075 98.333,179.418 102.675 C 170.383 107.207,164.167 99.679,168.432 89.370 C 170.902 83.399,176.547 78.246,184.083 75.084 C 186.515 74.063,186.500 74.073,186.500 73.596 C 186.500 73.060,185.417 70.202,185.068 69.816 C 184.070 68.714,180.139 69.136,175.476 70.848 C 165.960 74.340,159.994 80.653,154.823 92.704 C 153.083 96.758,151.861 98.302,146.541 103.172 C 144.681 104.874,144.683 104.860,146.053 106.766 C 147.282 108.476,147.797 108.921,148.377 108.775 C 149.089 108.596,152.145 106.181,154.133 104.226 C 155.191 103.185,156.108 102.333,156.169 102.333 C 156.431 102.333,156.813 102.988,157.145 104.000 C 160.308 113.658,172.277 116.783,182.606 110.646 C 187.384 107.808,191.346 103.782,196.201 96.833 C 197.069 95.591,200.311 91.480,202.641 88.667 C 208.931 81.071,215.968 75.882,218.403 77.043 C 220.331 77.963,220.036 80.024,217.288 84.833 C 214.999 88.838,213.743 90.917,209.833 97.167 C 208.964 98.557,205.344 104.206,203.532 107.000 C 200.947 110.987,200.124 112.495,200.343 112.848 C 200.500 113.103,209.315 113.299,210.804 113.081 L 211.525 112.976 213.435 110.030 C 214.486 108.409,216.652 105.058,218.248 102.583 C 224.240 93.292,226.881 89.333,227.088 89.333 C 227.221 89.333,227.345 89.667,227.416 90.208 C 228.670 99.876,237.132 102.576,246.857 96.411 C 248.841 95.153,248.909 95.188,248.726 97.377 C 247.351 113.802,260.935 119.481,274.219 108.033 C 276.522 106.049,276.561 106.054,276.985 108.417 C 277.670 112.233,280.732 114.685,284.833 114.700 C 292.378 114.728,301.691 108.308,312.650 95.523 C 314.862 92.943,314.856 93.001,313.045 91.388 C 311.149 89.699,311.664 89.440,306.167 94.860 C 298.915 102.011,294.922 105.203,292.120 106.088 C 288.166 107.337,286.096 105.245,287.722 101.643 C 288.945 98.935,294.681 89.869,312.060 63.177 C 316.920 55.711,320.901 49.449,320.907 49.260 C 320.917 48.920,320.852 48.916,315.073 48.873 L 309.229 48.829 308.896 49.206 M280.672 77.351 C 283.356 78.506,283.818 81.393,282.008 85.702 C 281.368 87.225,281.372 87.364,282.082 87.942 L 282.665 88.417 281.948 89.833 C 274.705 104.153,259.980 110.234,260.549 98.671 C 261.074 88.002,273.883 74.431,280.672 77.351 " stroke="none" fill="#fafafb" fill-rule="evenodd"></path><path id="path1" d="M178.583 0.179 C 170.093 0.523,161.474 1.112,150.667 2.084 C 148.146 2.311,145.146 2.576,144.000 2.673 C 141.593 2.876,134.044 3.816,129.917 4.427 C 128.358 4.657,126.327 4.918,125.402 5.007 C 124.478 5.096,121.778 5.497,119.402 5.900 C 117.027 6.302,113.921 6.828,112.500 7.068 C 110.289 7.443,106.404 8.191,98.917 9.684 C 95.474 10.371,94.653 10.554,90.833 11.488 C 88.679 12.014,86.467 12.532,85.917 12.637 C 85.367 12.743,83.342 13.282,81.417 13.834 C 79.492 14.387,77.654 14.881,77.333 14.934 C 76.372 15.091,70.023 17.030,65.583 18.523 C 63.933 19.078,62.096 19.672,61.500 19.843 C 60.904 20.014,59.517 20.502,58.417 20.927 C 57.317 21.353,55.779 21.922,55.000 22.191 C 53.331 22.768,50.322 23.980,50.083 24.170 C 49.992 24.243,49.467 24.454,48.917 24.640 C 47.802 25.015,45.192 26.111,44.923 26.317 C 44.828 26.390,44.150 26.695,43.417 26.995 C 40.569 28.160,32.210 32.439,29.461 34.139 C 28.844 34.521,28.298 34.833,28.248 34.833 C 28.198 34.833,27.301 35.396,26.255 36.083 C 25.210 36.771,24.293 37.334,24.219 37.334 C 24.144 37.335,23.483 37.789,22.750 38.345 C 22.017 38.900,21.154 39.517,20.833 39.716 C 16.205 42.582,6.060 52.701,5.050 55.456 C 4.991 55.618,4.649 56.196,4.291 56.740 C -0.487 64.005,-1.437 74.273,1.915 82.417 C 2.217 83.150,2.563 84.011,2.685 84.329 C 2.806 84.648,3.376 85.686,3.952 86.636 C 4.529 87.586,5.000 88.403,5.000 88.450 C 5.000 88.585,6.596 90.755,7.946 92.455 C 12.270 97.900,21.019 105.048,28.500 109.246 C 29.279 109.683,30.029 110.138,30.167 110.257 C 30.304 110.375,31.317 110.941,32.417 111.513 C 33.517 112.086,35.051 112.917,35.826 113.361 C 36.602 113.804,37.299 114.167,37.377 114.167 C 37.454 114.167,38.545 114.681,39.800 115.310 C 41.056 115.939,42.271 116.511,42.500 116.582 C 42.729 116.653,44.019 117.222,45.367 117.846 C 46.715 118.470,48.065 119.049,48.367 119.133 C 48.828 119.261,50.288 119.863,53.083 121.078 C 53.358 121.197,53.883 121.390,54.250 121.506 C 54.617 121.622,55.854 122.074,57.000 122.510 C 58.146 122.947,59.721 123.514,60.500 123.771 C 61.279 124.027,63.513 124.784,65.464 125.452 C 67.415 126.120,69.127 126.667,69.269 126.667 C 69.411 126.667,70.440 126.961,71.556 127.320 C 74.379 128.230,76.810 128.954,77.500 129.090 C 77.821 129.153,79.808 129.685,81.917 130.273 C 84.025 130.861,86.050 131.386,86.417 131.440 C 86.783 131.493,88.246 131.826,89.667 132.179 C 94.403 133.356,97.196 134.000,97.564 134.000 C 97.764 134.000,99.126 134.265,100.589 134.588 C 104.783 135.514,109.760 136.500,110.246 136.500 C 110.490 136.500,112.091 136.760,113.803 137.077 C 118.650 137.976,123.927 138.831,125.667 138.999 C 126.537 139.084,129.411 139.454,132.051 139.823 C 137.162 140.537,144.461 141.371,148.167 141.664 C 149.404 141.761,152.479 142.024,155.000 142.247 C 163.740 143.019,171.469 143.500,180.667 143.844 C 186.878 144.077,219.356 143.958,224.167 143.685 C 235.646 143.034,239.921 142.730,248.917 141.924 C 251.483 141.694,254.521 141.425,255.667 141.326 C 257.954 141.130,266.731 140.043,270.417 139.500 C 271.700 139.311,273.500 139.080,274.417 138.988 C 275.333 138.896,278.483 138.411,281.417 137.910 C 284.350 137.410,287.500 136.881,288.417 136.735 C 289.333 136.590,291.958 136.099,294.250 135.645 C 296.542 135.190,299.392 134.625,300.583 134.389 C 303.454 133.820,308.066 132.766,310.750 132.066 C 311.942 131.755,313.070 131.501,313.257 131.501 C 313.444 131.500,315.132 131.078,317.007 130.562 C 318.882 130.045,321.017 129.475,321.750 129.294 C 322.483 129.113,324.658 128.477,326.583 127.881 C 328.508 127.285,330.349 126.743,330.674 126.677 C 331.394 126.531,338.416 124.193,340.833 123.294 C 341.796 122.937,343.596 122.283,344.833 121.842 C 346.071 121.401,347.983 120.648,349.083 120.169 C 350.183 119.690,351.331 119.227,351.633 119.139 C 351.935 119.052,353.285 118.470,354.633 117.846 C 355.981 117.222,357.257 116.657,357.470 116.591 C 358.686 116.211,368.647 111.059,370.332 109.939 C 370.835 109.604,371.394 109.284,371.573 109.227 C 371.869 109.133,374.505 107.467,376.583 106.061 C 384.359 100.798,389.786 95.715,394.378 89.394 C 394.720 88.924,395.000 88.488,395.000 88.427 C 395.000 88.365,395.368 87.738,395.818 87.032 C 399.903 80.631,401.241 71.232,399.057 64.271 C 398.189 61.505,396.825 58.438,395.709 56.740 C 395.351 56.196,395.008 55.616,394.948 55.451 C 394.252 53.554,386.494 45.245,382.855 42.500 C 382.430 42.179,381.557 41.500,380.916 40.992 C 380.275 40.483,379.488 39.906,379.167 39.710 C 378.846 39.514,377.983 38.900,377.250 38.345 C 376.517 37.789,375.853 37.335,375.776 37.334 C 375.698 37.334,374.794 36.771,373.766 36.083 C 372.738 35.396,371.844 34.833,371.779 34.833 C 371.714 34.833,371.156 34.521,370.539 34.139 C 367.904 32.510,360.676 28.790,356.750 27.043 C 352.636 25.213,352.065 24.967,351.266 24.673 C 350.799 24.502,349.517 23.979,348.417 23.511 C 347.317 23.043,346.079 22.555,345.667 22.428 C 345.254 22.300,343.717 21.737,342.250 21.175 C 340.783 20.613,339.096 20.015,338.500 19.845 C 337.904 19.675,336.067 19.078,334.417 18.518 C 332.767 17.958,330.517 17.228,329.417 16.897 C 328.317 16.565,326.817 16.108,326.083 15.880 C 325.350 15.653,324.188 15.322,323.500 15.145 C 322.813 14.968,320.637 14.378,318.667 13.833 C 316.696 13.288,314.671 12.758,314.167 12.653 C 313.662 12.549,311.300 11.990,308.917 11.410 C 306.533 10.831,304.096 10.268,303.500 10.158 C 302.904 10.049,300.504 9.560,298.167 9.073 C 295.829 8.585,293.054 8.033,292.000 7.846 C 285.593 6.711,279.091 5.623,277.000 5.336 C 264.846 3.669,258.988 2.927,255.917 2.667 C 254.725 2.566,252.175 2.338,250.250 2.160 C 239.322 1.152,230.645 0.564,220.833 0.167 C 216.143 -0.022,183.327 -0.013,178.583 0.179 M215.417 5.002 C 239.088 5.700,255.908 7.101,276.417 10.082 C 283.495 11.111,283.012 11.033,289.417 12.184 C 310.798 16.024,329.673 21.091,345.250 27.171 C 385.843 43.017,402.084 64.181,389.608 84.974 C 379.703 101.482,348.548 117.496,309.333 126.238 C 307.912 126.555,305.625 127.075,304.250 127.394 C 295.950 129.319,278.515 132.317,268.739 133.500 C 254.605 135.210,250.578 135.607,240.083 136.325 C 204.194 138.781,170.529 137.993,136.750 133.908 C 123.529 132.309,108.668 129.839,98.333 127.523 C 92.447 126.204,88.516 125.270,86.000 124.592 C 84.487 124.185,82.612 123.693,81.833 123.500 C 79.484 122.917,72.162 120.724,68.083 119.380 C -12.781 92.747,-11.445 48.229,71.000 22.200 C 86.454 17.321,105.819 12.968,123.423 10.415 C 126.261 10.004,128.771 9.630,129.000 9.584 C 129.862 9.412,138.384 8.334,140.802 8.092 C 142.187 7.953,145.517 7.616,148.202 7.343 C 168.454 5.283,194.351 4.381,215.417 5.002 M188.333 10.845 C 176.840 11.110,161.994 11.890,153.667 12.667 C 142.557 13.704,135.175 14.534,128.417 15.509 C 119.066 16.857,116.012 17.350,109.393 18.582 C 15.833 35.993,-13.261 75.264,45.750 104.486 C 50.954 107.063,63.504 112.333,64.437 112.333 C 64.503 112.333,65.838 112.778,67.404 113.321 C 84.922 119.403,109.442 124.688,134.667 127.820 C 146.591 129.301,156.169 130.167,168.833 130.910 C 288.375 137.924,396.652 105.572,386.078 66.000 C 377.295 33.130,289.082 8.526,188.333 10.845 M157.920 21.502 C 165.117 21.957,172.430 22.839,182.083 24.414 C 196.580 26.780,199.035 27.177,200.615 27.412 C 221.609 30.530,241.217 30.330,256.048 26.844 C 258.806 26.196,259.995 26.520,260.591 28.080 C 262.467 32.991,253.000 40.006,241.917 41.918 C 231.289 43.751,220.106 42.545,202.583 37.677 C 194.811 35.518,190.284 34.318,187.750 33.745 C 186.283 33.414,184.952 33.105,184.792 33.060 C 184.554 32.993,184.500 33.085,184.500 33.558 C 184.500 34.505,184.437 34.569,180.855 37.284 C 171.799 44.148,165.279 50.856,162.058 56.625 C 161.797 57.091,161.632 57.521,161.690 57.579 C 161.846 57.735,174.322 57.121,175.292 56.909 C 175.651 56.830,175.667 56.755,175.667 55.107 C 175.667 48.205,181.486 42.982,186.914 45.013 C 192.433 47.078,191.008 55.988,184.663 59.076 C 183.807 59.493,183.018 59.833,182.908 59.833 C 181.798 59.833,182.630 61.002,184.734 62.399 C 185.954 63.208,186.167 63.442,186.166 63.970 C 186.165 64.969,185.084 66.004,184.050 65.996 C 182.945 65.988,179.656 63.874,178.276 62.286 L 177.417 61.297 174.833 61.402 C 170.350 61.585,159.342 62.682,158.174 63.062 C 157.669 63.227,157.385 63.592,155.896 66.000 C 150.654 74.474,148.590 77.729,145.968 81.655 C 131.534 103.265,120.402 112.045,106.236 112.991 C 89.597 114.102,78.564 101.438,82.600 85.863 C 84.706 77.738,91.776 70.684,99.864 68.639 C 105.329 67.257,108.442 71.495,103.807 74.007 C 95.690 78.405,91.809 85.331,93.923 91.642 C 96.760 100.113,107.924 101.434,118.493 94.548 C 124.916 90.364,133.531 81.260,142.115 69.583 C 143.463 67.750,144.739 66.038,144.950 65.779 C 145.650 64.919,145.504 64.779,144.042 64.910 C 140.196 65.254,137.117 66.336,133.702 68.542 C 131.961 69.667,131.085 69.892,130.209 69.439 C 128.617 68.615,128.553 66.699,130.074 65.364 C 133.235 62.588,138.300 60.901,148.977 59.066 L 150.703 58.769 151.423 57.926 C 151.819 57.463,153.137 55.733,154.353 54.083 C 158.094 49.006,159.609 47.191,162.567 44.243 C 168.233 38.595,172.845 35.002,177.292 32.770 C 179.716 31.554,179.890 31.663,173.573 30.431 C 150.464 25.923,136.232 26.776,126.584 33.247 C 114.241 41.527,117.549 55.582,130.565 50.163 C 133.806 48.814,138.351 45.046,140.574 41.865 C 141.681 40.281,142.132 39.924,143.029 39.924 C 148.143 39.924,140.607 53.786,132.571 59.160 C 112.955 72.276,96.578 50.401,113.480 33.659 C 122.798 24.430,138.087 20.247,157.920 21.502 M183.237 48.816 C 181.811 49.463,180.500 51.723,180.369 53.756 C 180.295 54.908,180.479 55.667,180.833 55.667 C 181.523 55.667,182.990 54.846,183.996 53.897 C 186.989 51.074,186.434 47.364,183.237 48.816 M321.053 49.023 C 321.242 49.324,321.159 49.461,315.369 58.333 C 314.681 59.387,313.654 60.962,313.088 61.833 C 312.521 62.704,311.495 64.279,310.806 65.333 C 310.118 66.387,309.142 67.887,308.637 68.667 C 308.133 69.446,307.007 71.171,306.136 72.500 C 302.482 78.078,296.291 87.723,293.139 92.750 C 286.594 103.189,286.099 104.567,288.411 105.922 C 291.437 107.695,295.853 104.847,306.740 94.102 C 311.553 89.353,311.149 89.545,312.957 91.140 C 315.175 93.096,315.230 92.752,312.136 96.333 C 299.427 111.049,287.889 117.479,280.704 113.852 C 278.701 112.841,276.667 109.641,276.667 107.502 C 276.667 106.401,276.310 106.382,275.154 107.422 C 272.364 109.932,268.291 112.472,265.716 113.308 C 255.484 116.630,247.441 109.538,248.498 98.125 C 248.748 95.423,248.728 95.397,247.138 96.388 C 237.211 102.573,228.266 99.961,227.390 90.620 C 227.332 89.998,227.230 89.456,227.163 89.414 C 227.043 89.340,224.103 93.741,219.202 101.333 C 217.811 103.487,215.559 106.975,214.196 109.083 C 212.747 111.326,211.552 113.002,211.318 113.123 C 210.801 113.388,200.978 113.423,200.489 113.161 C 199.684 112.730,199.612 112.859,207.077 101.250 C 208.433 99.142,210.146 96.442,210.883 95.250 C 212.947 91.915,214.847 88.812,215.219 88.167 C 215.404 87.846,216.026 86.792,216.602 85.825 C 219.510 80.936,220.134 78.615,218.849 77.466 C 215.890 74.820,205.784 83.673,195.713 97.735 C 190.540 104.957,186.229 109.042,181.028 111.653 C 171.291 116.539,160.727 113.458,157.334 104.742 C 156.544 102.711,156.520 102.664,156.250 102.560 C 156.081 102.495,155.629 102.860,154.891 103.657 C 153.712 104.931,151.590 106.785,149.857 108.056 C 148.051 109.380,147.376 109.124,145.653 106.458 C 144.647 104.902,144.709 104.614,146.373 103.136 C 151.796 98.318,152.936 96.846,154.993 92.000 C 160.203 79.729,167.858 72.452,178.302 69.842 C 183.768 68.476,184.942 68.728,186.030 71.505 C 187.024 74.043,187.073 73.936,184.417 75.083 C 176.504 78.500,171.439 82.991,168.766 88.958 C 163.678 100.319,171.491 108.073,181.330 101.426 C 188.780 96.393,192.350 85.538,189.891 75.396 C 189.350 73.163,189.433 72.812,190.735 71.833 C 193.181 69.992,195.292 69.331,196.403 70.059 C 197.993 71.101,199.613 75.572,199.932 79.800 C 200.118 82.266,199.595 82.599,205.712 76.132 C 216.709 64.508,227.961 64.016,228.616 75.131 C 228.755 77.480,228.661 77.487,230.637 74.978 C 234.934 69.524,242.165 66.941,246.797 69.206 C 251.022 71.271,252.429 75.805,250.238 80.292 C 246.992 86.941,237.853 86.258,237.728 79.358 C 237.690 77.272,237.541 77.156,236.443 78.359 C 232.378 82.815,232.389 89.281,236.464 91.282 C 240.185 93.109,245.578 90.553,254.242 82.854 C 255.338 81.880,256.868 80.521,257.643 79.833 C 265.438 72.913,270.406 70.165,276.325 69.500 C 282.421 68.814,287.899 71.832,289.156 76.570 C 289.417 77.552,289.592 77.772,289.925 77.539 C 290.209 77.341,306.482 52.790,307.903 50.417 C 308.342 49.683,308.822 48.989,308.969 48.873 C 309.421 48.517,320.823 48.659,321.053 49.023 M276.500 77.315 C 270.597 79.228,263.367 87.534,261.349 94.722 C 256.972 110.307,272.850 106.591,281.757 89.945 L 282.544 88.474 281.939 87.975 C 281.185 87.354,281.187 87.258,281.986 85.406 C 284.445 79.706,281.685 75.635,276.500 77.315 " stroke="none" fill="#04045c" fill-rule="evenodd"></path><path id="path2" d="M190.542 4.955 C 190.885 4.991,191.448 4.991,191.792 4.955 C 192.135 4.919,191.854 4.889,191.167 4.889 C 190.479 4.889,190.198 4.919,190.542 4.955 M210.208 4.955 C 210.552 4.991,211.115 4.991,211.458 4.955 C 211.802 4.919,211.521 4.889,210.833 4.889 C 210.146 4.889,209.865 4.919,210.208 4.955 M183.960 5.118 C 184.168 5.158,184.468 5.156,184.627 5.115 C 184.786 5.073,184.617 5.040,184.250 5.042 C 183.883 5.044,183.753 5.078,183.960 5.118 M217.460 5.118 C 217.668 5.158,217.968 5.156,218.127 5.115 C 218.286 5.073,218.117 5.040,217.750 5.042 C 217.383 5.044,217.253 5.078,217.460 5.118 M179.208 5.282 C 179.369 5.323,179.631 5.323,179.792 5.282 C 179.952 5.240,179.821 5.205,179.500 5.205 C 179.179 5.205,179.048 5.240,179.208 5.282 M171.377 5.620 C 171.631 5.658,172.006 5.657,172.211 5.617 C 172.416 5.578,172.208 5.546,171.750 5.548 C 171.292 5.549,171.124 5.581,171.377 5.620 M230.044 5.620 C 230.297 5.658,230.672 5.657,230.877 5.617 C 231.082 5.578,230.875 5.546,230.417 5.548 C 229.958 5.549,229.791 5.581,230.044 5.620 M168.208 5.786 C 168.460 5.824,168.873 5.824,169.125 5.786 C 169.377 5.748,169.171 5.717,168.667 5.717 C 168.162 5.717,167.956 5.748,168.208 5.786 M233.125 5.784 C 233.331 5.824,233.669 5.824,233.875 5.784 C 234.081 5.745,233.912 5.712,233.500 5.712 C 233.088 5.712,232.919 5.745,233.125 5.784 M165.458 5.951 C 165.665 5.991,166.002 5.991,166.208 5.951 C 166.415 5.911,166.246 5.879,165.833 5.879 C 165.421 5.879,165.252 5.911,165.458 5.951 M235.877 5.953 C 236.131 5.991,236.506 5.990,236.711 5.951 C 236.916 5.911,236.708 5.880,236.250 5.881 C 235.792 5.882,235.624 5.915,235.877 5.953 M162.792 6.118 C 162.998 6.157,163.335 6.157,163.542 6.118 C 163.748 6.078,163.579 6.045,163.167 6.045 C 162.754 6.045,162.585 6.078,162.792 6.118 M238.458 6.118 C 238.665 6.157,239.002 6.157,239.208 6.118 C 239.415 6.078,239.246 6.045,238.833 6.045 C 238.421 6.045,238.252 6.078,238.458 6.118 M160.542 6.282 C 160.702 6.323,160.965 6.323,161.125 6.282 C 161.285 6.240,161.154 6.205,160.833 6.205 C 160.512 6.205,160.381 6.240,160.542 6.282 M241.042 6.282 C 241.202 6.323,241.465 6.323,241.625 6.282 C 241.785 6.240,241.654 6.205,241.333 6.205 C 241.012 6.205,240.881 6.240,241.042 6.282 M139.375 8.282 C 139.535 8.323,139.798 8.323,139.958 8.282 C 140.119 8.240,139.987 8.205,139.667 8.205 C 139.346 8.205,139.215 8.240,139.375 8.282 M191.048 10.790 C 191.578 10.823,192.403 10.823,192.881 10.789 C 193.359 10.756,192.925 10.729,191.917 10.729 C 190.908 10.729,190.517 10.757,191.048 10.790 M209.214 10.790 C 209.745 10.823,210.570 10.823,211.048 10.789 C 211.526 10.756,211.092 10.729,210.083 10.729 C 209.075 10.729,208.684 10.757,209.214 10.790 M183.958 10.954 C 184.256 10.991,184.744 10.991,185.042 10.954 C 185.340 10.917,185.096 10.887,184.500 10.887 C 183.904 10.887,183.660 10.917,183.958 10.954 M216.958 10.954 C 217.256 10.991,217.744 10.991,218.042 10.954 C 218.340 10.917,218.096 10.887,217.500 10.887 C 216.904 10.887,216.660 10.917,216.958 10.954 M179.208 11.119 C 179.460 11.158,179.873 11.158,180.125 11.119 C 180.377 11.081,180.171 11.050,179.667 11.050 C 179.162 11.050,178.956 11.081,179.208 11.119 M222.128 11.121 C 222.428 11.158,222.878 11.157,223.128 11.119 C 223.378 11.081,223.133 11.051,222.583 11.052 C 222.033 11.053,221.828 11.084,222.128 11.121 M174.875 11.286 C 175.127 11.324,175.540 11.324,175.792 11.286 C 176.044 11.248,175.838 11.217,175.333 11.217 C 174.829 11.217,174.623 11.248,174.875 11.286 M226.208 11.286 C 226.460 11.324,226.873 11.324,227.125 11.286 C 227.377 11.248,227.171 11.217,226.667 11.217 C 226.162 11.217,225.956 11.248,226.208 11.286 M171.375 11.453 C 171.627 11.491,172.040 11.491,172.292 11.453 C 172.544 11.415,172.338 11.383,171.833 11.383 C 171.329 11.383,171.123 11.415,171.375 11.453 M229.795 11.454 C 230.094 11.491,230.544 11.490,230.795 11.452 C 231.045 11.414,230.800 11.384,230.250 11.385 C 229.700 11.386,229.495 11.417,229.795 11.454 M168.208 11.619 C 168.460 11.658,168.873 11.658,169.125 11.619 C 169.377 11.581,169.171 11.550,168.667 11.550 C 168.162 11.550,167.956 11.581,168.208 11.619 M232.961 11.621 C 233.261 11.658,233.711 11.657,233.961 11.619 C 234.212 11.581,233.967 11.551,233.417 11.552 C 232.867 11.553,232.662 11.584,232.961 11.621 M165.458 11.784 C 165.665 11.824,166.002 11.824,166.208 11.784 C 166.415 11.745,166.246 11.712,165.833 11.712 C 165.421 11.712,165.252 11.745,165.458 11.784 M235.960 11.785 C 236.168 11.824,236.468 11.823,236.627 11.781 C 236.786 11.739,236.617 11.707,236.250 11.709 C 235.883 11.711,235.753 11.745,235.960 11.785 M146.544 21.453 C 146.797 21.491,147.172 21.490,147.377 21.451 C 147.582 21.411,147.375 21.380,146.917 21.381 C 146.458 21.382,146.291 21.415,146.544 21.453 M155.042 21.453 C 155.294 21.491,155.706 21.491,155.958 21.453 C 156.210 21.415,156.004 21.383,155.500 21.383 C 154.996 21.383,154.790 21.415,155.042 21.453 M234.542 29.615 C 234.702 29.657,234.965 29.657,235.125 29.615 C 235.285 29.573,235.154 29.539,234.833 29.539 C 234.512 29.539,234.381 29.573,234.542 29.615 M184.379 33.667 C 184.379 34.079,184.411 34.248,184.451 34.042 C 184.491 33.835,184.491 33.498,184.451 33.292 C 184.411 33.085,184.379 33.254,184.379 33.667 M123.742 35.375 L 123.083 36.083 123.792 35.425 C 124.450 34.812,124.577 34.667,124.450 34.667 C 124.423 34.667,124.105 34.985,123.742 35.375 M232.125 42.784 C 232.331 42.824,232.669 42.824,232.875 42.784 C 233.081 42.745,232.912 42.712,232.500 42.712 C 232.088 42.712,231.919 42.745,232.125 42.784 M184.292 44.618 C 184.498 44.657,184.835 44.657,185.042 44.618 C 185.248 44.578,185.079 44.545,184.667 44.545 C 184.254 44.545,184.085 44.578,184.292 44.618 M137.740 45.208 L 137.250 45.750 137.792 45.260 C 138.090 44.991,138.333 44.748,138.333 44.719 C 138.333 44.590,138.196 44.703,137.740 45.208 M169.833 46.583 C 169.428 46.996,169.135 47.333,169.181 47.333 C 169.226 47.333,169.595 46.996,170.000 46.583 C 170.405 46.171,170.699 45.833,170.653 45.833 C 170.607 45.833,170.238 46.171,169.833 46.583 M20.906 47.542 L 20.417 48.083 20.958 47.594 C 21.256 47.325,21.500 47.081,21.500 47.052 C 21.500 46.923,21.362 47.037,20.906 47.542 M106.539 48.000 C 106.539 48.321,106.573 48.452,106.615 48.292 C 106.657 48.131,106.657 47.869,106.615 47.708 C 106.573 47.548,106.539 47.679,106.539 48.000 M167.740 48.875 L 167.250 49.417 167.792 48.927 C 168.090 48.658,168.333 48.414,168.333 48.385 C 168.333 48.257,168.196 48.370,167.740 48.875 M383.500 49.917 C 383.811 50.237,384.103 50.500,384.149 50.500 C 384.195 50.500,383.978 50.237,383.667 49.917 C 383.356 49.596,383.064 49.333,383.018 49.333 C 382.972 49.333,383.189 49.596,383.500 49.917 M106.539 50.000 C 106.539 50.321,106.573 50.452,106.615 50.292 C 106.657 50.131,106.657 49.869,106.615 49.708 C 106.573 49.548,106.539 49.679,106.539 50.000 M25.906 50.875 L 25.417 51.417 25.958 50.927 C 26.256 50.658,26.500 50.414,26.500 50.385 C 26.500 50.257,26.362 50.370,25.906 50.875 M375.500 50.385 C 375.500 50.414,375.744 50.658,376.042 50.927 L 376.583 51.417 376.094 50.875 C 375.638 50.370,375.500 50.257,375.500 50.385 M124.958 51.451 C 125.165 51.491,125.502 51.491,125.708 51.451 C 125.915 51.411,125.746 51.379,125.333 51.379 C 124.921 51.379,124.752 51.411,124.958 51.451 M175.705 53.667 C 175.705 53.987,175.740 54.119,175.782 53.958 C 175.823 53.798,175.823 53.535,175.782 53.375 C 175.740 53.215,175.705 53.346,175.705 53.667 M184.073 53.875 L 183.583 54.417 184.125 53.927 C 184.423 53.658,184.667 53.414,184.667 53.385 C 184.667 53.257,184.529 53.370,184.073 53.875 M22.658 54.125 L 22.083 54.750 22.708 54.176 C 23.290 53.641,23.410 53.500,23.283 53.500 C 23.255 53.500,22.974 53.781,22.658 54.125 M378.833 53.719 C 378.833 53.748,379.077 53.991,379.375 54.260 L 379.917 54.750 379.427 54.208 C 378.971 53.703,378.833 53.590,378.833 53.719 M175.712 56.167 C 175.712 56.579,175.745 56.748,175.784 56.542 C 175.824 56.335,175.824 55.998,175.784 55.792 C 175.745 55.585,175.712 55.754,175.712 56.167 M187.328 57.125 L 186.417 58.083 187.375 57.172 C 187.902 56.671,188.333 56.240,188.333 56.214 C 188.333 56.090,188.174 56.235,187.328 57.125 M163.960 57.618 C 164.168 57.658,164.468 57.656,164.627 57.615 C 164.786 57.573,164.617 57.540,164.250 57.542 C 163.883 57.544,163.753 57.578,163.960 57.618 M110.500 59.250 C 110.811 59.571,111.103 59.833,111.149 59.833 C 111.195 59.833,110.978 59.571,110.667 59.250 C 110.356 58.929,110.064 58.667,110.018 58.667 C 109.972 58.667,110.189 58.929,110.500 59.250 M175.792 61.287 C 176.090 61.324,176.577 61.324,176.875 61.287 C 177.173 61.250,176.929 61.220,176.333 61.220 C 175.737 61.220,175.494 61.250,175.792 61.287 M173.294 61.451 C 173.501 61.491,173.801 61.490,173.960 61.448 C 174.120 61.406,173.950 61.374,173.583 61.375 C 173.217 61.377,173.086 61.411,173.294 61.451 M178.660 62.708 C 179.350 63.444,179.500 63.577,179.500 63.451 C 179.500 63.425,179.144 63.068,178.708 62.660 L 177.917 61.917 178.660 62.708 M121.375 63.115 C 121.535 63.157,121.798 63.157,121.958 63.115 C 122.119 63.073,121.987 63.039,121.667 63.039 C 121.346 63.039,121.215 63.073,121.375 63.115 M220.708 67.286 C 220.960 67.324,221.373 67.324,221.625 67.286 C 221.877 67.248,221.671 67.217,221.167 67.217 C 220.662 67.217,220.456 67.248,220.708 67.286 M182.458 69.118 C 182.665 69.157,183.002 69.157,183.208 69.118 C 183.415 69.078,183.246 69.045,182.833 69.045 C 182.421 69.045,182.252 69.078,182.458 69.118 M277.544 69.453 C 277.797 69.491,278.172 69.490,278.377 69.451 C 278.582 69.411,278.375 69.380,277.917 69.381 C 277.458 69.382,277.291 69.415,277.544 69.453 M393.714 71.250 C 393.716 71.708,393.748 71.876,393.786 71.623 C 393.825 71.369,393.824 70.994,393.784 70.789 C 393.744 70.584,393.713 70.792,393.714 71.250 M208.077 73.708 L 207.250 74.583 208.125 73.756 C 208.606 73.301,209.000 72.908,209.000 72.881 C 209.000 72.757,208.846 72.895,208.077 73.708 M231.744 73.708 L 230.917 74.583 231.792 73.756 C 232.273 73.301,232.667 72.908,232.667 72.881 C 232.667 72.757,232.512 72.895,231.744 73.708 M228.539 74.833 C 228.539 75.154,228.573 75.285,228.615 75.125 C 228.657 74.965,228.657 74.702,228.615 74.542 C 228.573 74.381,228.539 74.512,228.539 74.833 M205.658 76.125 L 205.083 76.750 205.708 76.176 C 206.052 75.860,206.333 75.578,206.333 75.551 C 206.333 75.423,206.192 75.543,205.658 76.125 M201.075 81.042 L 200.417 81.750 201.125 81.091 C 201.515 80.729,201.833 80.410,201.833 80.383 C 201.833 80.257,201.688 80.383,201.075 81.042 M190.723 82.000 C 190.723 82.688,190.752 82.969,190.788 82.625 C 190.824 82.281,190.824 81.719,190.788 81.375 C 190.752 81.031,190.723 81.313,190.723 82.000 M255.824 81.458 L 255.250 82.083 255.875 81.509 C 256.219 81.193,256.500 80.912,256.500 80.884 C 256.500 80.757,256.359 80.877,255.824 81.458 M269.161 82.125 L 268.250 83.083 269.208 82.172 C 269.735 81.671,270.167 81.240,270.167 81.214 C 270.167 81.090,270.007 81.235,269.161 82.125 M207.079 83.875 L 205.917 85.083 207.125 83.921 C 208.247 82.842,208.409 82.667,208.287 82.667 C 208.262 82.667,207.718 83.210,207.079 83.875 M242.958 84.951 C 243.165 84.991,243.502 84.991,243.708 84.951 C 243.915 84.911,243.746 84.879,243.333 84.879 C 242.921 84.879,242.752 84.911,242.958 84.951 M127.658 86.792 L 127.083 87.417 127.708 86.842 C 128.290 86.308,128.410 86.167,128.283 86.167 C 128.255 86.167,127.974 86.448,127.658 86.792 M379.406 88.208 L 378.917 88.750 379.458 88.260 C 379.963 87.804,380.077 87.667,379.948 87.667 C 379.919 87.667,379.675 87.910,379.406 88.208 M22.167 87.885 C 22.167 87.914,22.410 88.158,22.708 88.427 L 23.250 88.917 22.760 88.375 C 22.304 87.870,22.167 87.757,22.167 87.885 M25.667 91.385 C 25.667 91.414,25.910 91.658,26.208 91.927 L 26.750 92.417 26.260 91.875 C 25.804 91.370,25.667 91.257,25.667 91.385 M375.658 91.958 L 375.083 92.583 375.708 92.009 C 376.052 91.693,376.333 91.412,376.333 91.384 C 376.333 91.257,376.192 91.377,375.658 91.958 M308.158 92.625 L 307.583 93.250 308.208 92.676 C 308.790 92.141,308.910 92.000,308.783 92.000 C 308.755 92.000,308.474 92.281,308.158 92.625 M383.244 92.875 L 382.417 93.750 383.292 92.923 C 384.105 92.154,384.243 92.000,384.119 92.000 C 384.092 92.000,383.699 92.394,383.244 92.875 M18.750 93.000 C 19.108 93.367,19.438 93.667,19.484 93.667 C 19.530 93.667,19.275 93.367,18.917 93.000 C 18.559 92.633,18.228 92.333,18.182 92.333 C 18.137 92.333,18.392 92.633,18.750 93.000 M305.740 95.042 L 305.250 95.583 305.792 95.094 C 306.297 94.638,306.410 94.500,306.281 94.500 C 306.252 94.500,306.009 94.744,305.740 95.042 M20.833 94.885 C 20.833 94.914,21.077 95.158,21.375 95.427 L 21.917 95.917 21.427 95.375 C 20.971 94.870,20.833 94.757,20.833 94.885 M167.042 95.750 C 167.044 96.117,167.078 96.247,167.118 96.040 C 167.158 95.832,167.156 95.532,167.115 95.373 C 167.073 95.214,167.040 95.383,167.042 95.750 M248.647 96.203 C 248.724 96.666,248.747 96.689,248.800 96.356 C 248.834 96.139,248.793 95.893,248.709 95.809 C 248.616 95.716,248.592 95.872,248.647 96.203 M303.245 97.542 L 302.250 98.583 303.292 97.589 C 303.865 97.041,304.333 96.573,304.333 96.547 C 304.333 96.424,304.169 96.574,303.245 97.542 M132.910 98.542 L 132.083 99.417 132.958 98.590 C 133.771 97.821,133.910 97.667,133.785 97.667 C 133.759 97.667,133.365 98.060,132.910 98.542 M310.075 98.542 L 309.417 99.250 310.125 98.591 C 310.784 97.978,310.910 97.833,310.784 97.833 C 310.757 97.833,310.438 98.152,310.075 98.542 M150.077 99.708 L 149.250 100.583 150.125 99.756 C 150.938 98.988,151.076 98.833,150.952 98.833 C 150.926 98.833,150.532 99.227,150.077 99.708 M248.389 100.167 C 248.389 100.854,248.419 101.135,248.455 100.792 C 248.491 100.448,248.491 99.885,248.455 99.542 C 248.419 99.198,248.389 99.479,248.389 100.167 M306.914 101.875 L 305.083 103.750 306.958 101.920 C 307.990 100.913,308.833 100.069,308.833 100.045 C 308.833 99.924,308.614 100.133,306.914 101.875 M129.167 102.250 C 128.762 102.662,128.468 103.000,128.514 103.000 C 128.560 103.000,128.928 102.662,129.333 102.250 C 129.738 101.837,130.032 101.500,129.986 101.500 C 129.940 101.500,129.572 101.837,129.167 102.250 M154.079 104.375 L 152.750 105.750 154.125 104.421 C 154.881 103.689,155.500 103.071,155.500 103.046 C 155.500 102.924,155.314 103.098,154.079 104.375 M173.875 103.953 C 174.127 103.991,174.540 103.991,174.792 103.953 C 175.044 103.915,174.838 103.883,174.333 103.883 C 173.829 103.883,173.623 103.915,173.875 103.953 M189.075 105.708 L 188.417 106.417 189.125 105.758 C 189.784 105.145,189.910 105.000,189.784 105.000 C 189.757 105.000,189.438 105.319,189.075 105.708 M103.375 113.119 C 103.627 113.158,104.040 113.158,104.292 113.119 C 104.544 113.081,104.337 113.050,103.833 113.050 C 103.329 113.050,103.123 113.081,103.375 113.119 M203.208 113.291 C 204.652 113.319,207.015 113.319,208.458 113.291 C 209.902 113.264,208.721 113.241,205.833 113.241 C 202.946 113.241,201.765 113.264,203.208 113.291 M152.042 129.782 C 152.202 129.823,152.465 129.823,152.625 129.782 C 152.785 129.740,152.654 129.705,152.333 129.705 C 152.012 129.705,151.881 129.740,152.042 129.782 M153.960 129.951 C 154.168 129.991,154.468 129.990,154.627 129.948 C 154.786 129.906,154.617 129.874,154.250 129.875 C 153.883 129.877,153.753 129.911,153.960 129.951 M247.542 129.948 C 247.702 129.990,247.965 129.990,248.125 129.948 C 248.285 129.906,248.154 129.872,247.833 129.872 C 247.512 129.872,247.381 129.906,247.542 129.948 M156.127 130.118 C 156.334 130.158,156.634 130.156,156.794 130.115 C 156.953 130.073,156.783 130.040,156.417 130.042 C 156.050 130.044,155.920 130.078,156.127 130.118 M245.460 130.118 C 245.668 130.158,245.968 130.156,246.127 130.115 C 246.286 130.073,246.117 130.040,245.750 130.042 C 245.383 130.044,245.253 130.078,245.460 130.118 M158.208 130.282 C 158.369 130.323,158.631 130.323,158.792 130.282 C 158.952 130.240,158.821 130.205,158.500 130.205 C 158.179 130.205,158.048 130.240,158.208 130.282 M243.208 130.282 C 243.369 130.323,243.631 130.323,243.792 130.282 C 243.952 130.240,243.821 130.205,243.500 130.205 C 243.179 130.205,243.048 130.240,243.208 130.282 M160.542 130.448 C 160.702 130.490,160.965 130.490,161.125 130.448 C 161.285 130.406,161.154 130.372,160.833 130.372 C 160.512 130.372,160.381 130.406,160.542 130.448 M241.042 130.448 C 241.202 130.490,241.465 130.490,241.625 130.448 C 241.785 130.406,241.654 130.372,241.333 130.372 C 241.012 130.372,240.881 130.406,241.042 130.448 M178.042 131.448 C 178.202 131.490,178.465 131.490,178.625 131.448 C 178.785 131.406,178.654 131.372,178.333 131.372 C 178.012 131.372,177.881 131.406,178.042 131.448 M223.375 131.448 C 223.535 131.490,223.798 131.490,223.958 131.448 C 224.119 131.406,223.987 131.372,223.667 131.372 C 223.346 131.372,223.215 131.406,223.375 131.448 M182.292 131.618 C 182.498 131.657,182.835 131.657,183.042 131.618 C 183.248 131.578,183.079 131.545,182.667 131.545 C 182.254 131.545,182.085 131.578,182.292 131.618 M218.958 131.618 C 219.165 131.657,219.502 131.657,219.708 131.618 C 219.915 131.578,219.746 131.545,219.333 131.545 C 218.921 131.545,218.752 131.578,218.958 131.618 M188.625 131.787 C 188.923 131.824,189.410 131.824,189.708 131.787 C 190.006 131.750,189.762 131.720,189.167 131.720 C 188.571 131.720,188.327 131.750,188.625 131.787 M212.461 131.787 C 212.761 131.825,213.211 131.824,213.461 131.786 C 213.712 131.748,213.467 131.717,212.917 131.718 C 212.367 131.719,212.162 131.750,212.461 131.787 M152.294 135.618 C 152.501 135.658,152.801 135.656,152.960 135.615 C 153.120 135.573,152.950 135.540,152.583 135.542 C 152.217 135.544,152.086 135.578,152.294 135.618 M249.208 135.615 C 249.369 135.657,249.631 135.657,249.792 135.615 C 249.952 135.573,249.821 135.539,249.500 135.539 C 249.179 135.539,249.048 135.573,249.208 135.615 M154.294 135.785 C 154.501 135.824,154.801 135.823,154.960 135.781 C 155.120 135.739,154.950 135.707,154.583 135.709 C 154.217 135.711,154.086 135.745,154.294 135.785 M247.294 135.785 C 247.501 135.824,247.801 135.823,247.960 135.781 C 248.120 135.739,247.950 135.707,247.583 135.709 C 247.217 135.711,247.086 135.745,247.294 135.785 M245.208 135.948 C 245.369 135.990,245.631 135.990,245.792 135.948 C 245.952 135.906,245.821 135.872,245.500 135.872 C 245.179 135.872,245.048 135.906,245.208 135.948 M174.375 137.115 C 174.535 137.157,174.798 137.157,174.958 137.115 C 175.119 137.073,174.987 137.039,174.667 137.039 C 174.346 137.039,174.215 137.073,174.375 137.115 M227.042 137.115 C 227.202 137.157,227.465 137.157,227.625 137.115 C 227.785 137.073,227.654 137.039,227.333 137.039 C 227.012 137.039,226.881 137.073,227.042 137.115 M178.125 137.284 C 178.331 137.324,178.669 137.324,178.875 137.284 C 179.081 137.245,178.912 137.212,178.500 137.212 C 178.088 137.212,177.919 137.245,178.125 137.284 M223.460 137.285 C 223.668 137.324,223.968 137.323,224.127 137.281 C 224.286 137.239,224.117 137.207,223.750 137.209 C 223.383 137.211,223.253 137.245,223.460 137.285 M182.461 137.454 C 182.761 137.491,183.211 137.490,183.461 137.452 C 183.712 137.414,183.467 137.384,182.917 137.385 C 182.367 137.386,182.162 137.417,182.461 137.454 M218.708 137.453 C 218.960 137.491,219.373 137.491,219.625 137.453 C 219.877 137.415,219.671 137.383,219.167 137.383 C 218.662 137.383,218.456 137.415,218.708 137.453 M188.208 137.623 C 188.644 137.657,189.356 137.657,189.792 137.623 C 190.227 137.588,189.871 137.560,189.000 137.560 C 188.129 137.560,187.773 137.588,188.208 137.623 M212.208 137.623 C 212.644 137.657,213.356 137.657,213.792 137.623 C 214.227 137.588,213.871 137.560,213.000 137.560 C 212.129 137.560,211.773 137.588,212.208 137.623 " stroke="none" fill="#585f96" fill-rule="evenodd"></path><path id="path3" d="M194.132 4.957 C 194.708 4.990,195.608 4.989,196.132 4.956 C 196.655 4.923,196.183 4.897,195.083 4.897 C 193.983 4.897,193.555 4.924,194.132 4.957 M205.965 4.957 C 206.541 4.990,207.441 4.989,207.965 4.956 C 208.488 4.923,208.017 4.897,206.917 4.897 C 205.817 4.897,205.388 4.924,205.965 4.957 M185.542 5.119 C 185.794 5.158,186.206 5.158,186.458 5.119 C 186.710 5.081,186.504 5.050,186.000 5.050 C 185.496 5.050,185.290 5.081,185.542 5.119 M215.711 5.120 C 215.964 5.158,216.339 5.157,216.544 5.117 C 216.749 5.078,216.542 5.046,216.083 5.048 C 215.625 5.049,215.457 5.081,215.711 5.120 M180.627 5.285 C 180.834 5.324,181.134 5.323,181.294 5.281 C 181.453 5.239,181.283 5.207,180.917 5.209 C 180.550 5.211,180.420 5.245,180.627 5.285 M220.875 5.282 C 221.035 5.323,221.298 5.323,221.458 5.282 C 221.619 5.240,221.487 5.205,221.167 5.205 C 220.846 5.205,220.715 5.240,220.875 5.282 M176.460 5.451 C 176.668 5.491,176.968 5.490,177.127 5.448 C 177.286 5.406,177.117 5.374,176.750 5.375 C 176.383 5.377,176.253 5.411,176.460 5.451 M224.960 5.451 C 225.168 5.491,225.468 5.490,225.627 5.448 C 225.786 5.406,225.617 5.374,225.250 5.375 C 224.883 5.377,224.753 5.411,224.960 5.451 M173.127 5.618 C 173.334 5.658,173.634 5.656,173.794 5.615 C 173.953 5.573,173.783 5.540,173.417 5.542 C 173.050 5.544,172.920 5.578,173.127 5.618 M228.542 5.615 C 228.702 5.657,228.965 5.657,229.125 5.615 C 229.285 5.573,229.154 5.539,228.833 5.539 C 228.512 5.539,228.381 5.573,228.542 5.615 M170.042 5.782 C 170.202 5.823,170.465 5.823,170.625 5.782 C 170.785 5.740,170.654 5.705,170.333 5.705 C 170.012 5.705,169.881 5.740,170.042 5.782 M231.542 5.782 C 231.702 5.823,231.965 5.823,232.125 5.782 C 232.285 5.740,232.154 5.705,231.833 5.705 C 231.512 5.705,231.381 5.740,231.542 5.782 M167.042 5.948 C 167.202 5.990,167.465 5.990,167.625 5.948 C 167.785 5.906,167.654 5.872,167.333 5.872 C 167.012 5.872,166.881 5.906,167.042 5.948 M234.375 5.948 C 234.535 5.990,234.798 5.990,234.958 5.948 C 235.119 5.906,234.987 5.872,234.667 5.872 C 234.346 5.872,234.215 5.906,234.375 5.948 M164.542 6.115 C 164.702 6.157,164.965 6.157,165.125 6.115 C 165.285 6.073,165.154 6.039,164.833 6.039 C 164.512 6.039,164.381 6.073,164.542 6.115 M237.042 6.115 C 237.202 6.157,237.465 6.157,237.625 6.115 C 237.785 6.073,237.654 6.039,237.333 6.039 C 237.012 6.039,236.881 6.073,237.042 6.115 M161.875 6.282 C 162.035 6.323,162.298 6.323,162.458 6.282 C 162.619 6.240,162.487 6.205,162.167 6.205 C 161.846 6.205,161.715 6.240,161.875 6.282 M239.627 6.285 C 239.834 6.324,240.134 6.323,240.294 6.281 C 240.453 6.239,240.283 6.207,239.917 6.209 C 239.550 6.211,239.420 6.245,239.627 6.285 M159.542 6.448 C 159.702 6.490,159.965 6.490,160.125 6.448 C 160.285 6.406,160.154 6.372,159.833 6.372 C 159.512 6.372,159.381 6.406,159.542 6.448 M241.960 6.451 C 242.168 6.491,242.468 6.490,242.627 6.448 C 242.786 6.406,242.617 6.374,242.250 6.375 C 241.883 6.377,241.753 6.411,241.960 6.451 M157.375 6.615 C 157.535 6.657,157.798 6.657,157.958 6.615 C 158.119 6.573,157.987 6.539,157.667 6.539 C 157.346 6.539,157.215 6.573,157.375 6.615 M244.208 6.615 C 244.369 6.657,244.631 6.657,244.792 6.615 C 244.952 6.573,244.821 6.539,244.500 6.539 C 244.179 6.539,244.048 6.573,244.208 6.615 M199.542 10.624 C 200.344 10.655,201.656 10.655,202.458 10.624 C 203.260 10.594,202.604 10.569,201.000 10.569 C 199.396 10.569,198.740 10.594,199.542 10.624 M186.792 10.790 C 187.273 10.823,188.060 10.823,188.542 10.790 C 189.023 10.756,188.629 10.728,187.667 10.728 C 186.704 10.728,186.310 10.756,186.792 10.790 M213.458 10.790 C 213.940 10.823,214.727 10.823,215.208 10.790 C 215.690 10.756,215.296 10.728,214.333 10.728 C 213.371 10.728,212.977 10.756,213.458 10.790 M180.955 10.954 C 181.250 10.990,181.775 10.991,182.121 10.955 C 182.467 10.919,182.225 10.889,181.583 10.888 C 180.942 10.887,180.659 10.917,180.955 10.954 M219.963 10.956 C 220.355 10.991,220.955 10.990,221.296 10.954 C 221.637 10.919,221.317 10.890,220.583 10.890 C 219.850 10.891,219.571 10.920,219.963 10.956 M176.455 11.120 C 176.750 11.157,177.275 11.158,177.621 11.122 C 177.967 11.086,177.725 11.055,177.083 11.055 C 176.442 11.054,176.159 11.083,176.455 11.120 M224.628 11.121 C 224.928 11.158,225.378 11.157,225.628 11.119 C 225.878 11.081,225.633 11.051,225.083 11.052 C 224.533 11.053,224.328 11.084,224.628 11.121 M172.877 11.286 C 173.131 11.325,173.506 11.324,173.711 11.284 C 173.916 11.244,173.708 11.213,173.250 11.214 C 172.792 11.216,172.624 11.248,172.877 11.286 M228.377 11.286 C 228.631 11.325,229.006 11.324,229.211 11.284 C 229.416 11.244,229.208 11.213,228.750 11.214 C 228.292 11.216,228.124 11.248,228.377 11.286 M169.627 11.451 C 169.834 11.491,170.134 11.490,170.294 11.448 C 170.453 11.406,170.283 11.374,169.917 11.375 C 169.550 11.377,169.420 11.411,169.627 11.451 M231.794 11.451 C 232.001 11.491,232.301 11.490,232.460 11.448 C 232.620 11.406,232.450 11.374,232.083 11.375 C 231.717 11.377,231.586 11.411,231.794 11.451 M149.708 21.457 C 150.510 21.488,151.823 21.488,152.625 21.457 C 153.427 21.427,152.771 21.402,151.167 21.402 C 149.563 21.402,148.906 21.427,149.708 21.457 M144.792 21.618 C 144.998 21.657,145.335 21.657,145.542 21.618 C 145.748 21.578,145.579 21.545,145.167 21.545 C 144.754 21.545,144.585 21.578,144.792 21.618 M157.044 21.620 C 157.297 21.658,157.672 21.657,157.877 21.617 C 158.082 21.578,157.875 21.546,157.417 21.548 C 156.958 21.549,156.791 21.581,157.044 21.620 M257.792 26.618 C 257.998 26.657,258.335 26.657,258.542 26.618 C 258.748 26.578,258.579 26.545,258.167 26.545 C 257.754 26.545,257.585 26.578,257.792 26.618 M148.708 27.456 C 149.235 27.490,150.098 27.490,150.625 27.456 C 151.152 27.423,150.721 27.396,149.667 27.396 C 148.612 27.396,148.181 27.423,148.708 27.456 M226.125 29.790 C 226.606 29.823,227.394 29.823,227.875 29.790 C 228.356 29.756,227.963 29.728,227.000 29.728 C 226.037 29.728,225.644 29.756,226.125 29.790 M230.292 29.789 C 230.681 29.824,231.319 29.824,231.708 29.789 C 232.098 29.754,231.779 29.725,231.000 29.725 C 230.221 29.725,229.902 29.754,230.292 29.789 M113.328 33.792 L 112.417 34.750 113.375 33.839 C 114.265 32.993,114.410 32.833,114.286 32.833 C 114.260 32.833,113.829 33.265,113.328 33.792 M258.167 34.250 C 257.762 34.662,257.468 35.000,257.514 35.000 C 257.560 35.000,257.928 34.662,258.333 34.250 C 258.738 33.837,259.032 33.500,258.986 33.500 C 258.940 33.500,258.572 33.837,258.167 34.250 M123.075 35.875 L 122.417 36.583 123.125 35.925 C 123.784 35.312,123.910 35.167,123.784 35.167 C 123.757 35.167,123.438 35.485,123.075 35.875 M162.413 44.375 L 161.083 45.750 162.458 44.421 C 163.215 43.689,163.833 43.071,163.833 43.046 C 163.833 42.924,163.647 43.098,162.413 44.375 M118.720 45.000 C 118.720 45.596,118.750 45.840,118.787 45.542 C 118.824 45.244,118.824 44.756,118.787 44.458 C 118.750 44.160,118.720 44.404,118.720 45.000 M381.500 48.052 C 381.500 48.081,381.744 48.325,382.042 48.594 L 382.583 49.083 382.094 48.542 C 381.638 48.037,381.500 47.923,381.500 48.052 M18.580 49.875 L 16.917 51.583 18.625 49.920 C 20.212 48.375,20.409 48.167,20.289 48.167 C 20.264 48.167,19.495 48.935,18.580 49.875 M312.198 48.791 C 313.727 48.819,316.277 48.819,317.864 48.791 C 319.451 48.764,318.200 48.742,315.083 48.741 C 311.967 48.741,310.668 48.764,312.198 48.791 M384.160 50.708 C 384.568 51.144,384.925 51.500,384.951 51.500 C 385.077 51.500,384.944 51.350,384.208 50.660 L 383.417 49.917 384.160 50.708 M377.583 52.333 C 378.405 53.158,379.114 53.833,379.160 53.833 C 379.206 53.833,378.571 53.158,377.750 52.333 C 376.929 51.508,376.219 50.833,376.174 50.833 C 376.128 50.833,376.762 51.508,377.583 52.333 M24.246 52.375 L 22.917 53.750 24.292 52.421 C 25.048 51.689,25.667 51.071,25.667 51.046 C 25.667 50.924,25.481 51.098,24.246 52.375 M180.212 54.167 C 180.212 54.579,180.245 54.748,180.284 54.542 C 180.324 54.335,180.324 53.998,180.284 53.792 C 180.245 53.585,180.212 53.754,180.212 54.167 M161.483 57.716 C 161.561 57.794,161.878 57.832,162.187 57.800 C 162.736 57.743,162.733 57.740,162.046 57.659 C 161.659 57.613,161.406 57.639,161.483 57.716 M165.375 57.615 C 165.535 57.657,165.798 57.657,165.958 57.615 C 166.119 57.573,165.987 57.539,165.667 57.539 C 165.346 57.539,165.215 57.573,165.375 57.615 M129.039 67.500 C 129.039 67.821,129.073 67.952,129.115 67.792 C 129.157 67.631,129.157 67.369,129.115 67.208 C 129.073 67.048,129.039 67.179,129.039 67.500 M225.833 68.719 C 225.833 68.748,226.077 68.991,226.375 69.260 L 226.917 69.750 226.427 69.208 C 225.971 68.703,225.833 68.590,225.833 68.719 M393.550 70.000 C 393.550 70.504,393.581 70.710,393.619 70.458 C 393.658 70.206,393.658 69.794,393.619 69.542 C 393.581 69.290,393.550 69.496,393.550 70.000 M8.395 71.333 C 8.395 72.296,8.423 72.690,8.456 72.208 C 8.490 71.727,8.490 70.940,8.456 70.458 C 8.423 69.977,8.395 70.371,8.395 71.333 M386.875 71.250 C 386.877 71.617,386.911 71.747,386.951 71.540 C 386.991 71.332,386.990 71.032,386.948 70.873 C 386.906 70.714,386.874 70.883,386.875 71.250 M105.875 71.417 C 105.877 71.783,105.911 71.914,105.951 71.706 C 105.991 71.499,105.990 71.199,105.948 71.040 C 105.906 70.880,105.874 71.050,105.875 71.417 M393.550 72.500 C 393.550 73.004,393.581 73.210,393.619 72.958 C 393.658 72.706,393.658 72.294,393.619 72.042 C 393.581 71.790,393.550 71.996,393.550 72.500 M88.740 75.208 L 88.250 75.750 88.792 75.260 C 89.090 74.991,89.333 74.748,89.333 74.719 C 89.333 74.590,89.196 74.703,88.740 75.208 M163.906 78.042 L 163.417 78.583 163.958 78.094 C 164.256 77.825,164.500 77.581,164.500 77.552 C 164.500 77.423,164.362 77.537,163.906 78.042 M173.495 81.958 L 172.417 83.083 173.542 82.005 C 174.160 81.412,174.667 80.905,174.667 80.880 C 174.667 80.757,174.497 80.913,173.495 81.958 M129.491 84.958 L 128.917 85.583 129.542 85.009 C 130.123 84.474,130.243 84.333,130.116 84.333 C 130.088 84.333,129.807 84.615,129.491 84.958 M233.214 85.750 C 233.216 86.208,233.248 86.376,233.286 86.123 C 233.325 85.869,233.324 85.494,233.284 85.289 C 233.244 85.084,233.213 85.292,233.214 85.750 M205.073 85.875 L 204.583 86.417 205.125 85.927 C 205.630 85.471,205.743 85.333,205.615 85.333 C 205.586 85.333,205.342 85.577,205.073 85.875 M125.909 88.542 L 125.250 89.250 125.958 88.591 C 126.348 88.229,126.667 87.910,126.667 87.883 C 126.667 87.757,126.522 87.883,125.909 88.542 M24.167 90.083 C 24.942 90.862,25.613 91.500,25.659 91.500 C 25.705 91.500,25.108 90.862,24.333 90.083 C 23.558 89.304,22.887 88.667,22.841 88.667 C 22.795 88.667,23.392 89.304,24.167 90.083 M308.914 92.042 L 307.250 93.750 308.958 92.086 C 309.898 91.172,310.667 90.403,310.667 90.378 C 310.667 90.258,310.459 90.455,308.914 92.042 M376.573 91.208 L 376.083 91.750 376.625 91.260 C 377.130 90.804,377.243 90.667,377.115 90.667 C 377.086 90.667,376.842 90.910,376.573 91.208 M384.324 91.625 L 383.750 92.250 384.375 91.676 C 384.957 91.141,385.077 91.000,384.949 91.000 C 384.922 91.000,384.640 91.281,384.324 91.625 M17.750 91.833 C 18.108 92.200,18.438 92.500,18.484 92.500 C 18.530 92.500,18.275 92.200,17.917 91.833 C 17.559 91.467,17.228 91.167,17.182 91.167 C 17.137 91.167,17.392 91.467,17.750 91.833 M238.625 91.951 C 238.831 91.991,239.169 91.991,239.375 91.951 C 239.581 91.911,239.412 91.879,239.000 91.879 C 238.588 91.879,238.419 91.911,238.625 91.951 M19.500 93.583 C 19.998 94.087,20.443 94.500,20.489 94.500 C 20.534 94.500,20.165 94.087,19.667 93.583 C 19.169 93.079,18.724 92.667,18.678 92.667 C 18.632 92.667,19.002 93.079,19.500 93.583 M81.872 93.333 C 81.872 93.654,81.906 93.785,81.948 93.625 C 81.990 93.465,81.990 93.202,81.948 93.042 C 81.906 92.881,81.872 93.013,81.872 93.333 M381.824 94.125 L 381.250 94.750 381.875 94.176 C 382.457 93.641,382.577 93.500,382.449 93.500 C 382.422 93.500,382.140 93.781,381.824 94.125 M305.662 95.292 L 304.583 96.417 305.708 95.338 C 306.327 94.745,306.833 94.239,306.833 94.213 C 306.833 94.090,306.664 94.247,305.662 95.292 M95.833 95.385 C 95.833 95.414,96.077 95.658,96.375 95.927 L 96.917 96.417 96.427 95.875 C 95.971 95.370,95.833 95.257,95.833 95.385 M229.833 96.719 C 229.833 96.748,230.077 96.991,230.375 97.260 L 230.917 97.750 230.427 97.208 C 229.971 96.703,229.833 96.590,229.833 96.719 M303.573 97.375 L 303.083 97.917 303.625 97.427 C 304.130 96.971,304.243 96.833,304.115 96.833 C 304.086 96.833,303.842 97.077,303.573 97.375 M276.240 98.042 L 275.750 98.583 276.292 98.094 C 276.797 97.638,276.910 97.500,276.781 97.500 C 276.752 97.500,276.509 97.744,276.240 98.042 M248.539 98.667 C 248.539 98.987,248.573 99.119,248.615 98.958 C 248.657 98.798,248.657 98.535,248.615 98.375 C 248.573 98.215,248.539 98.346,248.539 98.667 M183.828 99.458 L 182.917 100.417 183.875 99.506 C 184.765 98.659,184.910 98.500,184.786 98.500 C 184.760 98.500,184.329 98.931,183.828 99.458 M301.242 99.542 L 300.583 100.250 301.292 99.591 C 301.950 98.978,302.077 98.833,301.950 98.833 C 301.923 98.833,301.605 99.152,301.242 99.542 M104.708 99.119 C 104.960 99.158,105.373 99.158,105.625 99.119 C 105.877 99.081,105.671 99.050,105.167 99.050 C 104.662 99.050,104.456 99.081,104.708 99.119 M274.740 99.542 L 274.250 100.083 274.792 99.594 C 275.297 99.138,275.410 99.000,275.281 99.000 C 275.252 99.000,275.009 99.244,274.740 99.542 M308.491 100.125 L 307.917 100.750 308.542 100.176 C 309.123 99.641,309.243 99.500,309.116 99.500 C 309.088 99.500,308.807 99.781,308.491 100.125 M131.000 100.417 C 130.595 100.829,130.301 101.167,130.347 101.167 C 130.393 101.167,130.762 100.829,131.167 100.417 C 131.572 100.004,131.865 99.667,131.819 99.667 C 131.774 99.667,131.405 100.004,131.000 100.417 M236.544 99.786 C 236.797 99.825,237.172 99.824,237.377 99.784 C 237.582 99.744,237.375 99.713,236.917 99.714 C 236.458 99.716,236.291 99.748,236.544 99.786 M248.539 101.667 C 248.539 101.987,248.573 102.119,248.615 101.958 C 248.657 101.798,248.657 101.535,248.615 101.375 C 248.573 101.215,248.539 101.346,248.539 101.667 M168.833 101.552 C 168.833 101.581,169.077 101.825,169.375 102.094 L 169.917 102.583 169.427 102.042 C 168.971 101.537,168.833 101.423,168.833 101.552 M264.794 104.785 C 265.001 104.824,265.301 104.823,265.460 104.781 C 265.620 104.739,265.450 104.707,265.083 104.709 C 264.717 104.711,264.586 104.745,264.794 104.785 M187.909 106.708 L 187.250 107.417 187.958 106.758 C 188.617 106.145,188.743 106.000,188.617 106.000 C 188.590 106.000,188.271 106.319,187.909 106.708 M160.500 109.583 C 160.811 109.904,161.103 110.167,161.149 110.167 C 161.195 110.167,160.978 109.904,160.667 109.583 C 160.356 109.263,160.064 109.000,160.018 109.000 C 159.972 109.000,160.189 109.263,160.500 109.583 M252.167 110.583 C 252.478 110.904,252.770 111.167,252.815 111.167 C 252.861 111.167,252.644 110.904,252.333 110.583 C 252.022 110.263,251.730 110.000,251.685 110.000 C 251.639 110.000,251.856 110.263,252.167 110.583 M102.295 112.954 C 102.594 112.991,103.044 112.990,103.295 112.952 C 103.545 112.914,103.300 112.884,102.750 112.885 C 102.200 112.886,101.995 112.917,102.295 112.954 M104.621 112.954 C 104.917 112.990,105.442 112.991,105.788 112.955 C 106.134 112.919,105.892 112.889,105.250 112.888 C 104.608 112.887,104.325 112.917,104.621 112.954 M171.295 113.954 C 171.594 113.991,172.044 113.990,172.295 113.952 C 172.545 113.914,172.300 113.884,171.750 113.885 C 171.200 113.886,170.995 113.917,171.295 113.954 M244.542 130.282 C 244.702 130.323,244.965 130.323,245.125 130.282 C 245.285 130.240,245.154 130.205,244.833 130.205 C 244.512 130.205,244.381 130.240,244.542 130.282 M159.127 130.451 C 159.334 130.491,159.634 130.490,159.794 130.448 C 159.953 130.406,159.783 130.374,159.417 130.375 C 159.050 130.377,158.920 130.411,159.127 130.451 M242.294 130.451 C 242.501 130.491,242.801 130.490,242.960 130.448 C 243.120 130.406,242.950 130.374,242.583 130.375 C 242.217 130.377,242.086 130.411,242.294 130.451 M161.627 130.618 C 161.834 130.658,162.134 130.656,162.294 130.615 C 162.453 130.573,162.283 130.540,161.917 130.542 C 161.550 130.544,161.420 130.578,161.627 130.618 M239.960 130.618 C 240.168 130.658,240.468 130.656,240.627 130.615 C 240.786 130.573,240.617 130.540,240.250 130.542 C 239.883 130.544,239.753 130.578,239.960 130.618 M164.044 130.786 C 164.297 130.825,164.672 130.824,164.877 130.784 C 165.082 130.744,164.875 130.713,164.417 130.714 C 163.958 130.716,163.791 130.748,164.044 130.786 M237.292 130.784 C 237.498 130.824,237.835 130.824,238.042 130.784 C 238.248 130.745,238.079 130.712,237.667 130.712 C 237.254 130.712,237.085 130.745,237.292 130.784 M166.875 130.948 C 167.035 130.990,167.298 130.990,167.458 130.948 C 167.619 130.906,167.487 130.872,167.167 130.872 C 166.846 130.872,166.715 130.906,166.875 130.948 M234.627 130.951 C 234.834 130.991,235.134 130.990,235.294 130.948 C 235.453 130.906,235.283 130.874,234.917 130.875 C 234.550 130.877,234.420 130.911,234.627 130.951 M231.542 131.115 C 231.702 131.157,231.965 131.157,232.125 131.115 C 232.285 131.073,232.154 131.039,231.833 131.039 C 231.512 131.039,231.381 131.073,231.542 131.115 M173.042 131.282 C 173.202 131.323,173.465 131.323,173.625 131.282 C 173.785 131.240,173.654 131.205,173.333 131.205 C 173.012 131.205,172.881 131.240,173.042 131.282 M228.375 131.282 C 228.535 131.323,228.798 131.323,228.958 131.282 C 229.119 131.240,228.987 131.205,228.667 131.205 C 228.346 131.205,228.215 131.240,228.375 131.282 M176.708 131.448 C 176.869 131.490,177.131 131.490,177.292 131.448 C 177.452 131.406,177.321 131.372,177.000 131.372 C 176.679 131.372,176.548 131.406,176.708 131.448 M224.708 131.448 C 224.869 131.490,225.131 131.490,225.292 131.448 C 225.452 131.406,225.321 131.372,225.000 131.372 C 224.679 131.372,224.548 131.406,224.708 131.448 M180.960 131.618 C 181.168 131.658,181.468 131.656,181.627 131.615 C 181.786 131.573,181.617 131.540,181.250 131.542 C 180.883 131.544,180.753 131.578,180.960 131.618 M220.542 131.615 C 220.702 131.657,220.965 131.657,221.125 131.615 C 221.285 131.573,221.154 131.539,220.833 131.539 C 220.512 131.539,220.381 131.573,220.542 131.615 M186.295 131.787 C 186.594 131.825,187.044 131.824,187.295 131.786 C 187.545 131.748,187.300 131.717,186.750 131.718 C 186.200 131.719,185.995 131.750,186.295 131.787 M214.795 131.787 C 215.094 131.825,215.544 131.824,215.795 131.786 C 216.045 131.748,215.800 131.717,215.250 131.718 C 214.700 131.719,214.495 131.750,214.795 131.787 M195.967 131.958 C 196.912 131.988,198.412 131.987,199.301 131.957 C 200.189 131.928,199.417 131.903,197.583 131.903 C 195.750 131.904,195.023 131.928,195.967 131.958 M202.801 131.958 C 203.745 131.988,205.245 131.987,206.134 131.957 C 207.023 131.928,206.250 131.903,204.417 131.903 C 202.583 131.904,201.856 131.928,202.801 131.958 M172.208 136.948 C 172.369 136.990,172.631 136.990,172.792 136.948 C 172.952 136.906,172.821 136.872,172.500 136.872 C 172.179 136.872,172.048 136.906,172.208 136.948 M229.208 136.948 C 229.369 136.990,229.631 136.990,229.792 136.948 C 229.952 136.906,229.821 136.872,229.500 136.872 C 229.179 136.872,229.048 136.906,229.208 136.948 M175.708 137.115 C 175.869 137.157,176.131 137.157,176.292 137.115 C 176.452 137.073,176.321 137.039,176.000 137.039 C 175.679 137.039,175.548 137.073,175.708 137.115 M225.708 137.115 C 225.869 137.157,226.131 137.157,226.292 137.115 C 226.452 137.073,226.321 137.039,226.000 137.039 C 225.679 137.039,225.548 137.073,225.708 137.115 M179.875 137.286 C 180.127 137.324,180.540 137.324,180.792 137.286 C 181.044 137.248,180.838 137.217,180.333 137.217 C 179.829 137.217,179.623 137.248,179.875 137.286 M221.375 137.286 C 221.627 137.324,222.040 137.324,222.292 137.286 C 222.544 137.248,222.338 137.217,221.833 137.217 C 221.329 137.217,221.123 137.248,221.375 137.286 M185.047 137.456 C 185.485 137.490,186.160 137.490,186.547 137.455 C 186.934 137.420,186.575 137.392,185.750 137.392 C 184.925 137.393,184.609 137.422,185.047 137.456 M215.547 137.456 C 215.985 137.490,216.660 137.490,217.047 137.455 C 217.434 137.420,217.075 137.392,216.250 137.392 C 215.425 137.393,215.109 137.422,215.547 137.456 M196.208 137.625 C 198.844 137.651,203.156 137.651,205.792 137.625 C 208.427 137.599,206.271 137.578,201.000 137.578 C 195.729 137.578,193.573 137.599,196.208 137.625 " stroke="none" fill="#8484ae" fill-rule="evenodd"></path><path id="path4" d="M228.875 29.782 C 229.035 29.823,229.298 29.823,229.458 29.782 C 229.619 29.740,229.487 29.705,229.167 29.705 C 228.846 29.705,228.715 29.740,228.875 29.782 M171.158 45.292 L 170.583 45.917 171.208 45.342 C 171.552 45.026,171.833 44.745,171.833 44.717 C 171.833 44.590,171.692 44.710,171.158 45.292 M106.539 49.000 C 106.539 49.321,106.573 49.452,106.615 49.292 C 106.657 49.131,106.657 48.869,106.615 48.708 C 106.573 48.548,106.539 48.679,106.539 49.000 M120.044 63.120 C 120.297 63.158,120.672 63.157,120.877 63.117 C 121.082 63.078,120.875 63.046,120.417 63.048 C 119.958 63.049,119.791 63.081,120.044 63.120 M101.708 68.448 C 101.869 68.490,102.131 68.490,102.292 68.448 C 102.452 68.406,102.321 68.372,102.000 68.372 C 101.679 68.372,101.548 68.406,101.708 68.448 M242.708 68.448 C 242.869 68.490,243.131 68.490,243.292 68.448 C 243.452 68.406,243.321 68.372,243.000 68.372 C 242.679 68.372,242.548 68.406,242.708 68.448 M206.740 75.042 L 206.250 75.583 206.792 75.094 C 207.090 74.825,207.333 74.581,207.333 74.552 C 207.333 74.423,207.196 74.537,206.740 75.042 M228.545 76.000 C 228.545 76.412,228.578 76.581,228.618 76.375 C 228.657 76.169,228.657 75.831,228.618 75.625 C 228.578 75.419,228.545 75.587,228.545 76.000 M93.205 88.167 C 93.205 88.487,93.240 88.619,93.282 88.458 C 93.323 88.298,93.323 88.035,93.282 87.875 C 93.240 87.715,93.205 87.846,93.205 88.167 M377.742 90.042 L 377.083 90.750 377.792 90.091 C 378.450 89.478,378.577 89.333,378.450 89.333 C 378.423 89.333,378.105 89.652,377.742 90.042 M190.708 137.615 C 190.869 137.657,191.131 137.657,191.292 137.615 C 191.452 137.573,191.321 137.539,191.000 137.539 C 190.679 137.539,190.548 137.573,190.708 137.615 M210.708 137.615 C 210.869 137.657,211.131 137.657,211.292 137.615 C 211.452 137.573,211.321 137.539,211.000 137.539 C 210.679 137.539,210.548 137.573,210.708 137.615 " stroke="none" fill="#797cac" fill-rule="evenodd"></path></g></svg>