<svg id="svg" version="1.1" xmlns="http://www.w3.org/2000/svg" xmlns:xlink="http://www.w3.org/1999/xlink" width="400" height="400" viewBox="0, 0, 400,400"><g id="svgg"><path id="path0" d="M136.082 68.191 C 135.489 69.150,133.526 81.057,131.398 96.600 C 130.856 100.560,130.148 105.330,129.825 107.200 C 129.502 109.070,129.040 112.310,128.798 114.400 C 128.556 116.490,128.025 120.090,127.617 122.400 C 127.210 124.710,126.583 128.850,126.225 131.600 C 125.866 134.350,125.392 137.860,125.173 139.400 C 124.953 140.940,124.517 144.180,124.203 146.600 C 123.889 149.020,123.443 151.990,123.212 153.200 C 122.982 154.410,122.535 157.200,122.220 159.400 C 121.905 161.600,121.358 165.290,121.005 167.600 C 120.652 169.910,120.092 173.780,119.762 176.200 C 118.761 183.535,117.412 192.886,115.608 205.000 C 115.378 206.540,115.148 208.520,115.095 209.400 L 115.000 211.000 118.800 210.957 C 141.219 210.702,176.222 198.252,203.000 181.007 C 204.100 180.298,206.620 178.680,208.600 177.411 C 212.949 174.623,212.552 174.900,217.487 171.200 C 219.687 169.550,222.886 167.210,224.594 166.000 C 227.195 164.158,231.759 160.642,239.557 154.474 C 254.201 142.891,277.821 120.255,286.193 109.781 C 287.297 108.400,289.436 105.743,290.948 103.877 C 297.185 96.172,314.632 68.899,313.834 68.101 C 313.381 67.648,261.173 67.584,258.919 68.034 C 256.977 68.421,256.689 68.641,254.613 71.324 C 252.537 74.008,248.134 79.759,239.704 90.800 C 237.772 93.330,235.283 96.570,234.172 98.000 C 233.061 99.430,231.392 101.724,230.462 103.098 C 229.533 104.473,228.079 106.273,227.232 107.098 C 226.385 107.924,224.872 109.860,223.870 111.400 C 222.867 112.940,221.002 115.561,219.724 117.224 C 218.446 118.887,216.149 121.947,214.619 124.024 C 213.090 126.101,209.572 130.860,206.802 134.600 C 204.033 138.340,201.504 141.787,201.183 142.260 C 200.862 142.734,199.324 144.804,197.765 146.860 C 196.206 148.917,193.080 153.120,190.818 156.200 C 184.721 164.502,185.356 164.000,180.949 164.000 C 176.475 164.000,176.617 164.198,177.591 159.339 C 178.025 157.173,178.572 153.960,178.806 152.200 C 179.039 150.440,179.483 147.740,179.791 146.200 C 180.099 144.660,180.647 141.420,181.007 139.000 C 181.368 136.580,182.018 132.530,182.451 130.000 C 182.884 127.470,183.757 122.070,184.390 118.000 C 185.023 113.930,186.103 107.090,186.790 102.800 C 187.477 98.510,188.388 92.660,188.814 89.800 C 189.241 86.940,189.683 84.240,189.797 83.800 C 190.108 82.597,192.000 69.563,192.000 68.620 C 192.000 67.702,136.647 67.278,136.082 68.191 M203.402 206.500 C 188.616 221.395,184.631 225.039,172.400 234.847 C 168.320 238.120,157.005 245.741,152.600 248.183 C 151.940 248.549,150.320 249.472,149.000 250.235 C 141.140 254.774,129.433 259.469,119.800 261.943 C 114.470 263.313,109.867 264.357,108.611 264.482 C 107.563 264.586,107.389 264.792,107.150 266.200 C 106.853 267.951,105.953 273.839,104.981 280.400 C 104.638 282.710,104.103 286.220,103.791 288.200 C 102.955 293.502,102.165 298.790,100.800 308.200 C 100.129 312.820,99.136 319.570,98.592 323.200 C 98.048 326.830,97.506 330.790,97.387 332.000 C 97.268 333.210,97.085 334.875,96.980 335.700 L 96.791 337.200 123.527 337.200 L 150.264 337.200 150.905 333.700 C 151.258 331.775,151.835 328.040,152.188 325.400 C 153.468 315.818,154.056 311.769,154.394 310.200 C 154.584 309.320,154.853 307.520,154.993 306.200 C 155.133 304.880,155.499 302.360,155.806 300.600 C 156.113 298.840,156.653 295.240,157.007 292.600 C 157.754 287.020,159.716 273.893,160.625 268.400 C 160.971 266.310,161.518 262.980,161.842 261.000 C 162.892 254.568,163.678 249.817,163.828 249.000 C 164.016 247.975,172.772 245.061,175.777 245.024 C 178.219 244.994,178.684 245.580,181.402 252.109 C 182.905 255.722,202.817 296.215,204.951 300.000 C 205.262 300.550,206.279 302.530,207.212 304.400 C 208.145 306.270,209.209 308.250,209.576 308.800 C 209.944 309.350,210.831 311.150,211.548 312.800 C 212.265 314.450,213.113 316.250,213.431 316.800 C 213.749 317.350,214.825 319.240,215.821 321.000 C 216.817 322.760,217.797 324.470,218.000 324.800 C 218.203 325.130,219.665 328.055,221.250 331.300 L 224.132 337.200 256.266 337.200 C 273.940 337.200,288.400 337.060,288.400 336.889 C 288.400 336.718,288.156 336.223,287.859 335.789 C 287.035 334.588,285.374 331.543,282.336 325.666 C 277.873 317.031,274.704 311.029,274.380 310.600 C 274.214 310.380,273.187 308.490,272.097 306.400 C 267.735 298.036,262.706 288.578,262.419 288.200 C 262.253 287.980,260.266 284.200,258.006 279.800 C 255.745 275.400,253.761 271.620,253.596 271.400 C 253.431 271.180,251.999 268.480,250.415 265.400 C 248.830 262.320,246.442 257.730,245.106 255.200 C 243.771 252.670,241.746 248.792,240.605 246.583 C 227.858 221.884,225.402 217.155,223.994 214.600 C 223.388 213.500,221.050 208.955,218.799 204.500 C 216.049 199.059,214.496 196.400,214.067 196.400 C 213.716 196.400,208.917 200.945,203.402 206.500 " stroke="none" fill="#fad977" fill-rule="evenodd"></path><path id="path1" d="M180.000 0.463 C 176.810 0.652,173.923 0.964,173.584 1.155 C 173.245 1.346,171.310 1.633,169.284 1.793 C 167.258 1.954,165.600 2.223,165.600 2.391 C 165.600 2.559,164.163 2.822,162.407 2.975 C 160.651 3.128,159.121 3.404,159.008 3.588 C 158.894 3.771,157.721 4.047,156.400 4.200 C 155.079 4.353,153.911 4.620,153.805 4.793 C 153.698 4.965,152.621 5.230,151.412 5.381 C 150.202 5.532,149.117 5.811,149.000 6.000 C 148.883 6.189,147.800 6.467,146.594 6.618 C 145.387 6.769,144.400 7.051,144.400 7.246 C 144.400 7.441,144.070 7.600,143.667 7.600 C 142.802 7.600,137.705 9.081,136.705 9.623 C 136.323 9.831,135.783 10.001,135.505 10.002 C 135.227 10.004,134.497 10.267,133.883 10.588 C 133.269 10.908,132.144 11.287,131.383 11.430 C 130.622 11.572,130.000 11.826,130.000 11.993 C 130.000 12.161,129.280 12.413,128.400 12.554 C 127.520 12.694,126.800 12.967,126.800 13.160 C 126.800 13.353,126.170 13.629,125.400 13.774 C 124.630 13.918,124.000 14.192,124.000 14.383 C 124.000 14.574,123.280 14.851,122.400 15.000 C 121.520 15.149,120.800 15.420,120.800 15.603 C 120.800 15.787,120.260 16.055,119.600 16.200 C 118.940 16.345,118.400 16.629,118.400 16.832 C 118.400 17.034,118.067 17.200,117.659 17.200 C 116.766 17.200,104.256 23.475,104.067 24.018 C 103.993 24.228,103.678 24.400,103.367 24.400 C 103.055 24.400,102.800 24.566,102.800 24.768 C 102.800 24.971,102.260 25.255,101.600 25.400 C 100.940 25.545,100.400 25.829,100.400 26.032 C 100.400 26.234,100.143 26.400,99.829 26.400 C 99.514 26.400,99.019 26.627,98.729 26.905 C 98.438 27.182,97.750 27.631,97.200 27.902 C 95.927 28.529,94.783 29.263,94.088 29.900 C 93.788 30.175,93.286 30.400,92.971 30.400 C 92.657 30.400,92.400 30.580,92.400 30.800 C 92.400 31.020,92.124 31.200,91.787 31.200 C 91.451 31.200,91.078 31.454,90.959 31.764 C 90.839 32.074,90.305 32.437,89.771 32.572 C 89.237 32.706,88.800 32.992,88.800 33.208 C 88.800 33.423,88.524 33.600,88.187 33.600 C 87.851 33.600,87.471 33.870,87.345 34.200 C 87.218 34.530,86.862 34.800,86.553 34.800 C 86.245 34.800,85.684 35.160,85.307 35.600 C 84.930 36.040,84.392 36.400,84.111 36.400 C 83.830 36.400,83.595 36.535,83.589 36.700 C 83.583 36.865,82.863 37.441,81.989 37.980 C 81.115 38.520,80.400 39.105,80.400 39.280 C 80.400 39.456,80.139 39.600,79.820 39.600 C 79.501 39.600,79.096 39.838,78.920 40.130 C 78.744 40.421,77.979 41.096,77.219 41.630 C 76.460 42.163,75.449 43.005,74.973 43.500 C 74.498 43.995,73.946 44.400,73.747 44.400 C 73.549 44.400,72.541 45.210,71.508 46.200 C 70.474 47.190,69.483 48.000,69.304 48.000 C 69.125 48.000,68.532 48.495,67.988 49.100 C 67.443 49.705,66.123 50.903,65.055 51.762 C 62.848 53.538,52.961 63.390,51.538 65.231 C 51.022 65.899,49.790 67.325,48.800 68.400 C 46.741 70.636,46.623 70.777,44.663 73.345 C 43.866 74.389,42.940 75.517,42.607 75.850 C 42.273 76.184,41.992 76.669,41.983 76.929 C 41.974 77.188,41.434 77.842,40.783 78.381 C 40.132 78.921,39.600 79.596,39.600 79.881 C 39.600 80.167,39.432 80.400,39.227 80.400 C 39.022 80.400,38.731 80.788,38.580 81.262 C 38.430 81.737,37.877 82.522,37.353 83.008 C 36.829 83.494,36.400 84.102,36.400 84.358 C 36.400 84.615,36.146 84.922,35.836 85.041 C 35.526 85.161,35.163 85.695,35.028 86.229 C 34.894 86.763,34.608 87.200,34.392 87.200 C 34.177 87.200,34.000 87.476,34.000 87.813 C 34.000 88.149,33.746 88.522,33.436 88.641 C 33.126 88.761,32.763 89.295,32.628 89.829 C 32.494 90.363,32.208 90.800,31.992 90.800 C 31.777 90.800,31.600 91.076,31.600 91.413 C 31.600 91.749,31.346 92.122,31.036 92.241 C 30.726 92.361,30.363 92.895,30.228 93.429 C 30.094 93.963,29.822 94.400,29.624 94.400 C 29.426 94.400,29.148 94.925,29.007 95.567 C 28.866 96.208,28.492 96.833,28.176 96.954 C 27.859 97.076,27.600 97.451,27.600 97.787 C 27.600 98.124,27.434 98.400,27.232 98.400 C 27.029 98.400,26.745 98.940,26.600 99.600 C 26.455 100.260,26.174 100.800,25.976 100.800 C 25.778 100.800,25.502 101.250,25.364 101.800 C 25.226 102.350,24.998 102.802,24.857 102.804 C 24.715 102.806,24.245 103.616,23.810 104.604 C 23.376 105.592,22.895 106.400,22.742 106.400 C 22.589 106.400,22.345 106.940,22.200 107.600 C 22.055 108.260,21.785 108.800,21.600 108.800 C 21.415 108.800,21.145 109.340,21.000 110.000 C 20.855 110.660,20.585 111.200,20.400 111.200 C 20.215 111.200,19.945 111.740,19.800 112.400 C 19.655 113.060,19.385 113.600,19.200 113.600 C 19.015 113.600,18.745 114.140,18.600 114.800 C 18.455 115.460,18.171 116.000,17.968 116.000 C 17.766 116.000,17.600 116.190,17.600 116.422 C 17.600 116.804,17.010 118.243,15.371 121.860 C 15.057 122.554,14.800 123.409,14.800 123.760 C 14.800 124.112,14.622 124.400,14.405 124.400 C 14.187 124.400,13.894 125.120,13.754 126.000 C 13.613 126.880,13.361 127.600,13.193 127.600 C 13.026 127.600,12.771 128.230,12.626 129.000 C 12.482 129.770,12.212 130.400,12.027 130.400 C 11.842 130.400,11.569 131.210,11.421 132.200 C 11.272 133.190,11.002 134.000,10.821 134.000 C 10.639 134.000,10.369 134.810,10.221 135.800 C 10.072 136.790,9.802 137.600,9.621 137.600 C 9.439 137.600,9.169 138.410,9.021 139.400 C 8.872 140.390,8.603 141.200,8.422 141.200 C 8.240 141.200,7.968 142.190,7.817 143.400 C 7.666 144.610,7.399 145.600,7.223 145.600 C 7.047 145.600,6.785 146.493,6.640 147.584 C 6.495 148.675,6.220 149.664,6.028 149.783 C 5.836 149.901,5.553 151.079,5.400 152.400 C 5.247 153.721,4.973 154.893,4.792 155.005 C 4.611 155.117,4.338 156.377,4.185 157.804 C 4.032 159.232,3.764 160.400,3.589 160.400 C 3.415 160.400,3.144 161.930,2.989 163.800 C 2.833 165.670,2.566 167.200,2.396 167.200 C 2.226 167.200,1.955 169.045,1.795 171.300 C 1.636 173.555,1.355 175.495,1.173 175.611 C -0.104 176.423,-0.104 223.577,1.173 224.389 C 1.355 224.505,1.636 226.445,1.795 228.700 C 1.955 230.955,2.226 232.800,2.396 232.800 C 2.566 232.800,2.833 234.330,2.989 236.200 C 3.144 238.070,3.415 239.600,3.589 239.600 C 3.764 239.600,4.032 240.768,4.185 242.196 C 4.338 243.623,4.611 244.883,4.792 244.995 C 4.973 245.107,5.247 246.279,5.400 247.600 C 5.553 248.921,5.836 250.099,6.028 250.217 C 6.220 250.336,6.495 251.325,6.640 252.416 C 6.785 253.507,7.047 254.400,7.223 254.400 C 7.399 254.400,7.666 255.390,7.817 256.600 C 7.968 257.810,8.240 258.800,8.422 258.800 C 8.603 258.800,8.872 259.610,9.021 260.600 C 9.169 261.590,9.439 262.400,9.621 262.400 C 9.802 262.400,10.072 263.210,10.221 264.200 C 10.369 265.190,10.639 266.000,10.821 266.000 C 11.002 266.000,11.272 266.810,11.421 267.800 C 11.569 268.790,11.842 269.600,12.027 269.600 C 12.212 269.600,12.482 270.230,12.626 271.000 C 12.771 271.770,13.026 272.400,13.193 272.400 C 13.361 272.400,13.613 273.120,13.754 274.000 C 13.894 274.880,14.187 275.600,14.405 275.600 C 14.622 275.600,14.800 275.880,14.800 276.222 C 14.800 276.783,15.290 278.023,17.029 281.860 C 17.343 282.554,17.600 283.319,17.600 283.560 C 17.600 283.802,17.766 284.000,17.968 284.000 C 18.171 284.000,18.455 284.540,18.600 285.200 C 18.745 285.860,19.015 286.400,19.200 286.400 C 19.385 286.400,19.655 286.940,19.800 287.600 C 19.945 288.260,20.215 288.800,20.400 288.800 C 20.585 288.800,20.855 289.340,21.000 290.000 C 21.145 290.660,21.415 291.200,21.600 291.200 C 21.785 291.200,22.055 291.740,22.200 292.400 C 22.345 293.060,22.589 293.600,22.742 293.600 C 22.895 293.600,23.376 294.408,23.810 295.396 C 24.245 296.384,24.715 297.194,24.857 297.196 C 24.998 297.198,25.226 297.650,25.364 298.200 C 25.502 298.750,25.778 299.200,25.976 299.200 C 26.174 299.200,26.455 299.740,26.600 300.400 C 26.745 301.060,27.029 301.600,27.232 301.600 C 27.434 301.600,27.600 301.876,27.600 302.213 C 27.600 302.549,27.859 302.924,28.176 303.046 C 28.492 303.167,28.866 303.792,29.007 304.433 C 29.148 305.075,29.426 305.600,29.624 305.600 C 29.822 305.600,30.094 306.037,30.228 306.571 C 30.363 307.105,30.726 307.639,31.036 307.759 C 31.346 307.878,31.600 308.251,31.600 308.587 C 31.600 308.924,31.777 309.200,31.992 309.200 C 32.208 309.200,32.494 309.637,32.628 310.171 C 32.763 310.705,33.126 311.239,33.436 311.359 C 33.746 311.478,34.000 311.851,34.000 312.187 C 34.000 312.524,34.177 312.800,34.392 312.800 C 34.608 312.800,34.894 313.237,35.028 313.771 C 35.163 314.305,35.526 314.839,35.836 314.959 C 36.146 315.078,36.400 315.385,36.400 315.642 C 36.400 315.898,36.829 316.506,37.353 316.992 C 37.877 317.478,38.430 318.263,38.580 318.738 C 38.731 319.212,39.022 319.600,39.227 319.600 C 39.432 319.600,39.600 319.833,39.600 320.119 C 39.600 320.404,40.132 321.079,40.783 321.619 C 41.434 322.158,41.974 322.812,41.983 323.071 C 41.992 323.331,42.273 323.816,42.607 324.150 C 42.940 324.483,43.866 325.611,44.663 326.655 C 46.623 329.223,46.741 329.364,48.800 331.600 C 49.790 332.675,51.022 334.101,51.538 334.769 C 52.961 336.610,62.848 346.462,65.055 348.238 C 66.123 349.097,67.443 350.295,67.988 350.900 C 68.532 351.505,69.125 352.000,69.304 352.000 C 69.483 352.000,70.474 352.810,71.508 353.800 C 72.541 354.790,73.549 355.600,73.747 355.600 C 73.946 355.600,74.498 356.005,74.973 356.500 C 75.449 356.995,76.460 357.837,77.219 358.370 C 77.979 358.904,78.744 359.579,78.920 359.870 C 79.096 360.162,79.501 360.400,79.820 360.400 C 80.139 360.400,80.400 360.544,80.400 360.720 C 80.400 360.895,81.115 361.480,81.989 362.020 C 82.863 362.559,83.583 363.135,83.589 363.300 C 83.595 363.465,83.830 363.600,84.111 363.600 C 84.392 363.600,84.930 363.960,85.307 364.400 C 85.684 364.840,86.245 365.200,86.553 365.200 C 86.862 365.200,87.218 365.470,87.345 365.800 C 87.471 366.130,87.851 366.400,88.187 366.400 C 88.524 366.400,88.800 366.577,88.800 366.792 C 88.800 367.008,89.237 367.294,89.771 367.428 C 90.305 367.563,90.839 367.926,90.959 368.236 C 91.078 368.546,91.451 368.800,91.787 368.800 C 92.124 368.800,92.400 368.980,92.400 369.200 C 92.400 369.420,92.657 369.600,92.971 369.600 C 93.286 369.600,93.788 369.825,94.088 370.100 C 94.783 370.737,95.927 371.471,97.200 372.098 C 97.750 372.369,98.438 372.818,98.729 373.095 C 99.019 373.373,99.514 373.600,99.829 373.600 C 100.143 373.600,100.400 373.766,100.400 373.968 C 100.400 374.171,100.940 374.455,101.600 374.600 C 102.260 374.745,102.800 375.029,102.800 375.232 C 102.800 375.434,103.055 375.600,103.367 375.600 C 103.678 375.600,103.993 375.772,104.067 375.982 C 104.256 376.525,116.766 382.800,117.659 382.800 C 118.067 382.800,118.400 382.966,118.400 383.168 C 118.400 383.371,118.940 383.655,119.600 383.800 C 120.260 383.945,120.800 384.213,120.800 384.397 C 120.800 384.580,121.520 384.851,122.400 385.000 C 123.280 385.149,124.000 385.426,124.000 385.617 C 124.000 385.808,124.630 386.082,125.400 386.226 C 126.170 386.371,126.800 386.647,126.800 386.840 C 126.800 387.033,127.520 387.306,128.400 387.446 C 129.280 387.587,130.000 387.839,130.000 388.007 C 130.000 388.174,130.622 388.428,131.383 388.570 C 132.144 388.713,133.269 389.092,133.883 389.412 C 134.497 389.733,135.227 389.996,135.505 389.998 C 135.783 389.999,136.323 390.169,136.705 390.377 C 137.705 390.919,142.802 392.400,143.667 392.400 C 144.070 392.400,144.400 392.559,144.400 392.754 C 144.400 392.949,145.387 393.231,146.594 393.382 C 147.800 393.533,148.883 393.811,149.000 394.000 C 149.117 394.189,150.202 394.468,151.412 394.619 C 152.621 394.770,153.698 395.035,153.805 395.207 C 153.911 395.380,155.079 395.647,156.400 395.800 C 157.721 395.953,158.894 396.229,159.008 396.412 C 159.121 396.596,160.651 396.872,162.407 397.025 C 164.163 397.178,165.600 397.441,165.600 397.609 C 165.600 397.777,167.265 398.044,169.300 398.202 C 171.335 398.360,173.180 398.624,173.400 398.790 C 175.443 400.328,223.500 400.343,227.000 398.807 C 227.440 398.613,229.330 398.337,231.200 398.192 C 233.070 398.048,234.780 397.789,235.000 397.618 C 235.220 397.447,236.652 397.184,238.183 397.034 C 239.713 396.884,241.153 396.610,241.383 396.425 C 241.612 396.240,242.925 395.961,244.301 395.805 C 245.676 395.649,246.889 395.380,246.995 395.207 C 247.102 395.035,248.179 394.770,249.388 394.619 C 250.598 394.468,251.680 394.193,251.794 394.009 C 251.908 393.825,252.900 393.551,254.000 393.400 C 255.100 393.249,256.094 392.972,256.209 392.786 C 256.324 392.599,257.227 392.325,258.214 392.177 C 259.202 392.029,260.099 391.764,260.207 391.589 C 260.315 391.413,261.122 391.148,262.000 391.000 C 262.878 390.852,263.697 390.566,263.822 390.365 C 263.946 390.164,264.442 389.994,264.924 389.986 C 265.406 389.979,266.520 389.625,267.400 389.200 C 268.280 388.775,269.405 388.421,269.900 388.414 C 270.395 388.406,270.800 388.240,270.800 388.045 C 270.800 387.849,271.430 387.571,272.200 387.426 C 272.970 387.282,273.600 387.015,273.600 386.833 C 273.600 386.651,274.320 386.387,275.200 386.246 C 276.080 386.106,276.800 385.827,276.800 385.627 C 276.800 385.427,277.359 385.141,278.042 384.991 C 278.725 384.841,280.120 384.313,281.142 383.817 C 285.086 381.906,286.704 381.200,287.144 381.200 C 287.395 381.200,287.600 381.034,287.600 380.832 C 287.600 380.629,288.140 380.345,288.800 380.200 C 289.460 380.055,290.000 379.790,290.000 379.612 C 290.000 379.433,290.493 379.163,291.096 379.012 C 291.699 378.860,292.284 378.616,292.396 378.468 C 292.508 378.320,293.410 377.788,294.400 377.285 C 296.518 376.208,297.722 375.495,298.000 375.154 C 298.110 375.019,298.642 374.770,299.181 374.601 C 299.721 374.432,300.390 374.093,300.667 373.847 C 301.913 372.743,302.321 372.479,303.212 372.196 C 303.735 372.030,304.409 371.648,304.710 371.347 C 305.011 371.046,305.495 370.800,305.786 370.800 C 306.077 370.800,306.418 370.530,306.545 370.200 C 306.671 369.870,307.051 369.600,307.387 369.600 C 307.724 369.600,308.000 369.440,308.000 369.243 C 308.000 369.047,308.450 368.774,309.000 368.636 C 309.550 368.498,310.000 368.208,310.000 367.992 C 310.000 367.777,310.276 367.600,310.613 367.600 C 310.949 367.600,311.329 367.330,311.455 367.000 C 311.582 366.670,311.909 366.400,312.182 366.400 C 312.454 366.400,313.057 366.085,313.520 365.700 C 315.257 364.256,316.171 363.600,316.447 363.600 C 316.724 363.600,318.104 362.520,319.642 361.100 C 320.059 360.715,320.566 360.400,320.769 360.400 C 320.972 360.400,321.678 359.860,322.338 359.200 C 322.998 358.540,323.723 358.000,323.949 358.000 C 324.175 358.000,324.504 357.762,324.680 357.470 C 324.856 357.179,325.630 356.504,326.399 355.970 C 327.168 355.437,328.473 354.325,329.299 353.500 C 330.124 352.675,330.944 352.000,331.121 352.000 C 331.665 352.000,335.396 348.516,342.555 341.322 C 349.805 334.038,350.509 333.287,353.014 330.172 C 353.886 329.087,355.095 327.691,355.700 327.069 C 356.305 326.447,356.800 325.764,356.800 325.550 C 356.800 325.337,357.250 324.745,357.800 324.235 C 358.350 323.725,358.805 323.149,358.811 322.954 C 358.817 322.759,359.353 322.079,360.003 321.442 C 360.652 320.805,361.289 319.950,361.418 319.542 C 361.548 319.134,361.822 318.800,362.027 318.800 C 362.232 318.800,362.400 318.570,362.400 318.289 C 362.400 318.008,362.760 317.470,363.200 317.093 C 363.640 316.716,364.000 316.155,364.000 315.847 C 364.000 315.538,364.270 315.182,364.600 315.055 C 364.930 314.929,365.200 314.549,365.200 314.213 C 365.200 313.876,365.377 313.600,365.592 313.600 C 365.808 313.600,366.094 313.163,366.228 312.629 C 366.363 312.095,366.726 311.561,367.036 311.441 C 367.346 311.322,367.600 310.949,367.600 310.613 C 367.600 310.276,367.777 310.000,367.992 310.000 C 368.208 310.000,368.494 309.563,368.628 309.029 C 368.763 308.495,369.126 307.961,369.436 307.841 C 369.746 307.722,370.000 307.349,370.000 307.013 C 370.000 306.676,370.177 306.400,370.392 306.400 C 370.608 306.400,370.898 305.950,371.036 305.400 C 371.174 304.850,371.447 304.400,371.643 304.400 C 371.840 304.400,372.000 304.143,372.000 303.829 C 372.000 303.514,372.246 303.011,372.547 302.710 C 372.848 302.409,373.220 301.766,373.374 301.281 C 373.528 300.797,373.807 300.400,373.995 300.400 C 374.183 300.400,374.455 299.860,374.600 299.200 C 374.745 298.540,375.000 298.000,375.167 298.000 C 375.335 298.000,375.815 297.282,376.236 296.405 C 376.656 295.527,377.121 294.807,377.268 294.805 C 377.416 294.802,377.655 294.260,377.800 293.600 C 377.945 292.940,378.215 292.400,378.400 292.400 C 378.585 292.400,378.855 291.860,379.000 291.200 C 379.145 290.540,379.415 290.000,379.600 290.000 C 379.785 290.000,380.055 289.460,380.200 288.800 C 380.345 288.140,380.615 287.600,380.800 287.600 C 380.985 287.600,381.255 287.060,381.400 286.400 C 381.545 285.740,381.829 285.200,382.032 285.200 C 382.234 285.200,382.400 284.995,382.400 284.744 C 382.400 284.493,382.784 283.458,383.254 282.444 C 383.724 281.430,384.254 280.240,384.433 279.800 C 385.443 277.302,386.473 274.918,386.787 274.349 C 386.984 273.991,387.268 273.046,387.417 272.249 C 387.567 271.452,387.847 270.800,388.040 270.800 C 388.233 270.800,388.506 270.080,388.646 269.200 C 388.787 268.320,389.048 267.600,389.227 267.600 C 389.405 267.600,389.672 266.790,389.821 265.800 C 389.969 264.810,390.239 264.000,390.421 264.000 C 390.602 264.000,390.872 263.190,391.021 262.200 C 391.169 261.210,391.444 260.400,391.632 260.400 C 391.819 260.400,392.092 259.500,392.238 258.400 C 392.384 257.300,392.647 256.400,392.823 256.400 C 392.999 256.400,393.266 255.410,393.417 254.200 C 393.568 252.990,393.840 252.000,394.022 252.000 C 394.203 252.000,394.461 251.145,394.596 250.100 C 394.731 249.055,394.995 247.914,395.184 247.564 C 395.372 247.215,395.654 245.910,395.809 244.664 C 395.965 243.419,396.236 242.400,396.412 242.400 C 396.588 242.400,396.858 241.050,397.013 239.400 C 397.167 237.750,397.434 236.400,397.605 236.400 C 397.775 236.400,398.044 234.735,398.202 232.700 C 398.360 230.665,398.630 228.820,398.803 228.600 C 400.377 226.598,400.377 173.402,398.803 171.400 C 398.630 171.180,398.360 169.335,398.202 167.300 C 398.044 165.265,397.775 163.600,397.605 163.600 C 397.434 163.600,397.167 162.250,397.013 160.600 C 396.858 158.950,396.588 157.600,396.412 157.600 C 396.236 157.600,395.965 156.581,395.809 155.336 C 395.654 154.090,395.372 152.785,395.184 152.436 C 394.995 152.086,394.731 150.945,394.596 149.900 C 394.461 148.855,394.203 148.000,394.022 148.000 C 393.840 148.000,393.568 147.010,393.417 145.800 C 393.266 144.590,392.999 143.600,392.823 143.600 C 392.647 143.600,392.384 142.700,392.238 141.600 C 392.092 140.500,391.819 139.600,391.632 139.600 C 391.444 139.600,391.169 138.790,391.021 137.800 C 390.872 136.810,390.602 136.000,390.421 136.000 C 390.239 136.000,389.969 135.190,389.821 134.200 C 389.672 133.210,389.405 132.400,389.227 132.400 C 389.048 132.400,388.787 131.680,388.646 130.800 C 388.506 129.920,388.233 129.200,388.040 129.200 C 387.847 129.200,387.567 128.548,387.417 127.751 C 387.268 126.954,386.984 126.009,386.787 125.651 C 386.473 125.082,385.443 122.698,384.433 120.200 C 384.254 119.760,383.724 118.570,383.254 117.556 C 382.784 116.542,382.400 115.507,382.400 115.256 C 382.400 115.005,382.234 114.800,382.032 114.800 C 381.829 114.800,381.545 114.260,381.400 113.600 C 381.255 112.940,380.985 112.400,380.800 112.400 C 380.615 112.400,380.345 111.860,380.200 111.200 C 380.055 110.540,379.785 110.000,379.600 110.000 C 379.415 110.000,379.145 109.460,379.000 108.800 C 378.855 108.140,378.585 107.600,378.400 107.600 C 378.215 107.600,377.945 107.060,377.800 106.400 C 377.655 105.740,377.416 105.198,377.268 105.195 C 377.121 105.193,376.656 104.473,376.236 103.595 C 375.815 102.718,375.335 102.000,375.167 102.000 C 375.000 102.000,374.745 101.460,374.600 100.800 C 374.455 100.140,374.183 99.600,373.995 99.600 C 373.807 99.600,373.528 99.203,373.374 98.719 C 373.220 98.234,372.848 97.591,372.547 97.290 C 372.246 96.989,372.000 96.486,372.000 96.171 C 372.000 95.857,371.840 95.600,371.643 95.600 C 371.447 95.600,371.174 95.150,371.036 94.600 C 370.898 94.050,370.608 93.600,370.392 93.600 C 370.177 93.600,370.000 93.324,370.000 92.987 C 370.000 92.651,369.746 92.278,369.436 92.159 C 369.126 92.039,368.763 91.505,368.628 90.971 C 368.494 90.437,368.208 90.000,367.992 90.000 C 367.777 90.000,367.600 89.724,367.600 89.387 C 367.600 89.051,367.346 88.678,367.036 88.559 C 366.726 88.439,366.363 87.905,366.228 87.371 C 366.094 86.837,365.808 86.400,365.592 86.400 C 365.377 86.400,365.200 86.124,365.200 85.787 C 365.200 85.451,364.930 85.071,364.600 84.945 C 364.270 84.818,364.000 84.462,364.000 84.153 C 364.000 83.845,363.640 83.284,363.200 82.907 C 362.760 82.530,362.400 81.992,362.400 81.711 C 362.400 81.430,362.232 81.200,362.027 81.200 C 361.822 81.200,361.548 80.866,361.418 80.458 C 361.289 80.050,360.652 79.195,360.003 78.558 C 359.353 77.921,358.817 77.241,358.811 77.046 C 358.805 76.851,358.350 76.275,357.800 75.765 C 357.250 75.255,356.800 74.663,356.800 74.450 C 356.800 74.236,356.305 73.553,355.700 72.931 C 355.095 72.309,353.886 70.913,353.014 69.828 C 350.509 66.713,349.805 65.962,342.555 58.678 C 335.396 51.484,331.665 48.000,331.121 48.000 C 330.944 48.000,330.124 47.325,329.299 46.500 C 328.473 45.675,327.168 44.563,326.399 44.030 C 325.630 43.496,324.856 42.821,324.680 42.530 C 324.504 42.238,324.175 42.000,323.949 42.000 C 323.723 42.000,322.998 41.460,322.338 40.800 C 321.678 40.140,320.988 39.600,320.803 39.600 C 320.482 39.600,319.174 38.592,317.558 37.100 C 317.141 36.715,316.648 36.400,316.461 36.400 C 316.275 36.400,315.743 36.085,315.280 35.700 C 313.359 34.103,312.612 33.600,312.161 33.600 C 311.900 33.600,311.582 33.330,311.455 33.000 C 311.329 32.670,310.949 32.400,310.613 32.400 C 310.276 32.400,310.000 32.223,310.000 32.008 C 310.000 31.792,309.550 31.502,309.000 31.364 C 308.450 31.226,308.000 30.953,308.000 30.757 C 308.000 30.560,307.724 30.400,307.387 30.400 C 307.051 30.400,306.671 30.130,306.545 29.800 C 306.418 29.470,306.077 29.200,305.786 29.200 C 305.495 29.200,305.011 28.954,304.710 28.653 C 304.409 28.352,303.729 27.968,303.200 27.800 C 302.671 27.632,302.010 27.293,301.733 27.047 C 300.483 25.940,300.078 25.679,299.169 25.395 C 298.636 25.228,298.110 24.981,298.000 24.846 C 297.722 24.505,296.518 23.792,294.400 22.715 C 293.410 22.212,292.508 21.680,292.396 21.532 C 292.284 21.384,291.699 21.140,291.096 20.988 C 290.493 20.837,290.000 20.567,290.000 20.388 C 290.000 20.210,289.460 19.945,288.800 19.800 C 288.140 19.655,287.600 19.371,287.600 19.168 C 287.600 18.966,287.395 18.800,287.144 18.800 C 286.704 18.800,285.086 18.094,281.142 16.183 C 280.120 15.687,278.725 15.159,278.042 15.009 C 277.359 14.859,276.800 14.573,276.800 14.373 C 276.800 14.173,276.080 13.894,275.200 13.754 C 274.320 13.613,273.600 13.349,273.600 13.167 C 273.600 12.985,272.970 12.718,272.200 12.574 C 271.430 12.429,270.800 12.151,270.800 11.955 C 270.800 11.760,270.395 11.594,269.900 11.586 C 269.405 11.579,268.280 11.225,267.400 10.800 C 266.520 10.375,265.406 10.021,264.924 10.014 C 264.442 10.006,263.946 9.836,263.822 9.635 C 263.697 9.434,262.878 9.148,262.000 9.000 C 261.122 8.852,260.315 8.587,260.207 8.411 C 260.099 8.236,259.202 7.971,258.214 7.823 C 257.227 7.675,256.324 7.401,256.209 7.214 C 256.094 7.028,255.100 6.751,254.000 6.600 C 252.900 6.449,251.908 6.175,251.794 5.991 C 251.680 5.807,250.598 5.532,249.388 5.381 C 248.179 5.230,247.102 4.965,246.995 4.793 C 246.889 4.620,245.676 4.351,244.301 4.195 C 242.925 4.039,241.612 3.760,241.383 3.575 C 241.153 3.390,239.713 3.116,238.183 2.966 C 236.652 2.816,235.217 2.550,234.993 2.375 C 234.770 2.200,232.970 1.931,230.993 1.776 C 229.017 1.622,227.220 1.359,227.000 1.193 C 225.640 0.162,193.469 -0.337,180.000 0.463 M192.710 68.218 C 192.815 69.335,191.838 76.372,190.019 87.600 C 189.574 90.350,188.665 96.110,188.000 100.400 C 187.335 104.690,186.621 109.100,186.412 110.200 C 186.204 111.300,185.919 113.100,185.778 114.200 C 185.452 116.757,184.280 124.097,183.256 130.000 C 182.818 132.530,182.171 136.490,181.819 138.800 C 180.677 146.296,178.100 161.295,177.744 162.516 C 177.554 163.171,177.833 163.222,181.045 163.116 L 184.554 163.000 187.275 159.600 C 190.575 155.475,190.332 155.798,191.800 153.623 C 192.460 152.646,195.288 148.776,198.085 145.023 C 200.882 141.270,204.932 135.807,207.085 132.883 C 209.238 129.959,212.080 126.158,213.400 124.438 C 214.720 122.718,216.070 120.902,216.400 120.403 C 216.730 119.904,217.585 118.782,218.300 117.910 C 219.015 117.038,219.603 116.206,219.608 116.062 C 219.612 115.918,220.250 115.080,221.025 114.200 C 221.801 113.320,222.970 111.673,223.624 110.539 C 224.278 109.406,225.569 107.746,226.492 106.850 C 227.415 105.954,229.167 103.775,230.385 102.009 C 232.437 99.033,241.626 86.777,242.580 85.745 C 243.059 85.225,244.779 82.973,248.647 77.800 C 250.128 75.820,251.803 73.641,252.370 72.957 C 254.397 70.512,254.744 70.052,255.181 69.236 C 256.265 67.210,255.853 67.237,285.990 67.178 C 304.977 67.141,314.218 67.258,314.499 67.539 C 314.940 67.980,314.315 70.040,313.390 71.200 C 313.126 71.530,312.410 72.700,311.798 73.800 C 311.185 74.900,310.261 76.475,309.742 77.300 C 309.224 78.125,308.376 79.475,307.858 80.300 C 299.207 94.072,297.977 95.917,293.427 101.948 C 291.872 104.010,290.197 106.251,289.705 106.929 C 289.213 107.608,288.538 108.315,288.205 108.501 C 287.857 108.696,287.600 109.396,287.600 110.147 C 287.600 111.090,287.199 111.894,286.162 113.027 C 285.371 113.892,284.095 115.562,283.326 116.737 C 282.557 117.912,280.990 119.982,279.845 121.337 C 278.699 122.692,276.029 125.983,273.913 128.651 C 271.797 131.319,269.005 134.649,267.709 136.051 C 266.414 137.453,264.077 140.130,262.517 142.000 C 257.398 148.134,246.272 160.452,241.200 165.601 C 237.472 169.385,232.473 174.677,230.621 176.800 C 229.565 178.010,227.239 180.548,225.451 182.441 C 221.423 186.704,215.144 193.799,214.706 194.583 C 214.498 194.953,214.639 195.470,215.090 195.996 C 215.480 196.452,217.793 200.734,220.229 205.513 C 225.466 215.784,231.150 226.802,234.511 233.200 C 235.841 235.730,238.337 240.568,240.058 243.952 C 241.780 247.335,243.347 250.305,243.542 250.552 C 243.737 250.798,245.609 254.330,247.703 258.400 C 249.796 262.470,252.182 267.060,253.004 268.600 C 255.312 272.923,258.501 278.994,260.777 283.400 C 261.913 285.600,263.341 288.300,263.951 289.400 C 264.560 290.500,266.104 293.380,267.382 295.800 C 269.773 300.329,274.473 309.166,276.608 313.147 C 277.273 314.386,279.505 318.640,281.568 322.600 C 283.632 326.560,286.190 331.369,287.252 333.287 C 288.338 335.247,289.082 337.043,288.950 337.387 C 288.604 338.287,224.366 338.323,223.620 337.424 C 223.357 337.107,221.894 334.272,220.368 331.124 C 218.843 327.976,217.420 325.130,217.207 324.800 C 216.729 324.060,213.336 318.167,212.600 316.800 C 211.649 315.031,209.600 310.512,209.600 310.182 C 209.600 310.007,209.336 309.572,209.014 309.216 C 208.229 308.348,196.783 285.789,188.001 267.800 C 186.175 264.060,184.459 260.730,184.188 260.400 C 183.917 260.070,183.022 258.090,182.199 256.000 C 181.376 253.910,179.978 250.693,179.093 248.850 L 177.483 245.500 175.442 245.711 C 174.319 245.827,171.600 246.506,169.400 247.220 C 167.200 247.935,165.175 248.576,164.900 248.647 C 164.625 248.717,164.400 249.317,164.400 249.979 C 164.400 250.642,164.135 252.582,163.811 254.292 C 162.957 258.794,161.143 269.771,160.751 272.800 C 160.566 274.230,159.971 278.190,159.429 281.600 C 158.887 285.010,158.159 289.960,157.812 292.600 C 157.465 295.240,157.004 298.300,156.788 299.400 C 156.571 300.500,156.136 303.380,155.819 305.800 C 155.503 308.220,154.961 311.910,154.615 314.000 C 154.268 316.090,153.804 319.302,153.584 321.139 C 153.146 324.785,151.801 333.653,151.301 336.200 L 150.986 337.800 123.816 337.903 C 108.872 337.959,96.505 337.865,96.333 337.693 C 95.949 337.309,96.491 331.929,97.795 323.200 C 98.338 319.570,99.422 312.190,100.205 306.800 C 101.721 296.362,102.018 294.377,102.959 288.400 C 103.289 286.310,103.838 282.710,104.181 280.400 C 105.644 270.528,106.094 267.699,106.468 266.000 C 106.686 265.010,107.007 263.300,107.182 262.200 C 107.967 257.252,108.485 253.796,109.249 248.400 C 109.700 245.210,110.328 240.890,110.643 238.800 C 110.958 236.710,111.375 233.650,111.571 232.000 C 111.938 228.906,112.880 222.799,113.635 218.616 C 113.872 217.305,114.133 214.315,114.215 211.973 C 114.334 208.562,116.508 191.670,117.404 187.200 C 117.514 186.650,117.785 184.670,118.007 182.800 C 118.229 180.930,118.768 177.060,119.204 174.200 C 119.641 171.340,120.362 166.390,120.808 163.200 C 121.253 160.010,121.961 155.510,122.380 153.200 C 122.800 150.890,123.248 148.100,123.376 147.000 C 123.504 145.900,123.873 143.110,124.196 140.800 C 124.519 138.490,125.075 134.350,125.430 131.600 C 125.786 128.850,126.407 124.710,126.810 122.400 C 127.213 120.090,127.751 116.400,128.006 114.200 C 128.261 112.000,128.715 108.850,129.014 107.200 C 129.313 105.550,129.841 101.950,130.187 99.200 C 130.533 96.450,131.079 92.580,131.402 90.600 C 131.724 88.620,132.359 84.390,132.812 81.200 C 133.818 74.117,135.012 68.108,135.540 67.473 C 135.835 67.117,142.939 67.004,164.266 67.018 L 192.600 67.036 192.710 68.218 " stroke="none" fill="#040404" fill-rule="evenodd"></path><path id="path2" d="M284.358 112.900 C 273.416 125.113,261.044 137.081,246.996 149.040 C 243.068 152.384,228.298 164.031,224.981 166.400 C 223.287 167.610,220.043 169.977,217.772 171.660 C 214.070 174.403,210.799 176.628,204.600 180.618 C 200.442 183.295,192.466 187.948,189.000 189.720 C 187.020 190.732,184.230 192.188,182.800 192.956 C 179.109 194.938,176.357 196.239,172.000 198.063 C 169.910 198.938,167.591 199.920,166.847 200.246 C 164.165 201.419,156.549 204.124,153.210 205.088 C 142.642 208.141,133.127 210.399,130.762 210.414 C 129.573 210.422,127.160 210.688,125.400 211.006 C 123.640 211.324,120.466 211.588,118.346 211.592 L 114.492 211.600 114.237 213.900 C 114.096 215.165,113.808 217.280,113.596 218.600 C 113.384 219.920,112.922 222.800,112.569 225.000 C 112.216 227.200,111.767 230.350,111.571 232.000 C 111.375 233.650,110.956 236.710,110.640 238.800 C 110.323 240.890,109.683 245.390,109.217 248.800 C 108.752 252.210,108.107 256.472,107.785 258.272 C 106.625 264.761,106.503 264.661,113.546 262.991 C 129.734 259.153,143.806 253.457,155.000 246.212 C 156.100 245.500,158.137 244.216,159.526 243.359 C 173.615 234.666,201.297 209.650,218.600 189.975 C 220.580 187.724,223.663 184.333,225.451 182.441 C 227.239 180.548,229.565 178.010,230.621 176.800 C 232.473 174.677,237.472 169.385,241.200 165.601 C 246.272 160.452,257.398 148.134,262.517 142.000 C 264.077 140.130,266.414 137.453,267.709 136.051 C 269.005 134.649,271.797 131.319,273.913 128.651 C 276.029 125.983,278.699 122.692,279.845 121.337 C 280.990 119.982,282.557 117.912,283.326 116.737 C 284.095 115.562,285.371 113.892,286.162 113.027 C 287.314 111.767,288.133 109.600,287.457 109.600 C 287.378 109.600,285.984 111.085,284.358 112.900 " stroke="none" fill="#06068a" fill-rule="evenodd"></path><path id="path3" d="M135.571 68.200 C 134.896 69.879,133.660 76.676,132.587 84.600 C 132.260 87.020,131.722 90.620,131.393 92.600 C 131.063 94.580,130.615 97.820,130.396 99.800 C 130.177 101.780,129.744 104.840,129.434 106.600 C 129.124 108.360,128.669 111.330,128.423 113.200 C 128.177 115.070,127.793 117.770,127.570 119.200 C 127.347 120.630,126.897 123.510,126.570 125.600 C 126.243 127.690,125.726 131.380,125.421 133.800 C 124.891 138.010,123.023 151.287,122.607 153.800 C 121.978 157.602,120.727 165.794,120.409 168.200 C 120.205 169.740,119.742 172.890,119.380 175.200 C 119.018 177.510,118.575 180.660,118.396 182.200 C 118.217 183.740,117.690 187.430,117.223 190.400 C 115.290 202.708,114.308 210.383,114.576 211.081 C 114.822 211.724,121.214 211.802,123.723 211.193 C 124.645 210.969,127.290 210.627,129.600 210.433 C 133.684 210.089,135.019 209.847,139.600 208.617 C 140.810 208.292,143.060 207.743,144.600 207.397 C 149.374 206.324,165.027 201.246,166.200 200.390 C 166.420 200.229,167.050 199.968,167.600 199.808 C 170.706 198.908,182.164 193.375,190.800 188.605 C 198.021 184.616,198.609 184.279,200.800 182.882 C 202.010 182.110,203.630 181.085,204.400 180.604 C 208.156 178.258,214.329 174.045,219.200 170.504 C 222.170 168.345,225.410 165.994,226.400 165.280 C 229.062 163.361,231.802 161.250,234.554 159.000 C 235.899 157.900,238.170 156.104,239.600 155.010 C 241.030 153.915,244.000 151.482,246.200 149.602 C 250.464 145.959,250.757 145.707,256.000 141.162 C 260.140 137.573,277.429 120.368,281.887 115.400 C 289.334 107.102,296.438 97.890,301.168 90.400 C 301.793 89.410,303.316 87.019,304.552 85.086 C 305.788 83.153,306.800 81.426,306.800 81.248 C 306.800 81.070,307.160 80.598,307.600 80.200 C 308.040 79.802,308.400 79.336,308.400 79.165 C 308.400 78.861,309.122 77.608,312.671 71.746 C 314.537 68.665,314.752 67.821,313.767 67.443 C 312.517 66.963,259.904 67.236,258.076 67.732 C 256.662 68.116,256.013 68.647,254.476 70.680 C 253.444 72.044,250.710 75.629,248.400 78.646 C 246.090 81.663,243.750 84.730,243.200 85.462 C 242.650 86.194,240.040 89.581,237.400 92.989 C 234.760 96.397,231.663 100.584,230.518 102.293 C 229.374 104.002,227.824 105.940,227.075 106.600 C 226.326 107.260,224.897 109.060,223.900 110.600 C 222.902 112.140,221.752 113.825,221.343 114.344 C 220.934 114.864,219.871 116.214,218.980 117.344 C 218.089 118.475,216.599 120.480,215.669 121.800 C 214.739 123.120,213.398 124.950,212.689 125.867 C 211.980 126.784,209.496 130.114,207.168 133.267 C 204.841 136.420,201.331 141.132,199.368 143.737 C 195.566 148.785,195.174 149.325,192.441 153.264 C 185.878 162.726,184.904 163.600,180.922 163.600 L 177.600 163.600 177.607 162.500 C 177.611 161.895,177.892 160.140,178.232 158.600 C 178.572 157.060,179.017 154.540,179.220 153.000 C 179.424 151.460,180.038 147.590,180.586 144.400 C 181.789 137.400,183.257 128.364,184.810 118.400 C 185.445 114.330,186.241 109.290,186.578 107.200 C 187.305 102.696,188.149 97.310,188.990 91.800 C 189.325 89.600,189.864 86.360,190.186 84.600 C 191.239 78.857,192.462 69.686,192.330 68.534 L 192.200 67.407 164.046 67.403 C 136.264 67.400,135.888 67.411,135.571 68.200 M192.000 68.620 C 192.000 69.563,190.108 82.597,189.797 83.800 C 189.683 84.240,189.241 86.940,188.814 89.800 C 188.388 92.660,187.477 98.510,186.790 102.800 C 186.103 107.090,185.023 113.930,184.390 118.000 C 183.757 122.070,182.884 127.470,182.451 130.000 C 182.018 132.530,181.368 136.580,181.007 139.000 C 180.647 141.420,180.099 144.660,179.791 146.200 C 179.483 147.740,179.039 150.440,178.806 152.200 C 178.572 153.960,178.025 157.173,177.591 159.339 C 176.617 164.198,176.475 164.000,180.949 164.000 C 185.356 164.000,184.721 164.502,190.818 156.200 C 193.080 153.120,196.206 148.917,197.765 146.860 C 199.324 144.804,200.862 142.734,201.183 142.260 C 201.504 141.787,204.033 138.340,206.802 134.600 C 209.572 130.860,213.090 126.101,214.619 124.024 C 216.149 121.947,218.446 118.887,219.724 117.224 C 221.002 115.561,222.867 112.940,223.870 111.400 C 224.872 109.860,226.385 107.924,227.232 107.098 C 228.079 106.273,229.533 104.473,230.462 103.098 C 231.392 101.724,233.061 99.430,234.172 98.000 C 235.283 96.570,237.772 93.330,239.704 90.800 C 248.134 79.759,252.537 74.008,254.613 71.324 C 256.689 68.641,256.977 68.421,258.919 68.034 C 261.173 67.584,313.381 67.648,313.834 68.101 C 314.632 68.899,297.185 96.172,290.948 103.877 C 289.436 105.743,287.297 108.400,286.193 109.781 C 277.821 120.255,254.201 142.891,239.557 154.474 C 231.759 160.642,227.195 164.158,224.594 166.000 C 222.886 167.210,219.687 169.550,217.487 171.200 C 212.552 174.900,212.949 174.623,208.600 177.411 C 206.620 178.680,204.100 180.298,203.000 181.007 C 176.222 198.252,141.219 210.702,118.800 210.957 L 115.000 211.000 115.095 209.400 C 115.148 208.520,115.378 206.540,115.608 205.000 C 117.412 192.886,118.761 183.535,119.762 176.200 C 120.092 173.780,120.652 169.910,121.005 167.600 C 121.358 165.290,121.905 161.600,122.220 159.400 C 122.535 157.200,122.982 154.410,123.212 153.200 C 123.443 151.990,123.889 149.020,124.203 146.600 C 124.517 144.180,124.953 140.940,125.173 139.400 C 125.392 137.860,125.866 134.350,126.225 131.600 C 126.583 128.850,127.210 124.710,127.617 122.400 C 128.025 120.090,128.556 116.490,128.798 114.400 C 129.040 112.310,129.502 109.070,129.825 107.200 C 130.148 105.330,130.856 100.560,131.398 96.600 C 133.526 81.057,135.489 69.150,136.082 68.191 C 136.647 67.278,192.000 67.702,192.000 68.620 M202.189 207.138 C 191.312 217.967,182.065 226.542,176.581 230.885 C 175.271 231.922,173.300 233.495,172.200 234.380 C 169.315 236.703,163.050 241.151,159.800 243.187 C 158.260 244.151,156.091 245.524,154.979 246.239 C 144.427 253.021,130.168 259.028,117.554 262.005 C 114.609 262.700,111.678 263.433,111.040 263.634 C 110.402 263.835,109.286 264.000,108.559 264.000 C 107.200 264.000,106.404 265.406,106.405 267.800 C 106.405 268.240,106.142 270.130,105.821 272.000 C 105.256 275.290,104.753 278.544,103.381 287.800 C 103.023 290.220,102.484 293.730,102.185 295.600 C 101.886 297.470,101.090 302.870,100.416 307.600 C 99.237 315.877,97.990 324.357,97.212 329.400 C 97.008 330.720,96.752 333.105,96.644 334.700 L 96.447 337.600 123.569 337.600 L 150.691 337.600 151.333 334.300 C 151.687 332.485,152.439 327.400,153.006 323.000 C 153.572 318.600,154.112 314.730,154.205 314.400 C 154.409 313.680,155.998 302.968,157.617 291.400 C 158.263 286.780,159.064 281.380,159.396 279.400 C 161.084 269.330,163.966 251.232,164.076 250.019 L 164.200 248.639 169.400 246.946 C 175.490 244.963,177.149 244.800,177.989 246.100 C 178.898 247.509,180.332 250.622,182.241 255.337 C 183.207 257.722,184.322 260.152,184.719 260.737 C 185.115 261.322,186.130 263.240,186.974 265.000 C 191.381 274.190,206.551 304.289,209.351 309.400 C 209.713 310.060,210.783 312.220,211.729 314.200 C 213.558 318.029,216.250 323.084,216.883 323.880 C 217.093 324.144,218.735 327.294,220.532 330.880 L 223.800 337.400 255.400 337.654 C 272.780 337.793,287.405 337.819,287.900 337.710 C 289.162 337.434,289.055 336.960,286.876 333.157 C 285.819 331.311,284.180 328.270,283.235 326.400 C 281.109 322.192,278.227 316.694,276.210 313.000 C 274.512 309.889,272.746 306.574,269.603 300.600 C 268.446 298.400,266.105 293.990,264.402 290.800 C 262.698 287.610,260.174 282.840,258.792 280.200 C 257.410 277.560,255.611 274.140,254.794 272.600 C 249.797 263.182,248.399 260.503,239.864 244.000 C 237.304 239.050,234.939 234.550,234.609 234.000 C 234.279 233.450,232.095 229.220,229.757 224.600 C 227.418 219.980,225.364 216.020,225.193 215.800 C 225.022 215.580,222.684 211.080,219.997 205.800 C 215.596 197.153,214.697 195.627,213.989 195.606 C 213.872 195.603,208.562 200.792,202.189 207.138 M218.799 204.500 C 221.050 208.955,223.388 213.500,223.994 214.600 C 225.402 217.155,227.858 221.884,240.605 246.583 C 241.746 248.792,243.771 252.670,245.106 255.200 C 246.442 257.730,248.830 262.320,250.415 265.400 C 251.999 268.480,253.431 271.180,253.596 271.400 C 253.761 271.620,255.745 275.400,258.006 279.800 C 260.266 284.200,262.253 287.980,262.419 288.200 C 262.706 288.578,267.735 298.036,272.097 306.400 C 273.187 308.490,274.214 310.380,274.380 310.600 C 274.704 311.029,277.873 317.031,282.336 325.666 C 285.374 331.543,287.035 334.588,287.859 335.789 C 288.156 336.223,288.400 336.718,288.400 336.889 C 288.400 337.060,273.940 337.200,256.266 337.200 L 224.132 337.200 221.250 331.300 C 219.665 328.055,218.203 325.130,218.000 324.800 C 217.797 324.470,216.817 322.760,215.821 321.000 C 214.825 319.240,213.749 317.350,213.431 316.800 C 213.113 316.250,212.265 314.450,211.548 312.800 C 210.831 311.150,209.944 309.350,209.576 308.800 C 209.209 308.250,208.145 306.270,207.212 304.400 C 206.279 302.530,205.262 300.550,204.951 300.000 C 202.817 296.215,182.905 255.722,181.402 252.109 C 178.684 245.580,178.219 244.994,175.777 245.024 C 172.772 245.061,164.016 247.975,163.828 249.000 C 163.678 249.817,162.892 254.568,161.842 261.000 C 161.518 262.980,160.971 266.310,160.625 268.400 C 159.716 273.893,157.754 287.020,157.007 292.600 C 156.653 295.240,156.113 298.840,155.806 300.600 C 155.499 302.360,155.133 304.880,154.993 306.200 C 154.853 307.520,154.584 309.320,154.394 310.200 C 154.056 311.769,153.468 315.818,152.188 325.400 C 151.835 328.040,151.258 331.775,150.905 333.700 L 150.264 337.200 123.527 337.200 L 96.791 337.200 96.980 335.700 C 97.085 334.875,97.268 333.210,97.387 332.000 C 97.506 330.790,98.048 326.830,98.592 323.200 C 99.136 319.570,100.129 312.820,100.800 308.200 C 102.165 298.790,102.955 293.502,103.791 288.200 C 104.103 286.220,104.638 282.710,104.981 280.400 C 105.953 273.839,106.853 267.951,107.150 266.200 C 107.389 264.792,107.563 264.586,108.611 264.482 C 109.867 264.357,114.470 263.313,119.800 261.943 C 129.433 259.469,141.140 254.774,149.000 250.235 C 150.320 249.472,151.940 248.549,152.600 248.183 C 157.005 245.741,168.320 238.120,172.400 234.847 C 184.631 225.039,188.616 221.395,203.402 206.500 C 208.917 200.945,213.716 196.400,214.067 196.400 C 214.496 196.400,216.049 199.059,218.799 204.500 " stroke="none" fill="#5a4c23" fill-rule="evenodd"></path><path id="path4" d="M135.423 67.689 C 135.080 68.178,134.818 69.033,134.841 69.589 C 134.876 70.445,134.930 70.395,135.198 69.263 C 135.660 67.308,135.819 67.242,140.405 67.099 L 144.600 66.969 140.323 66.884 C 136.307 66.805,136.007 66.854,135.423 67.689 M187.600 67.173 L 192.200 67.400 192.453 69.200 L 192.706 71.000 192.653 69.000 L 192.600 67.000 187.800 66.973 L 183.000 66.946 187.600 67.173 M309.105 67.083 C 309.602 67.179,310.322 67.175,310.705 67.075 C 311.087 66.975,310.680 66.896,309.800 66.901 C 308.920 66.905,308.607 66.987,309.105 67.083 M154.127 67.500 C 158.927 67.564,166.667 67.563,171.327 67.499 C 175.987 67.436,172.060 67.383,162.600 67.383 C 153.140 67.383,149.327 67.436,154.127 67.500 M257.200 67.606 C 256.778 67.882,257.015 67.923,258.000 67.742 C 259.725 67.425,260.051 67.198,258.767 67.206 C 258.235 67.209,257.530 67.389,257.200 67.606 M312.309 72.277 C 309.786 76.530,309.195 77.650,309.607 77.396 C 309.831 77.257,310.445 76.301,310.970 75.272 C 311.495 74.242,312.401 72.704,312.982 71.853 C 313.564 71.002,313.960 70.227,313.863 70.130 C 313.766 70.033,313.066 70.999,312.309 72.277 M254.000 70.728 C 254.000 70.908,253.328 71.853,252.506 72.828 C 251.684 73.803,251.331 74.347,251.721 74.038 C 252.872 73.127,254.905 70.400,254.434 70.400 C 254.195 70.400,254.000 70.548,254.000 70.728 M248.578 77.900 C 247.294 79.605,246.077 81.225,245.873 81.500 C 245.669 81.775,245.597 82.000,245.714 82.000 C 245.830 82.000,246.552 81.145,247.318 80.100 C 248.084 79.055,249.287 77.435,249.990 76.500 C 250.694 75.565,251.189 74.800,251.090 74.800 C 250.992 74.800,249.861 76.195,248.578 77.900 M133.293 78.000 C 133.293 78.770,133.375 79.085,133.476 78.700 C 133.576 78.315,133.576 77.685,133.476 77.300 C 133.375 76.915,133.293 77.230,133.293 78.000 M191.293 78.000 C 191.293 78.770,191.375 79.085,191.476 78.700 C 191.576 78.315,191.576 77.685,191.476 77.300 C 191.375 76.915,191.293 77.230,191.293 78.000 M305.846 83.000 C 305.491 83.550,304.909 84.495,304.553 85.100 L 303.905 86.200 304.710 85.226 C 305.660 84.076,306.921 82.000,306.669 82.000 C 306.571 82.000,306.201 82.450,305.846 83.000 M242.784 85.500 C 241.384 87.151,238.369 91.200,238.540 91.200 C 238.727 91.200,242.717 86.288,243.320 85.316 C 243.778 84.577,243.480 84.679,242.784 85.500 M132.101 86.600 C 132.105 87.480,132.187 87.793,132.283 87.295 C 132.379 86.798,132.375 86.078,132.275 85.695 C 132.175 85.313,132.096 85.720,132.101 86.600 M303.353 86.900 C 301.976 89.236,301.886 89.435,302.587 88.600 C 303.400 87.632,304.100 86.400,303.838 86.400 C 303.733 86.400,303.515 86.625,303.353 86.900 M301.302 90.100 C 300.736 90.815,299.940 92.400,300.146 92.400 C 300.242 92.400,300.693 91.770,301.147 91.000 C 301.973 89.601,302.049 89.157,301.302 90.100 M131.293 91.600 C 131.293 92.370,131.375 92.685,131.476 92.300 C 131.576 91.915,131.576 91.285,131.476 90.900 C 131.375 90.515,131.293 90.830,131.293 91.600 M188.901 93.000 C 188.905 93.880,188.987 94.193,189.083 93.695 C 189.179 93.198,189.175 92.478,189.075 92.095 C 188.975 91.713,188.896 92.120,188.901 93.000 M299.137 93.500 C 298.324 94.469,297.143 96.400,297.362 96.400 C 297.462 96.400,298.090 95.590,298.758 94.600 C 300.007 92.750,300.174 92.263,299.137 93.500 M294.784 99.700 C 293.639 101.295,293.055 102.240,293.486 101.800 C 294.484 100.781,297.334 96.800,297.066 96.800 C 296.955 96.800,295.928 98.105,294.784 99.700 M130.101 100.200 C 130.105 101.080,130.187 101.393,130.283 100.895 C 130.379 100.398,130.375 99.678,130.275 99.295 C 130.175 98.913,130.096 99.320,130.101 100.200 M187.693 100.400 C 187.693 101.170,187.775 101.485,187.876 101.100 C 187.976 100.715,187.976 100.085,187.876 99.700 C 187.775 99.315,187.693 99.630,187.693 100.400 M230.093 102.300 C 229.057 103.796,228.721 104.400,228.923 104.400 C 229.017 104.400,229.570 103.680,230.153 102.800 C 231.336 101.012,231.284 100.579,230.093 102.300 M290.156 105.700 C 288.821 107.295,287.234 109.185,286.629 109.900 C 286.024 110.615,285.612 111.200,285.714 111.200 C 285.816 111.200,287.229 109.625,288.855 107.700 C 292.335 103.579,292.952 102.800,292.740 102.800 C 292.653 102.800,291.490 104.105,290.156 105.700 M227.375 106.100 L 226.200 107.400 227.500 106.225 C 228.215 105.579,228.800 104.994,228.800 104.925 C 228.800 104.616,228.470 104.888,227.375 106.100 M129.000 106.800 C 128.846 107.710,128.804 108.538,128.907 108.640 C 129.010 108.743,129.213 108.077,129.360 107.160 C 129.507 106.243,129.548 105.415,129.453 105.320 C 129.358 105.224,129.154 105.890,129.000 106.800 M186.493 108.400 C 186.493 109.170,186.575 109.485,186.676 109.100 C 186.776 108.715,186.776 108.085,186.676 107.700 C 186.575 107.315,186.493 107.630,186.493 108.400 M128.501 110.600 C 128.505 111.480,128.587 111.793,128.683 111.295 C 128.779 110.798,128.775 110.078,128.675 109.695 C 128.575 109.313,128.496 109.720,128.501 110.600 M185.693 112.800 C 185.693 113.570,185.775 113.885,185.876 113.500 C 185.976 113.115,185.976 112.485,185.876 112.100 C 185.775 111.715,185.693 112.030,185.693 112.800 M185.029 116.829 C 184.876 118.179,184.833 119.366,184.933 119.467 C 185.034 119.567,185.244 118.547,185.400 117.200 C 185.556 115.853,185.599 114.666,185.495 114.562 C 185.391 114.458,185.181 115.478,185.029 116.829 M220.111 115.300 C 219.329 116.311,219.063 116.932,219.536 116.640 C 220.010 116.347,220.957 114.800,220.663 114.800 C 220.572 114.800,220.324 115.025,220.111 115.300 M127.709 117.200 C 127.709 118.190,127.787 118.595,127.882 118.100 C 127.978 117.605,127.978 116.795,127.882 116.300 C 127.787 115.805,127.709 116.210,127.709 117.200 M213.808 123.900 C 212.949 124.945,212.660 125.440,213.166 125.000 C 214.061 124.222,215.798 122.000,215.512 122.000 C 215.434 122.000,214.667 122.855,213.808 123.900 M184.093 123.600 C 184.093 124.370,184.175 124.685,184.276 124.300 C 184.376 123.915,184.376 123.285,184.276 122.900 C 184.175 122.515,184.093 122.830,184.093 123.600 M126.101 127.000 C 126.105 127.880,126.187 128.193,126.283 127.695 C 126.379 127.198,126.375 126.478,126.275 126.095 C 126.175 125.713,126.096 126.120,126.101 127.000 M183.456 126.484 C 183.321 126.988,183.227 127.760,183.246 128.200 C 183.265 128.640,183.445 128.298,183.646 127.440 C 184.036 125.778,183.870 124.940,183.456 126.484 M210.784 127.886 C 210.084 128.923,209.792 129.539,210.135 129.254 C 210.763 128.733,212.510 126.000,212.215 126.000 C 212.128 126.000,211.484 126.849,210.784 127.886 M208.000 131.700 C 206.336 133.821,205.905 134.564,207.120 133.219 C 208.277 131.939,209.707 130.000,209.494 130.000 C 209.406 130.000,208.734 130.765,208.000 131.700 M124.914 135.800 C 124.917 136.900,124.995 137.303,125.087 136.695 C 125.179 136.086,125.177 135.186,125.082 134.695 C 124.987 134.203,124.911 134.700,124.914 135.800 M182.093 135.200 C 182.093 135.970,182.175 136.285,182.276 135.900 C 182.376 135.515,182.376 134.885,182.276 134.500 C 182.175 134.115,182.093 134.430,182.093 135.200 M204.541 136.300 C 203.133 138.072,202.352 139.447,203.577 138.000 C 204.841 136.506,206.076 134.800,205.894 134.800 C 205.806 134.800,205.197 135.475,204.541 136.300 M181.693 138.000 C 181.693 138.770,181.775 139.085,181.876 138.700 C 181.976 138.315,181.976 137.685,181.876 137.300 C 181.775 136.915,181.693 137.230,181.693 138.000 M199.568 143.100 C 198.617 144.365,197.578 145.715,197.258 146.100 C 196.938 146.485,196.781 146.800,196.909 146.800 C 197.038 146.800,197.990 145.675,199.025 144.300 C 200.061 142.925,201.086 141.575,201.303 141.300 C 201.520 141.025,201.608 140.800,201.498 140.800 C 201.387 140.800,200.519 141.835,199.568 143.100 M193.999 150.500 C 193.410 151.304,193.313 151.584,193.745 151.233 C 194.401 150.700,195.393 149.200,195.089 149.200 C 195.013 149.200,194.522 149.785,193.999 150.500 M179.293 152.800 C 179.293 153.570,179.375 153.885,179.476 153.500 C 179.576 153.115,179.576 152.485,179.476 152.100 C 179.375 151.715,179.293 152.030,179.293 152.800 M122.454 152.800 C 122.419 153.350,122.296 154.250,122.183 154.800 L 121.977 155.800 122.407 154.815 C 122.643 154.274,122.765 153.374,122.678 152.815 L 122.520 151.800 122.454 152.800 M192.150 153.100 C 190.967 154.725,190.602 155.552,191.577 154.400 C 192.478 153.334,193.319 152.000,193.089 152.000 C 193.013 152.000,192.590 152.495,192.150 153.100 M121.693 157.200 C 121.693 157.970,121.775 158.285,121.876 157.900 C 121.976 157.515,121.976 156.885,121.876 156.500 C 121.775 156.115,121.693 156.430,121.693 157.200 M186.909 160.100 L 184.559 163.000 180.980 163.224 L 177.400 163.449 180.822 163.524 C 184.208 163.599,184.255 163.587,185.443 162.300 C 187.084 160.523,189.698 157.200,189.456 157.200 C 189.347 157.200,188.201 158.505,186.909 160.100 M121.293 160.400 C 121.293 161.170,121.375 161.485,121.476 161.100 C 121.576 160.715,121.576 160.085,121.476 159.700 C 121.375 159.315,121.293 159.630,121.293 160.400 M119.800 170.000 C 119.645 171.128,119.602 172.136,119.706 172.239 C 119.809 172.342,120.016 171.500,120.167 170.367 C 120.317 169.234,120.359 168.226,120.261 168.128 C 120.163 168.029,119.955 168.872,119.800 170.000 M119.293 174.000 C 119.293 174.770,119.375 175.085,119.476 174.700 C 119.576 174.315,119.576 173.685,119.476 173.300 C 119.375 172.915,119.293 173.230,119.293 174.000 M118.893 176.800 C 118.893 177.570,118.975 177.885,119.076 177.500 C 119.176 177.115,119.176 176.485,119.076 176.100 C 118.975 175.715,118.893 176.030,118.893 176.800 M118.114 182.600 C 118.117 183.700,118.195 184.103,118.287 183.495 C 118.379 182.886,118.377 181.986,118.282 181.495 C 118.187 181.003,118.111 181.500,118.114 182.600 M116.893 190.800 C 116.893 191.570,116.975 191.885,117.076 191.500 C 117.176 191.115,117.176 190.485,117.076 190.100 C 116.975 189.715,116.893 190.030,116.893 190.800 M216.634 199.211 C 217.446 200.757,218.173 201.961,218.248 201.885 C 218.422 201.712,215.616 196.400,215.351 196.400 C 215.244 196.400,215.821 197.665,216.634 199.211 M115.701 199.000 C 115.705 199.880,115.787 200.193,115.883 199.695 C 115.979 199.198,115.975 198.478,115.875 198.095 C 115.775 197.713,115.696 198.120,115.701 199.000 M115.293 202.000 C 115.293 202.770,115.375 203.085,115.476 202.700 C 115.576 202.315,115.576 201.685,115.476 201.300 C 115.375 200.915,115.293 201.230,115.293 202.000 M114.501 207.400 C 114.505 208.280,114.587 208.593,114.683 208.095 C 114.779 207.598,114.775 206.878,114.675 206.495 C 114.575 206.113,114.496 206.520,114.501 207.400 M224.640 214.802 C 225.239 215.903,225.793 216.740,225.871 216.663 C 226.043 216.490,224.008 212.800,223.741 212.800 C 223.636 212.800,224.040 213.701,224.640 214.802 M229.200 223.600 C 229.649 224.480,230.106 225.200,230.216 225.200 C 230.326 225.200,230.049 224.480,229.600 223.600 C 229.151 222.720,228.694 222.000,228.584 222.000 C 228.474 222.000,228.751 222.720,229.200 223.600 M230.400 225.747 C 230.400 226.180,232.388 230.000,232.613 230.000 C 232.723 230.000,232.339 229.055,231.759 227.900 C 230.643 225.679,230.400 225.294,230.400 225.747 M240.083 244.587 C 240.785 246.010,241.425 247.108,241.506 247.028 C 241.685 246.849,239.266 242.000,238.998 242.000 C 238.893 242.000,239.382 243.164,240.083 244.587 M173.800 245.596 C 173.302 245.808,173.831 245.851,175.200 245.712 C 176.410 245.589,177.475 245.423,177.567 245.344 C 177.911 245.047,174.567 245.270,173.800 245.596 M170.600 246.614 C 169.600 247.096,169.566 247.151,170.400 246.948 C 171.533 246.671,172.807 246.021,172.200 246.030 C 171.980 246.033,171.260 246.296,170.600 246.614 M166.800 247.800 C 166.030 248.097,165.670 248.345,166.000 248.352 C 166.330 248.358,167.140 248.117,167.800 247.814 C 169.345 247.107,168.626 247.097,166.800 247.800 M164.159 248.962 C 164.041 249.271,164.007 250.126,164.083 250.862 C 164.206 252.035,164.247 251.966,164.415 250.300 C 164.611 248.352,164.539 247.974,164.159 248.962 M243.441 251.000 C 244.041 252.100,244.702 253.180,244.910 253.400 C 245.503 254.027,243.741 250.695,243.006 249.800 C 242.645 249.360,242.841 249.900,243.441 251.000 M180.028 250.600 C 180.028 250.820,180.286 251.450,180.600 252.000 C 180.914 252.550,181.172 252.820,181.172 252.600 C 181.172 252.380,180.914 251.750,180.600 251.200 C 180.286 250.650,180.028 250.380,180.028 250.600 M182.428 256.600 C 182.428 256.820,182.686 257.450,183.000 258.000 C 183.314 258.550,183.572 258.820,183.572 258.600 C 183.572 258.380,183.314 257.750,183.000 257.200 C 182.686 256.650,182.428 256.380,182.428 256.600 M247.201 258.106 C 247.200 258.503,249.623 262.800,249.848 262.800 C 249.943 262.800,249.730 262.238,249.375 261.552 C 248.387 259.640,247.203 257.764,247.201 258.106 M186.007 263.746 C 185.997 264.214,188.094 268.040,188.266 267.868 C 188.341 267.793,187.865 266.757,187.208 265.566 C 186.552 264.375,186.011 263.556,186.007 263.746 M106.649 264.615 C 106.512 264.973,106.415 265.566,106.434 265.933 C 106.453 266.300,106.627 266.069,106.821 265.420 C 107.198 264.158,107.065 263.533,106.649 264.615 M106.101 268.200 C 106.105 269.080,106.187 269.393,106.283 268.895 C 106.379 268.398,106.375 267.678,106.275 267.295 C 106.175 266.913,106.096 267.320,106.101 268.200 M253.960 271.000 C 254.634 272.305,255.188 273.028,255.185 272.600 C 255.183 272.380,254.814 271.750,254.364 271.200 C 253.821 270.536,253.685 270.469,253.960 271.000 M160.493 272.800 C 160.493 273.570,160.575 273.885,160.676 273.500 C 160.776 273.115,160.776 272.485,160.676 272.100 C 160.575 271.715,160.493 272.030,160.493 272.800 M190.828 273.400 C 190.828 273.620,191.086 274.250,191.400 274.800 C 191.714 275.350,191.972 275.620,191.972 275.400 C 191.972 275.180,191.714 274.550,191.400 274.000 C 191.086 273.450,190.828 273.180,190.828 273.400 M255.612 274.059 C 255.606 274.202,256.048 275.102,256.595 276.059 C 257.143 277.017,257.592 277.620,257.593 277.400 C 257.596 276.957,255.632 273.645,255.612 274.059 M104.909 276.000 C 104.909 276.990,104.987 277.395,105.082 276.900 C 105.178 276.405,105.178 275.595,105.082 275.100 C 104.987 274.605,104.909 275.010,104.909 276.000 M160.093 275.600 C 160.093 276.370,160.175 276.685,160.276 276.300 C 160.376 275.915,160.376 275.285,160.276 274.900 C 160.175 274.515,160.093 274.830,160.093 275.600 M192.881 277.791 C 193.359 278.776,193.819 279.514,193.903 279.430 C 194.084 279.249,192.468 276.000,192.197 276.000 C 192.094 276.000,192.402 276.806,192.881 277.791 M158.893 282.800 C 158.893 283.570,158.975 283.885,159.076 283.500 C 159.176 283.115,159.176 282.485,159.076 282.100 C 158.975 281.715,158.893 282.030,158.893 282.800 M103.701 284.200 C 103.705 285.080,103.787 285.393,103.883 284.895 C 103.979 284.398,103.975 283.678,103.875 283.295 C 103.775 282.913,103.696 283.320,103.701 284.200 M195.606 283.250 C 195.597 283.605,197.633 287.200,197.842 287.200 C 197.938 287.200,197.660 286.525,197.224 285.700 C 196.278 283.911,195.615 282.906,195.606 283.250 M103.018 287.818 C 102.865 288.839,102.822 289.755,102.922 289.855 C 103.022 289.955,103.229 289.202,103.382 288.182 C 103.535 287.161,103.578 286.245,103.478 286.145 C 103.378 286.045,103.171 286.798,103.018 287.818 M263.055 288.200 C 263.980 289.779,264.000 289.803,264.000 289.311 C 264.000 289.079,263.629 288.464,263.176 287.944 L 262.353 287.000 263.055 288.200 M158.093 288.800 C 158.093 289.570,158.175 289.885,158.276 289.500 C 158.376 289.115,158.376 288.485,158.276 288.100 C 158.175 287.715,158.093 288.030,158.093 288.800 M198.000 287.749 C 198.000 288.181,199.589 291.200,199.816 291.200 C 199.926 291.200,199.630 290.435,199.159 289.500 C 198.232 287.661,198.000 287.311,198.000 287.749 M102.501 291.800 C 102.505 292.680,102.587 292.993,102.683 292.495 C 102.779 291.998,102.775 291.278,102.675 290.895 C 102.575 290.513,102.496 290.920,102.501 291.800 M157.693 291.600 C 157.693 292.370,157.775 292.685,157.876 292.300 C 157.976 291.915,157.976 291.285,157.876 290.900 C 157.775 290.515,157.693 290.830,157.693 291.600 M265.000 292.000 C 265.341 292.660,265.711 293.200,265.821 293.200 C 265.931 293.200,265.741 292.660,265.400 292.000 C 265.059 291.340,264.689 290.800,264.579 290.800 C 264.469 290.800,264.659 291.340,265.000 292.000 M101.818 295.418 C 101.665 296.439,101.622 297.355,101.722 297.455 C 101.822 297.555,102.029 296.802,102.182 295.782 C 102.335 294.761,102.378 293.845,102.278 293.745 C 102.178 293.645,101.971 294.398,101.818 295.418 M201.882 295.789 C 202.473 296.993,203.023 297.911,203.105 297.829 C 203.284 297.649,201.267 293.600,200.998 293.600 C 200.894 293.600,201.292 294.585,201.882 295.789 M267.482 296.589 C 268.073 297.793,268.623 298.711,268.705 298.629 C 268.884 298.449,266.867 294.400,266.598 294.400 C 266.494 294.400,266.892 295.385,267.482 296.589 M156.901 297.400 C 156.905 298.280,156.987 298.593,157.083 298.095 C 157.179 297.598,157.175 296.878,157.075 296.495 C 156.975 296.113,156.896 296.520,156.901 297.400 M204.616 301.000 C 204.978 301.880,205.447 302.780,205.658 303.000 C 205.869 303.220,205.746 302.680,205.384 301.800 C 205.022 300.920,204.553 300.020,204.342 299.800 C 204.131 299.580,204.254 300.120,204.616 301.000 M206.000 303.720 C 206.000 304.150,208.851 309.184,209.225 309.416 C 209.420 309.536,208.840 308.321,207.938 306.717 C 206.198 303.625,206.000 303.318,206.000 303.720 M100.493 305.200 C 100.493 305.970,100.575 306.285,100.676 305.900 C 100.776 305.515,100.776 304.885,100.676 304.500 C 100.575 304.115,100.493 304.430,100.493 305.200 M155.693 305.200 C 155.693 305.970,155.775 306.285,155.876 305.900 C 155.976 305.515,155.976 304.885,155.876 304.500 C 155.775 304.115,155.693 304.430,155.693 305.200 M155.260 307.650 C 155.227 308.228,155.111 309.308,155.001 310.050 L 154.803 311.400 155.224 310.057 C 155.455 309.319,155.572 308.239,155.482 307.657 L 155.320 306.600 155.260 307.650 M99.693 310.400 C 99.693 311.170,99.775 311.485,99.876 311.100 C 99.976 310.715,99.976 310.085,99.876 309.700 C 99.775 309.315,99.693 309.630,99.693 310.400 M153.833 316.433 C 153.683 317.566,153.641 318.574,153.739 318.672 C 153.837 318.771,154.045 317.928,154.200 316.800 C 154.355 315.672,154.398 314.664,154.294 314.561 C 154.191 314.458,153.984 315.300,153.833 316.433 M98.909 316.400 C 98.909 317.390,98.987 317.795,99.082 317.300 C 99.178 316.805,99.178 315.995,99.082 315.500 C 98.987 315.005,98.909 315.410,98.909 316.400 M212.025 315.656 C 212.011 316.016,212.315 316.655,212.700 317.075 C 213.085 317.494,213.272 317.640,213.116 317.397 C 212.960 317.155,212.656 316.517,212.441 315.978 C 212.194 315.360,212.041 315.241,212.025 315.656 M98.233 320.433 C 98.083 321.566,98.041 322.574,98.139 322.672 C 98.237 322.771,98.445 321.928,98.600 320.800 C 98.755 319.672,98.798 318.664,98.694 318.561 C 98.591 318.458,98.384 319.300,98.233 320.433 M153.301 321.400 C 153.305 322.280,153.387 322.593,153.483 322.095 C 153.579 321.598,153.575 320.878,153.475 320.495 C 153.375 320.113,153.296 320.520,153.301 321.400 M152.893 324.400 C 152.893 325.170,152.975 325.485,153.076 325.100 C 153.176 324.715,153.176 324.085,153.076 323.700 C 152.975 323.315,152.893 323.630,152.893 324.400 M282.028 323.800 C 282.028 324.020,282.286 324.650,282.600 325.200 C 282.914 325.750,283.172 326.020,283.172 325.800 C 283.172 325.580,282.914 324.950,282.600 324.400 C 282.286 323.850,282.028 323.580,282.028 323.800 M97.046 327.846 C 96.900 329.093,96.859 330.193,96.957 330.290 C 97.054 330.388,97.261 329.454,97.415 328.215 C 97.570 326.977,97.610 325.877,97.505 325.771 C 97.399 325.666,97.193 326.599,97.046 327.846 M152.493 327.200 C 152.493 327.970,152.575 328.285,152.676 327.900 C 152.776 327.515,152.776 326.885,152.676 326.500 C 152.575 326.115,152.493 326.430,152.493 327.200 M152.093 330.400 C 152.093 331.170,152.175 331.485,152.276 331.100 C 152.376 330.715,152.376 330.085,152.276 329.700 C 152.175 329.315,152.093 329.630,152.093 330.400 M286.400 332.400 C 286.849 333.280,287.306 334.000,287.416 334.000 C 287.526 334.000,287.249 333.280,286.800 332.400 C 286.351 331.520,285.894 330.800,285.784 330.800 C 285.674 330.800,285.951 331.520,286.400 332.400 M96.287 334.700 C 96.164 336.185,96.195 337.536,96.355 337.703 C 96.515 337.869,108.875 337.959,123.823 337.903 L 151.000 337.800 151.053 336.894 C 151.097 336.140,151.076 336.123,150.925 336.794 C 150.746 337.592,150.487 337.600,123.595 337.600 L 96.447 337.600 96.681 334.800 C 96.810 333.260,96.825 332.000,96.713 332.000 C 96.601 332.000,96.409 333.215,96.287 334.700 M151.649 332.600 C 151.616 333.040,151.496 333.850,151.383 334.400 L 151.177 335.400 151.606 334.419 C 151.842 333.879,151.961 333.069,151.872 332.619 C 151.713 331.821,151.707 331.821,151.649 332.600 M222.800 336.249 C 222.800 338.015,222.747 338.012,250.035 337.900 L 275.800 337.794 249.923 337.697 L 224.045 337.600 223.423 336.711 C 223.080 336.222,222.800 336.014,222.800 336.249 " stroke="none" fill="#3c3418" fill-rule="evenodd"></path></g></svg>