<svg id="svg" version="1.1" xmlns="http://www.w3.org/2000/svg" xmlns:xlink="http://www.w3.org/1999/xlink" width="400" height="253.125" viewBox="0, 0, 400,253.125"><g id="svgg"><path id="path0" d="M35.443 38.481 L 35.443 76.962 17.722 76.962 L 0.000 76.962 0.000 119.873 L 0.000 162.785 27.089 162.785 L 54.177 162.785 54.177 164.304 L 54.177 165.823 44.177 165.823 L 34.177 165.823 34.177 203.418 L 34.177 241.013 100.886 241.013 L 167.595 241.013 167.595 221.859 C 167.595 202.722,167.595 202.707,168.101 203.165 C 168.380 203.417,168.608 203.755,168.608 203.916 C 168.608 204.077,168.816 204.432,169.070 204.705 C 169.325 204.978,169.745 205.683,170.005 206.272 C 170.265 206.860,170.568 207.342,170.678 207.342 C 170.789 207.342,171.054 207.712,171.267 208.165 C 171.481 208.617,172.046 209.614,172.524 210.380 C 173.001 211.146,173.641 212.228,173.945 212.785 C 174.250 213.342,174.581 213.854,174.682 213.924 C 174.783 213.994,175.054 214.418,175.284 214.866 C 175.666 215.612,176.675 217.227,177.148 217.850 C 177.255 217.990,177.620 218.616,177.961 219.242 C 178.301 219.868,178.728 220.530,178.910 220.714 C 179.092 220.898,179.241 221.163,179.241 221.302 C 179.241 221.441,179.582 222.051,180.000 222.658 C 180.418 223.265,180.759 223.870,180.759 224.002 C 180.759 224.134,180.932 224.385,181.144 224.561 C 181.355 224.736,181.722 225.291,181.958 225.794 C 182.195 226.297,182.592 226.930,182.840 227.200 C 183.088 227.470,183.291 227.791,183.291 227.914 C 183.291 228.036,183.617 228.613,184.016 229.195 C 184.415 229.777,184.821 230.509,184.919 230.823 C 185.017 231.136,185.202 231.392,185.330 231.392 C 185.458 231.392,185.728 231.789,185.931 232.273 C 186.133 232.757,186.428 233.298,186.586 233.475 C 186.897 233.823,187.744 235.218,188.628 236.835 C 188.933 237.392,189.265 237.905,189.366 237.975 C 189.467 238.044,189.738 238.468,189.968 238.917 C 190.374 239.710,191.429 241.387,191.844 241.899 C 191.956 242.038,192.310 242.693,192.629 243.354 C 192.948 244.016,193.306 244.557,193.423 244.557 C 193.541 244.557,193.717 244.813,193.815 245.127 C 193.913 245.440,194.320 246.172,194.718 246.754 C 195.117 247.337,195.443 247.872,195.443 247.944 C 195.443 248.017,195.785 248.582,196.203 249.201 C 196.620 249.820,196.962 250.452,196.962 250.606 C 196.962 250.760,197.063 250.886,197.187 250.886 C 197.311 250.886,197.654 251.399,197.948 252.025 C 198.756 253.744,199.496 253.535,200.633 251.264 C 200.911 250.708,201.269 250.139,201.428 250.000 C 201.586 249.861,201.924 249.291,202.179 248.734 C 202.433 248.177,202.845 247.501,203.093 247.231 C 203.341 246.961,203.544 246.653,203.544 246.547 C 203.544 246.441,203.886 245.848,204.304 245.229 C 204.722 244.610,205.063 243.978,205.063 243.824 C 205.063 243.670,205.155 243.544,205.266 243.544 C 205.378 243.544,205.723 243.060,206.035 242.468 C 206.795 241.022,207.749 239.436,208.082 239.061 C 208.232 238.893,208.354 238.682,208.354 238.592 C 208.354 238.502,208.696 237.921,209.114 237.303 C 209.532 236.684,209.873 236.121,209.873 236.053 C 209.873 235.985,210.272 235.337,210.759 234.614 C 211.247 233.890,211.646 233.154,211.646 232.978 C 211.646 232.802,211.737 232.658,211.849 232.658 C 211.961 232.658,212.331 232.090,212.672 231.396 C 213.012 230.702,213.359 230.133,213.443 230.131 C 213.526 230.128,213.799 229.671,214.051 229.114 C 214.302 228.557,214.587 228.101,214.684 228.101 C 214.780 228.101,215.065 227.646,215.316 227.089 C 215.568 226.532,215.850 226.076,215.945 226.076 C 216.039 226.076,216.383 225.506,216.709 224.810 C 217.035 224.114,217.374 223.544,217.463 223.544 C 217.552 223.544,217.825 223.089,218.071 222.532 C 218.317 221.975,218.600 221.519,218.701 221.519 C 218.801 221.519,219.095 221.006,219.353 220.380 C 219.612 219.753,219.918 219.241,220.035 219.241 C 220.151 219.241,220.421 218.870,220.634 218.418 C 220.848 217.965,221.415 216.968,221.895 216.203 C 222.375 215.437,223.022 214.326,223.333 213.734 C 223.644 213.142,223.972 212.658,224.063 212.658 C 224.153 212.658,224.444 212.175,224.708 211.584 C 224.973 210.994,225.389 210.310,225.633 210.065 C 225.877 209.821,226.076 209.463,226.076 209.272 C 226.076 209.080,226.252 208.776,226.468 208.597 C 226.684 208.418,227.077 207.796,227.342 207.215 C 227.606 206.634,228.000 206.012,228.215 205.833 C 228.431 205.654,228.608 205.400,228.608 205.268 C 228.608 205.136,228.932 204.552,229.330 203.970 C 229.727 203.388,230.116 202.741,230.196 202.532 C 230.275 202.323,230.349 210.896,230.360 221.582 L 230.380 241.013 297.089 241.013 L 363.797 241.013 363.797 203.418 L 363.797 165.823 353.797 165.823 L 343.797 165.823 343.797 164.304 L 343.797 162.785 371.013 162.785 L 398.228 162.785 398.228 119.873 L 398.228 76.962 391.434 76.962 C 387.697 76.962,379.666 76.887,373.586 76.794 L 362.532 76.626 362.532 38.313 L 362.532 0.000 302.118 0.000 L 241.705 0.000 241.236 0.540 C 240.979 0.838,240.629 1.464,240.460 1.933 C 240.290 2.401,240.061 2.785,239.951 2.785 C 239.841 2.785,239.551 3.168,239.306 3.637 C 238.094 5.957,237.387 7.227,237.243 7.342 C 237.155 7.411,236.857 7.924,236.580 8.481 C 236.303 9.038,235.939 9.608,235.771 9.747 C 235.603 9.886,235.343 10.285,235.192 10.633 C 235.042 10.981,234.533 11.892,234.061 12.658 C 233.589 13.424,232.938 14.563,232.615 15.190 C 232.291 15.816,231.956 16.386,231.870 16.456 C 231.784 16.525,231.442 17.076,231.110 17.680 C 229.881 19.915,229.681 20.255,229.381 20.616 C 229.074 20.986,228.404 22.172,227.299 24.304 C 226.975 24.930,226.602 25.520,226.471 25.614 C 226.340 25.709,226.055 26.121,225.838 26.530 C 224.727 28.625,224.213 29.494,223.895 29.812 C 223.702 30.005,223.544 30.253,223.544 30.364 C 223.544 30.632,221.483 34.216,221.096 34.622 C 220.929 34.797,220.715 35.195,220.620 35.508 C 220.526 35.820,220.250 36.304,220.007 36.582 C 219.764 36.861,219.408 37.459,219.215 37.911 C 219.022 38.364,218.797 38.734,218.716 38.734 C 218.634 38.734,218.293 39.332,217.957 40.063 C 217.622 40.794,217.239 41.469,217.106 41.564 C 216.974 41.658,216.688 42.070,216.471 42.480 C 215.360 44.574,214.846 45.444,214.528 45.762 C 214.335 45.954,214.177 46.220,214.177 46.351 C 214.177 46.483,213.803 47.186,213.346 47.915 C 212.184 49.767,211.977 50.116,211.361 51.266 C 211.062 51.823,210.739 52.335,210.642 52.405 C 210.546 52.475,210.293 52.873,210.080 53.291 C 209.868 53.709,209.260 54.791,208.730 55.696 C 208.200 56.601,207.562 57.726,207.312 58.195 C 207.063 58.664,206.707 59.234,206.520 59.461 C 206.333 59.688,206.015 60.215,205.812 60.633 C 205.609 61.051,205.301 61.543,205.127 61.727 C 204.953 61.911,204.810 62.203,204.810 62.375 C 204.810 62.548,204.609 62.910,204.363 63.180 C 204.118 63.450,203.610 64.241,203.235 64.937 C 201.736 67.718,201.447 68.210,201.110 68.547 C 200.917 68.739,200.759 69.007,200.759 69.142 C 200.759 70.100,199.085 71.839,198.663 71.319 C 198.424 71.024,198.228 70.690,198.228 70.576 C 198.228 70.462,197.931 69.920,197.568 69.371 C 196.923 68.397,196.713 68.037,195.472 65.781 C 195.140 65.178,194.787 64.627,194.687 64.557 C 194.587 64.487,194.295 63.975,194.038 63.418 C 193.781 62.861,193.490 62.348,193.390 62.278 C 193.221 62.158,192.704 61.282,191.374 58.861 C 191.068 58.304,190.746 57.791,190.658 57.722 C 190.571 57.652,190.273 57.112,189.996 56.522 C 189.720 55.932,189.426 55.448,189.342 55.446 C 189.259 55.444,188.985 54.987,188.734 54.430 C 188.483 53.873,188.193 53.418,188.090 53.418 C 187.987 53.418,187.727 52.977,187.511 52.439 C 187.296 51.900,186.968 51.302,186.783 51.110 C 186.598 50.917,186.232 50.275,185.970 49.684 C 185.707 49.092,185.419 48.608,185.328 48.608 C 185.238 48.608,184.908 48.123,184.595 47.532 C 184.281 46.940,183.750 46.000,183.414 45.443 C 183.078 44.886,182.509 43.918,182.149 43.291 C 181.789 42.665,181.103 41.525,180.625 40.759 C 180.148 39.994,179.586 39.007,179.378 38.567 C 179.170 38.128,178.912 37.729,178.804 37.681 C 178.696 37.634,178.343 37.082,178.019 36.456 C 177.695 35.829,177.046 34.690,176.576 33.924 C 176.107 33.158,175.552 32.161,175.343 31.709 C 175.134 31.256,174.871 30.886,174.760 30.885 C 174.648 30.885,174.346 30.372,174.089 29.746 C 173.831 29.120,173.535 28.608,173.431 28.608 C 173.327 28.608,173.032 28.123,172.776 27.532 C 172.520 26.940,172.150 26.264,171.954 26.030 C 171.610 25.618,171.439 25.330,170.156 22.996 C 169.824 22.393,169.481 21.842,169.394 21.772 C 169.307 21.703,169.009 21.190,168.732 20.633 C 168.455 20.076,168.158 19.563,168.072 19.494 C 167.986 19.424,167.666 18.911,167.360 18.354 C 166.056 15.981,165.514 15.057,165.355 14.938 C 165.261 14.868,164.958 14.354,164.681 13.797 C 164.404 13.241,164.107 12.728,164.021 12.658 C 163.936 12.589,163.594 12.038,163.262 11.434 C 162.021 9.178,161.811 8.818,161.167 7.844 C 160.803 7.295,160.506 6.738,160.506 6.606 C 160.506 6.474,160.349 6.208,160.156 6.015 C 159.963 5.822,159.536 5.178,159.207 4.583 C 158.280 2.910,157.886 2.240,157.139 1.076 L 156.449 0.000 95.946 0.000 L 35.443 0.000 35.443 38.481 M149.613 15.641 C 151.223 18.422,155.535 25.762,156.263 26.962 C 156.600 27.519,157.886 29.684,159.120 31.772 C 160.354 33.861,162.177 36.937,163.171 38.608 C 164.164 40.278,165.549 42.614,166.247 43.797 C 168.651 47.873,174.259 57.346,175.688 59.747 C 176.475 61.070,177.202 62.323,177.302 62.532 C 177.402 62.741,177.871 63.538,178.344 64.304 C 178.817 65.070,179.671 66.494,180.242 67.468 C 180.813 68.443,181.704 69.947,182.222 70.811 C 182.741 71.675,183.687 73.270,184.325 74.356 C 184.963 75.441,186.358 77.805,187.425 79.609 C 188.491 81.414,189.273 82.980,189.162 83.091 C 189.052 83.202,161.796 83.263,128.594 83.228 L 68.228 83.165 68.162 73.354 L 68.095 63.544 58.731 63.544 L 49.367 63.544 49.367 38.608 L 49.367 13.671 98.924 13.679 L 148.481 13.688 149.613 15.641 M348.861 38.608 L 348.861 63.544 339.497 63.544 L 330.133 63.544 330.066 73.354 L 330.000 83.165 269.633 83.228 C 236.432 83.263,209.178 83.203,209.070 83.095 C 208.961 82.987,209.681 81.534,210.669 79.867 C 211.657 78.200,213.097 75.753,213.869 74.430 C 216.216 70.407,217.778 67.767,218.362 66.835 C 218.667 66.348,219.370 65.152,219.924 64.177 C 220.479 63.203,221.879 60.810,223.037 58.861 C 224.195 56.911,225.711 54.348,226.405 53.165 C 227.100 51.981,228.240 50.044,228.939 48.861 C 229.639 47.677,230.538 46.139,230.937 45.443 C 231.337 44.747,231.771 44.006,231.902 43.797 C 232.033 43.589,232.807 42.278,233.622 40.886 C 235.947 36.912,240.254 29.609,241.014 28.354 C 241.393 27.728,242.532 25.791,243.544 24.051 C 244.557 22.310,245.694 20.373,246.071 19.747 C 246.449 19.120,247.410 17.497,248.207 16.139 L 249.656 13.671 299.259 13.671 L 348.861 13.671 348.861 38.608 M384.557 119.873 L 384.557 148.861 199.114 148.861 L 13.671 148.861 13.671 119.873 L 13.671 90.886 199.114 90.886 L 384.557 90.886 384.557 119.873 M144.557 106.745 C 138.501 107.942,134.461 111.268,132.612 116.578 C 128.807 127.508,138.503 137.752,150.190 135.149 L 152.658 134.600 152.658 130.591 C 152.658 126.643,152.554 126.171,151.866 127.002 C 149.062 130.391,142.054 129.112,139.848 124.810 C 135.970 117.244,145.388 109.877,151.916 115.370 L 152.658 115.994 152.658 111.949 L 152.658 107.904 150.621 107.354 C 148.566 106.799,145.725 106.514,144.557 106.745 M241.578 107.228 C 235.024 109.166,231.799 113.788,231.784 121.266 C 231.765 130.318,237.212 135.810,246.203 135.804 C 254.405 135.798,259.720 130.680,260.182 122.342 L 260.326 119.747 253.327 119.747 L 246.329 119.747 246.329 122.397 L 246.329 125.047 249.177 125.118 L 252.025 125.190 251.953 126.076 C 251.688 129.326,246.803 131.273,243.330 129.513 C 237.388 126.502,237.284 116.300,243.165 113.212 C 246.203 111.617,250.158 112.801,251.675 115.759 C 252.288 116.954,252.187 116.962,255.570 115.462 C 256.127 115.215,257.066 114.807,257.658 114.556 C 258.970 114.000,258.971 113.991,257.749 112.192 C 254.398 107.258,248.059 105.312,241.578 107.228 M109.283 107.511 C 109.190 107.603,109.114 113.812,109.114 121.308 L 109.114 134.937 112.658 134.937 L 116.203 134.937 116.203 121.139 L 116.203 107.342 112.827 107.342 C 110.970 107.342,109.376 107.418,109.283 107.511 M169.114 121.139 L 169.114 134.937 172.658 134.937 L 176.203 134.937 176.203 129.241 L 176.203 123.544 181.392 123.544 L 186.582 123.544 186.582 129.241 L 186.582 134.937 190.127 134.937 L 193.671 134.937 193.671 121.139 L 193.671 107.342 190.527 107.342 C 186.153 107.342,186.582 106.733,186.582 112.938 L 186.582 118.228 181.392 118.228 L 176.203 118.228 176.203 112.938 C 176.203 106.733,176.632 107.342,172.258 107.342 L 169.114 107.342 169.114 121.139 M209.796 107.504 C 209.699 107.600,209.620 113.812,209.620 121.308 L 209.620 134.937 213.167 134.937 L 216.713 134.937 216.648 121.203 L 216.582 107.468 213.277 107.398 C 211.459 107.359,209.893 107.407,209.796 107.504 M63.175 109.803 C 62.934 111.017,62.524 113.324,62.263 114.929 C 62.003 116.535,61.503 119.614,61.154 121.772 C 60.804 123.930,60.406 126.209,60.268 126.835 C 60.055 127.811,58.987 134.459,58.987 134.814 C 58.987 134.881,60.512 134.937,62.374 134.937 L 65.762 134.937 66.053 133.101 C 66.213 132.092,66.623 129.329,66.964 126.962 C 67.962 120.028,68.157 118.941,68.360 119.160 C 68.567 119.382,69.610 121.854,70.371 123.924 C 70.627 124.620,71.282 126.272,71.828 127.595 C 72.374 128.918,73.262 131.116,73.803 132.479 L 74.785 134.959 76.145 134.885 L 77.504 134.810 78.262 133.038 C 79.257 130.709,79.985 128.975,81.130 126.203 C 81.647 124.949,82.288 123.441,82.554 122.851 C 82.820 122.261,83.042 121.691,83.047 121.585 C 83.052 121.479,83.326 120.823,83.656 120.127 C 84.407 118.541,84.431 118.602,85.046 123.671 C 85.316 125.899,85.743 129.345,85.996 131.329 L 86.456 134.937 89.937 134.937 C 91.851 134.937,93.418 134.838,93.418 134.718 C 93.418 134.598,93.298 133.886,93.153 133.136 C 93.007 132.386,92.603 129.835,92.256 127.468 C 91.517 122.439,90.623 116.459,89.890 111.646 C 89.604 109.766,89.369 108.085,89.368 107.911 C 89.367 107.673,88.488 107.595,85.819 107.595 L 82.272 107.595 81.778 108.671 C 81.203 109.922,78.532 116.593,77.094 120.369 C 76.251 122.582,76.131 122.518,74.961 119.241 C 74.688 118.475,74.107 116.937,73.670 115.823 C 73.233 114.709,72.639 113.114,72.351 112.278 C 72.063 111.443,71.745 110.646,71.644 110.506 C 71.542 110.367,71.264 109.655,71.026 108.924 L 70.592 107.595 67.103 107.595 L 63.614 107.595 63.175 109.803 M281.396 108.512 C 281.185 109.016,281.013 109.481,281.013 109.545 C 281.013 109.608,280.714 110.420,280.350 111.349 C 279.985 112.278,279.414 113.749,279.080 114.619 C 278.489 116.156,277.767 118.032,276.570 121.139 C 276.248 121.975,275.570 123.741,275.063 125.063 C 274.557 126.386,273.856 128.209,273.506 129.114 C 271.971 133.086,271.691 133.830,271.529 134.367 L 271.358 134.937 275.000 134.937 L 278.642 134.937 279.616 132.527 L 280.590 130.116 285.675 130.185 L 290.759 130.253 291.624 132.595 L 292.489 134.937 296.253 134.937 C 300.013 134.937,300.017 134.936,299.730 134.399 C 299.572 134.103,299.176 133.106,298.850 132.184 C 298.525 131.261,297.675 128.968,296.962 127.089 C 296.249 125.209,295.396 122.930,295.066 122.025 C 294.735 121.120,294.108 119.468,293.671 118.354 C 293.234 117.241,292.613 115.589,292.291 114.684 C 291.969 113.778,291.582 112.753,291.431 112.405 C 291.280 112.057,290.802 110.832,290.370 109.684 L 289.583 107.595 285.681 107.595 L 281.779 107.595 281.396 108.512 M311.899 121.266 L 311.899 134.937 315.316 134.937 L 318.734 134.937 318.734 126.464 C 318.734 116.771,318.573 117.197,321.011 120.459 C 321.915 121.669,324.308 124.767,326.328 127.344 C 328.347 129.921,330.498 132.684,331.107 133.483 L 332.213 134.937 335.727 134.937 L 339.241 134.937 339.241 121.266 L 339.241 107.595 335.823 107.595 L 332.405 107.595 332.401 115.633 C 332.397 124.461,332.338 124.855,331.235 123.380 C 330.834 122.844,329.424 121.021,328.101 119.328 C 326.778 117.636,324.176 114.303,322.319 111.923 L 318.941 107.595 315.420 107.595 L 311.899 107.595 311.899 121.266 M287.306 120.280 C 288.022 122.453,288.608 124.361,288.608 124.520 C 288.608 124.819,283.019 124.960,282.727 124.668 C 282.605 124.546,284.432 118.821,285.300 116.604 C 285.703 115.574,285.834 115.814,287.306 120.280 M133.863 168.162 L 133.929 179.741 143.863 179.807 L 153.797 179.873 153.797 203.544 L 153.797 227.215 100.949 227.279 L 48.101 227.343 48.101 203.545 L 48.101 179.747 58.101 179.747 L 68.101 179.747 68.101 168.100 L 68.101 156.454 100.949 156.518 L 133.797 156.582 133.863 168.162 M241.375 156.681 C 241.451 156.804,240.043 159.339,238.245 162.314 C 236.447 165.288,234.358 168.747,233.603 170.000 C 232.848 171.253,230.429 175.241,228.228 178.861 C 226.026 182.481,223.954 185.899,223.623 186.456 C 223.292 187.013,221.497 189.975,219.633 193.038 C 217.770 196.101,214.783 201.029,212.996 203.990 C 211.209 206.950,209.120 210.399,208.354 211.654 C 207.589 212.910,205.541 216.298,203.804 219.184 C 200.476 224.714,199.678 225.993,199.218 226.536 C 198.935 226.870,198.139 225.701,194.339 219.367 C 193.671 218.253,192.456 216.259,191.639 214.937 C 190.822 213.614,189.881 212.076,189.547 211.519 C 189.214 210.962,187.656 208.399,186.086 205.823 C 184.515 203.247,183.045 200.833,182.818 200.460 C 182.183 199.415,178.682 193.681,176.354 189.873 C 175.204 187.994,172.921 184.234,171.280 181.519 C 169.639 178.804,168.041 176.184,167.729 175.696 C 167.417 175.209,166.501 173.728,165.693 172.405 C 164.885 171.082,163.630 169.032,162.905 167.848 C 157.814 159.546,156.238 156.856,156.354 156.669 C 156.532 156.380,241.196 156.392,241.375 156.681 M330.066 168.162 L 330.132 179.741 340.066 179.807 L 350.000 179.873 350.000 203.544 L 350.000 227.215 297.152 227.279 L 244.304 227.343 244.304 203.545 L 244.304 179.747 254.177 179.747 L 264.051 179.747 264.051 168.405 C 264.051 159.902,264.127 156.987,264.355 156.759 C 264.590 156.523,272.130 156.468,297.330 156.518 L 330.000 156.582 330.066 168.162 " stroke="none" fill="#fbeb63" fill-rule="evenodd"></path><path id="path1" d="M73.967 13.861 C 87.567 13.897,109.896 13.897,123.587 13.861 C 137.279 13.825,126.152 13.795,98.861 13.795 C 71.570 13.795,60.368 13.825,73.967 13.861 M249.588 14.114 C 249.280 14.506,249.287 14.521,249.645 14.241 C 249.965 13.992,260.437 13.912,299.392 13.861 L 348.734 13.796 299.335 13.734 C 252.546 13.674,249.917 13.694,249.588 14.114 M188.602 82.215 L 188.878 82.784 128.426 82.848 L 67.975 82.912 128.544 82.975 C 161.858 83.010,189.114 82.946,189.114 82.833 C 189.114 82.721,188.937 82.407,188.720 82.137 C 188.342 81.665,188.337 81.668,188.602 82.215 M209.114 82.848 C 209.114 82.953,236.313 83.010,269.557 82.976 C 302.801 82.942,320.203 82.885,308.228 82.850 C 250.118 82.677,209.114 82.677,209.114 82.848 M13.788 91.203 C 13.721 91.377,13.696 104.392,13.732 120.127 L 13.797 148.734 199.051 148.734 L 384.304 148.735 199.114 148.671 L 13.924 148.607 13.924 119.873 L 13.924 91.140 199.177 91.076 L 384.430 91.012 199.169 90.949 C 51.147 90.899,13.884 90.950,13.788 91.203 M63.456 107.278 C 63.391 107.383,64.438 107.438,65.783 107.401 C 70.294 107.277,70.787 107.183,67.167 107.135 C 65.191 107.110,63.521 107.174,63.456 107.278 M83.872 107.277 C 84.958 107.325,86.667 107.324,87.670 107.276 C 88.673 107.228,87.785 107.190,85.696 107.190 C 83.608 107.190,82.787 107.229,83.872 107.277 M108.980 107.398 C 108.911 107.576,108.886 113.873,108.924 121.392 L 108.992 135.063 109.053 121.203 L 109.114 107.342 112.656 107.342 L 116.198 107.342 116.267 121.266 L 116.336 135.190 116.332 121.203 L 116.329 107.215 112.716 107.145 C 109.966 107.091,109.074 107.152,108.980 107.398 M169.026 107.278 C 168.961 107.383,170.008 107.438,171.352 107.401 C 175.864 107.277,176.356 107.183,172.736 107.135 C 170.761 107.110,169.091 107.174,169.026 107.278 M188.429 107.277 C 189.515 107.325,191.224 107.324,192.227 107.276 C 193.230 107.228,192.342 107.190,190.253 107.190 C 188.165 107.190,187.344 107.229,188.429 107.277 M209.543 107.251 C 209.304 107.489,209.318 135.190,209.557 135.190 C 209.661 135.190,209.716 128.924,209.679 121.266 L 209.612 107.342 213.165 107.342 L 216.717 107.342 216.650 121.266 C 216.613 128.924,216.669 135.190,216.774 135.190 C 216.880 135.190,216.937 128.896,216.901 121.203 L 216.835 107.215 213.277 107.145 C 211.319 107.107,209.639 107.154,209.543 107.251 M281.684 107.278 C 281.619 107.383,283.347 107.434,285.524 107.392 C 289.048 107.324,289.517 107.364,289.804 107.757 C 289.981 108.000,290.127 108.085,290.127 107.947 C 290.127 107.223,289.429 107.089,285.661 107.089 C 283.538 107.089,281.749 107.174,281.684 107.278 M311.561 107.257 C 311.327 107.492,311.348 134.879,311.582 135.024 C 311.687 135.089,311.742 128.887,311.705 121.242 L 311.637 107.342 315.262 107.342 C 317.803 107.342,318.992 107.436,319.241 107.658 C 319.543 107.927,319.546 107.909,319.261 107.532 C 318.917 107.078,311.988 106.831,311.561 107.257 M333.999 107.277 C 335.084 107.325,336.793 107.324,337.796 107.276 C 338.800 107.228,337.911 107.190,335.823 107.190 C 333.734 107.190,332.913 107.229,333.999 107.277 M176.260 112.722 L 176.203 117.975 181.456 117.917 L 186.709 117.859 181.588 117.785 L 176.466 117.711 176.392 112.590 L 176.318 107.468 176.260 112.722 M152.911 112.131 C 152.911 115.118,152.829 116.193,152.595 116.288 C 152.406 116.364,152.457 116.424,152.722 116.436 C 153.126 116.454,153.165 116.096,153.165 112.278 C 153.165 109.981,153.108 108.101,153.038 108.101 C 152.968 108.101,152.911 109.915,152.911 112.131 M245.380 112.840 C 245.763 112.898,246.389 112.898,246.772 112.840 C 247.155 112.782,246.842 112.734,246.076 112.734 C 245.310 112.734,244.997 112.782,245.380 112.840 M246.241 119.430 C 246.176 119.535,248.249 119.591,250.847 119.556 C 259.570 119.436,260.429 119.347,253.369 119.293 C 249.514 119.264,246.306 119.326,246.241 119.430 M239.074 121.392 C 239.075 122.506,239.120 122.931,239.173 122.335 C 239.227 121.740,239.226 120.828,239.171 120.310 C 239.117 119.791,239.073 120.278,239.074 121.392 M260.579 120.633 C 260.581 121.329,260.630 121.584,260.688 121.199 C 260.746 120.814,260.745 120.245,260.685 119.933 C 260.624 119.622,260.577 119.937,260.579 120.633 M139.322 121.266 C 139.322 122.171,139.367 122.541,139.424 122.089 C 139.480 121.636,139.480 120.896,139.424 120.443 C 139.367 119.991,139.322 120.361,139.322 121.266 M131.471 121.392 C 131.472 122.228,131.520 122.539,131.576 122.084 C 131.632 121.629,131.631 120.946,131.573 120.565 C 131.516 120.185,131.469 120.557,131.471 121.392 M231.218 121.392 C 231.219 122.228,231.266 122.539,231.323 122.084 C 231.379 121.629,231.378 120.946,231.320 120.565 C 231.262 120.185,231.216 120.557,231.218 121.392 M176.202 129.418 C 176.133 132.579,176.164 135.078,176.271 134.970 C 176.378 134.863,176.435 132.276,176.397 129.223 L 176.328 123.671 176.202 129.418 M84.869 124.810 C 84.869 125.297,84.921 125.497,84.985 125.253 C 85.048 125.009,85.048 124.611,84.985 124.367 C 84.921 124.123,84.869 124.323,84.869 124.810 M285.696 124.557 L 282.911 124.710 285.618 124.760 C 287.206 124.789,288.389 124.705,288.481 124.557 C 288.567 124.418,288.602 124.326,288.559 124.354 C 288.516 124.381,287.228 124.473,285.696 124.557 M152.260 126.386 L 151.772 126.962 152.342 126.480 L 152.911 125.997 152.968 130.277 L 153.025 134.557 153.101 130.399 C 153.181 126.033,153.058 125.444,152.260 126.386 M146.013 128.786 C 146.326 128.847,146.839 128.847,147.152 128.786 C 147.465 128.726,147.209 128.677,146.582 128.677 C 145.956 128.677,145.699 128.726,146.013 128.786 M135.686 131.456 C 136.735 132.573,136.962 132.774,136.962 132.584 C 136.962 132.544,136.421 132.003,135.759 131.382 L 134.557 130.253 135.686 131.456 M235.316 131.899 C 236.002 132.595,236.620 133.165,236.690 133.165 C 236.759 133.165,236.255 132.595,235.570 131.899 C 234.884 131.203,234.266 130.633,234.196 130.633 C 234.127 130.633,234.631 131.203,235.316 131.899 M256.189 132.342 L 255.316 133.291 256.266 132.419 C 256.788 131.939,257.215 131.512,257.215 131.469 C 257.215 131.276,257.001 131.458,256.189 132.342 M245.633 136.124 C 245.877 136.188,246.275 136.188,246.519 136.124 C 246.763 136.060,246.563 136.008,246.076 136.008 C 245.589 136.008,245.389 136.060,245.633 136.124 M84.620 156.899 C 93.636 156.936,108.389 156.936,117.405 156.899 C 126.421 156.862,119.044 156.832,101.013 156.832 C 82.981 156.832,75.604 156.862,84.620 156.899 M156.593 156.945 C 156.513 157.074,156.581 157.263,156.744 157.363 C 156.929 157.478,156.972 157.437,156.860 157.255 C 156.724 157.036,167.160 156.947,199.036 156.899 L 241.392 156.834 199.066 156.771 C 173.143 156.733,156.682 156.800,156.593 156.945 M264.473 156.878 C 264.380 156.970,264.304 162.153,264.304 168.394 L 264.304 179.741 254.367 179.807 L 244.430 179.873 244.428 203.418 L 244.426 226.962 244.493 203.484 L 244.560 180.006 254.495 179.940 L 264.430 179.873 264.496 168.419 L 264.562 156.964 297.281 156.899 L 330.000 156.834 297.321 156.771 C 279.347 156.737,264.565 156.785,264.473 156.878 M53.338 179.936 C 56.009 179.977,60.452 179.977,63.211 179.936 C 65.970 179.896,63.785 179.862,58.354 179.862 C 52.924 179.862,50.667 179.895,53.338 179.936 M143.543 179.935 L 153.415 180.006 153.482 203.611 L 153.548 227.215 153.546 203.544 L 153.544 179.873 143.608 179.869 L 133.671 179.864 143.543 179.935 M339.745 179.935 L 349.618 180.006 349.684 203.611 L 349.751 227.215 349.749 203.544 L 349.747 179.873 339.810 179.869 L 329.873 179.864 339.745 179.935 M48.223 203.671 C 48.223 216.620,48.253 221.881,48.291 215.361 C 48.329 208.841,48.329 198.246,48.291 191.816 C 48.253 185.387,48.223 190.722,48.223 203.671 " stroke="none" fill="#635f38" fill-rule="evenodd"></path><path id="path2" d="M49.429 38.544 L 49.494 63.165 58.797 63.231 L 68.101 63.297 68.101 73.041 L 68.101 82.785 128.505 82.785 L 188.909 82.785 188.086 81.329 C 187.180 79.726,187.131 79.642,184.906 75.899 C 184.053 74.465,183.165 72.949,182.931 72.532 C 182.697 72.114,182.141 71.180,181.696 70.457 C 181.250 69.733,180.445 68.366,179.907 67.419 C 179.368 66.471,178.676 65.297,178.367 64.810 C 178.059 64.323,177.143 62.785,176.333 61.392 C 175.522 60.000,174.610 58.462,174.307 57.975 C 174.004 57.487,173.120 56.006,172.344 54.684 C 171.567 53.361,169.549 49.955,167.857 47.115 C 166.166 44.275,164.557 41.541,164.280 41.039 C 164.003 40.537,163.321 39.386,162.764 38.481 C 162.206 37.576,161.637 36.608,161.499 36.329 C 161.361 36.051,160.882 35.231,160.434 34.507 C 159.986 33.784,159.180 32.417,158.641 31.469 C 158.103 30.522,157.408 29.348,157.098 28.861 C 156.788 28.373,155.871 26.835,155.060 25.443 C 154.249 24.051,153.339 22.513,153.038 22.025 C 152.737 21.538,151.824 20.000,151.011 18.608 C 150.197 17.215,149.238 15.596,148.880 15.009 L 148.228 13.943 98.796 13.933 L 49.365 13.924 49.429 38.544 M249.692 14.241 C 249.559 14.415,249.047 15.241,248.556 16.076 C 244.220 23.449,242.284 26.730,241.326 28.329 C 240.708 29.359,240.001 30.555,239.756 30.987 C 238.429 33.321,238.105 33.874,237.595 34.684 C 237.287 35.171,235.634 37.962,233.921 40.886 C 232.208 43.810,230.271 47.114,229.617 48.228 C 227.423 51.964,225.916 54.536,224.053 57.722 C 223.036 59.462,221.954 61.285,221.650 61.772 C 221.346 62.259,220.464 63.741,219.691 65.063 C 216.452 70.600,215.582 72.077,214.998 73.038 C 213.620 75.306,209.367 82.591,209.367 82.684 C 209.367 82.740,236.481 82.785,269.620 82.785 L 329.873 82.785 329.873 73.041 L 329.873 63.297 339.177 63.231 L 348.481 63.165 348.546 38.544 L 348.610 13.924 299.273 13.924 C 260.101 13.924,249.885 13.989,249.692 14.241 M13.924 119.873 L 13.924 148.608 199.114 148.608 L 384.304 148.608 384.304 119.873 L 384.304 91.139 199.114 91.139 L 13.924 91.139 13.924 119.873 M249.575 106.601 C 253.193 107.160,256.746 109.647,258.377 112.762 C 258.775 113.524,259.048 114.192,258.981 114.246 C 258.643 114.525,252.731 116.961,252.405 116.957 C 252.196 116.954,251.705 116.413,251.313 115.754 C 248.348 110.772,240.968 112.520,239.474 118.559 C 238.032 124.388,241.180 129.720,246.076 129.739 C 249.067 129.751,250.367 129.099,251.404 127.067 C 252.286 125.338,252.256 125.316,248.979 125.316 L 246.060 125.316 246.131 122.342 L 246.203 119.367 252.911 119.296 C 261.527 119.205,260.866 119.008,260.648 121.595 C 259.859 130.984,254.820 136.009,246.203 136.000 C 237.170 135.990,231.277 130.163,231.301 121.266 C 231.323 112.887,236.288 107.413,244.820 106.362 C 246.556 106.148,246.688 106.154,249.575 106.601 M150.378 106.977 C 153.274 107.660,153.165 107.452,153.165 112.284 C 153.165 116.784,153.135 116.862,151.863 115.701 C 148.014 112.185,141.424 113.689,139.789 118.455 C 137.201 126.000,145.950 131.882,151.938 126.625 C 153.155 125.556,153.165 125.585,153.165 130.286 C 153.165 134.976,153.306 134.677,150.771 135.347 C 139.583 138.305,129.471 129.117,131.888 118.188 C 133.744 109.796,141.748 104.943,150.378 106.977 M70.965 108.038 C 71.561 109.420,73.165 113.633,73.165 113.817 C 73.165 113.903,73.331 114.333,73.534 114.772 C 73.935 115.639,74.982 118.400,75.636 120.316 C 76.176 121.900,76.175 121.901,77.305 119.047 C 78.744 115.410,79.554 113.379,80.888 110.063 L 82.084 107.089 85.716 107.089 L 89.348 107.089 89.595 108.038 C 89.731 108.560,90.021 110.354,90.239 112.025 C 90.457 113.696,90.812 116.089,91.028 117.342 C 91.426 119.659,92.042 123.760,92.900 129.823 C 93.163 131.675,93.454 133.640,93.546 134.190 L 93.715 135.190 90.037 135.190 C 88.014 135.190,86.297 135.090,86.222 134.968 C 86.146 134.846,85.848 132.766,85.559 130.347 C 85.270 127.929,84.837 124.468,84.596 122.658 L 84.159 119.367 83.743 120.506 C 83.255 121.844,81.916 125.099,81.384 126.241 C 81.180 126.680,81.013 127.093,81.013 127.159 C 81.013 127.226,80.822 127.721,80.588 128.260 C 80.355 128.799,79.628 130.551,78.973 132.152 L 77.781 135.063 76.272 135.138 C 74.451 135.227,74.554 135.340,73.196 131.772 C 72.613 130.241,71.916 128.475,71.647 127.848 C 71.377 127.222,70.686 125.513,70.109 124.051 C 68.530 120.042,68.511 120.000,68.299 120.000 C 68.190 120.000,68.099 120.199,68.096 120.443 C 68.088 121.067,66.748 130.824,66.184 134.367 L 66.053 135.190 62.394 135.190 C 58.104 135.190,58.458 135.646,59.246 131.139 C 59.526 129.538,60.041 126.519,60.392 124.430 C 60.742 122.342,61.306 118.981,61.646 116.962 C 61.985 114.943,62.447 112.152,62.673 110.759 C 63.321 106.764,62.934 107.089,67.045 107.089 L 70.556 107.089 70.965 108.038 M116.395 121.209 L 116.460 135.203 112.724 135.133 L 108.987 135.063 108.922 121.392 C 108.885 113.873,108.911 107.576,108.980 107.398 C 109.074 107.152,109.966 107.091,112.716 107.145 L 116.329 107.215 116.395 121.209 M176.302 107.489 C 176.387 107.709,176.456 110.102,176.456 112.806 L 176.456 117.722 181.519 117.722 L 186.582 117.722 186.582 112.405 L 186.582 107.089 190.253 107.089 L 193.924 107.089 193.924 121.139 L 193.924 135.190 190.253 135.190 L 186.582 135.190 186.582 129.494 L 186.582 123.797 181.524 123.797 L 176.465 123.797 176.397 129.430 L 176.329 135.063 172.595 135.133 L 168.861 135.203 168.861 121.315 C 168.861 113.676,168.937 107.350,169.030 107.257 C 169.428 106.859,176.142 107.073,176.302 107.489 M216.901 121.203 L 216.966 135.190 213.167 135.190 L 209.367 135.190 209.367 121.308 C 209.367 113.673,209.446 107.347,209.543 107.251 C 209.639 107.154,211.319 107.107,213.277 107.145 L 216.835 107.215 216.901 121.203 M289.805 107.405 C 289.940 107.579,290.518 109.032,291.088 110.633 C 291.659 112.234,292.481 114.456,292.916 115.570 C 293.350 116.684,293.975 118.335,294.304 119.241 C 294.633 120.146,295.259 121.797,295.696 122.911 C 296.133 124.025,296.757 125.677,297.083 126.582 C 297.409 127.487,297.979 129.025,298.349 130.000 C 299.496 133.014,300.000 134.496,300.000 134.850 C 300.000 135.120,299.204 135.189,296.139 135.187 L 292.278 135.184 291.598 133.351 C 291.223 132.344,290.845 131.263,290.758 130.949 C 290.600 130.384,290.564 130.380,285.703 130.380 L 280.807 130.380 280.015 132.342 C 279.580 133.421,279.130 134.475,279.015 134.684 C 278.848 134.988,278.089 135.077,275.174 135.134 C 270.639 135.222,270.760 135.267,271.424 133.744 C 271.715 133.077,272.161 131.962,272.415 131.266 C 272.670 130.570,273.235 129.089,273.671 127.975 C 274.107 126.861,274.685 125.323,274.954 124.557 C 275.223 123.791,275.557 122.937,275.696 122.658 C 275.835 122.380,276.171 121.525,276.442 120.759 C 276.935 119.367,277.510 117.855,278.992 114.051 C 279.426 112.937,279.989 111.456,280.243 110.759 C 280.497 110.063,280.941 108.953,281.230 108.291 L 281.754 107.089 285.656 107.089 C 288.478 107.089,289.626 107.176,289.805 107.405 M320.538 109.158 C 321.426 110.296,322.608 111.820,323.165 112.544 C 323.722 113.268,325.544 115.604,327.215 117.735 C 328.886 119.865,330.680 122.170,331.203 122.855 L 332.152 124.101 332.152 115.595 L 332.152 107.089 335.823 107.089 L 339.494 107.089 339.494 121.139 L 339.494 135.190 335.796 135.190 L 332.098 135.190 331.555 134.511 C 330.947 133.750,328.556 130.661,327.085 128.734 C 326.553 128.038,325.140 126.215,323.946 124.684 C 322.752 123.152,321.233 121.191,320.571 120.326 C 319.909 119.461,319.282 118.749,319.177 118.743 C 319.073 118.738,318.987 122.440,318.987 126.969 L 318.987 135.203 315.253 135.133 L 311.519 135.063 311.453 121.392 C 311.417 113.873,311.442 107.579,311.509 107.405 C 311.598 107.172,312.592 107.089,315.277 107.089 L 318.924 107.089 320.538 109.158 M285.419 116.846 C 285.347 117.119,284.745 118.965,284.082 120.949 L 282.875 124.557 285.615 124.557 C 287.122 124.557,288.354 124.474,288.354 124.373 C 288.354 124.122,285.792 116.611,285.657 116.467 C 285.598 116.403,285.491 116.574,285.419 116.846 M68.101 168.481 L 68.101 180.000 58.228 180.000 L 48.354 180.000 48.354 203.544 L 48.354 227.089 100.886 227.089 L 153.418 227.089 153.418 203.544 L 153.418 180.000 143.544 180.000 L 133.671 180.000 133.671 168.481 L 133.671 156.962 100.886 156.962 L 68.101 156.962 68.101 168.481 M157.284 158.038 C 157.624 158.630,159.055 160.994,160.464 163.291 C 161.873 165.589,163.294 167.924,163.622 168.481 C 163.950 169.038,165.164 171.032,166.321 172.911 C 168.510 176.469,173.060 183.941,174.107 185.696 C 174.439 186.253,175.380 187.791,176.199 189.114 C 177.017 190.437,178.270 192.487,178.984 193.671 C 179.697 194.854,180.742 196.563,181.306 197.468 C 182.360 199.161,187.678 207.881,188.841 209.824 C 189.200 210.423,189.858 211.506,190.304 212.229 C 190.749 212.952,191.350 213.943,191.639 214.430 C 191.928 214.918,192.817 216.369,193.614 217.656 C 194.411 218.943,195.904 221.393,196.932 223.099 C 197.959 224.806,198.843 226.251,198.896 226.311 C 199.034 226.466,199.660 225.623,200.386 224.304 C 200.731 223.677,202.541 220.658,204.407 217.595 C 206.273 214.532,209.008 210.032,210.484 207.595 C 211.960 205.158,214.071 201.684,215.175 199.873 C 216.279 198.063,217.788 195.573,218.528 194.338 C 219.268 193.104,220.059 191.794,220.285 191.427 C 221.230 189.895,226.773 180.759,229.791 175.760 C 231.577 172.802,233.348 169.897,233.726 169.305 C 234.104 168.712,234.703 167.715,235.057 167.089 C 236.154 165.144,240.661 157.765,241.003 157.353 C 241.296 157.001,237.135 156.962,198.997 156.962 L 156.666 156.962 157.284 158.038 M264.496 168.418 L 264.430 179.873 254.494 179.940 L 244.557 180.006 244.557 203.547 L 244.557 227.089 297.089 227.089 L 349.620 227.089 349.620 203.544 L 349.620 180.000 339.747 180.000 L 329.873 180.000 329.873 168.481 L 329.873 156.962 297.218 156.962 L 264.562 156.962 264.496 168.418 " stroke="none" fill="#141c4c" fill-rule="evenodd"></path><path id="path3" d="M348.547 38.608 C 348.511 52.323,348.566 63.544,348.671 63.544 C 348.775 63.544,348.861 52.323,348.861 38.608 C 348.861 24.892,348.805 13.671,348.737 13.671 C 348.668 13.671,348.583 24.892,348.547 38.608 M329.934 73.229 L 329.873 83.040 269.391 82.976 C 236.126 82.940,208.962 82.997,209.026 83.101 C 209.247 83.459,329.874 83.332,330.011 82.974 C 330.078 82.799,330.102 78.328,330.063 73.037 L 329.994 63.418 329.934 73.229 M128.734 83.038 L 68.228 83.166 128.656 83.229 C 168.736 83.270,189.137 83.206,189.241 83.038 C 189.327 82.899,189.362 82.813,189.319 82.847 C 189.276 82.882,162.013 82.967,128.734 83.038 M384.426 119.873 C 384.426 135.886,384.457 142.399,384.494 134.348 C 384.531 126.296,384.531 113.194,384.494 105.234 C 384.457 97.273,384.426 103.861,384.426 119.873 M245.764 106.513 C 246.219 106.569,246.903 106.568,247.283 106.510 C 247.663 106.452,247.291 106.406,246.456 106.408 C 245.620 106.409,245.309 106.456,245.764 106.513 M63.386 107.713 C 63.308 107.917,63.302 108.231,63.374 108.409 C 63.446 108.588,63.513 108.481,63.524 108.172 C 63.544 107.621,63.623 107.607,67.152 107.531 L 70.759 107.453 67.144 107.398 C 64.164 107.352,63.503 107.407,63.386 107.713 M82.076 107.646 C 81.909 107.813,81.772 108.062,81.772 108.200 C 81.772 108.338,81.915 108.261,82.089 108.027 C 82.353 107.673,82.988 107.591,85.949 107.528 L 89.494 107.453 85.937 107.397 C 83.442 107.358,82.289 107.432,82.076 107.646 M281.688 107.525 C 281.621 107.633,283.340 107.687,285.507 107.645 C 288.523 107.587,289.502 107.647,289.680 107.899 C 289.860 108.153,289.889 108.142,289.809 107.848 C 289.696 107.433,281.937 107.124,281.688 107.525 M311.707 121.203 L 311.768 135.063 311.835 121.329 L 311.903 107.595 315.362 107.595 C 318.287 107.595,318.902 107.663,319.347 108.038 C 319.873 108.481,319.873 108.480,319.391 107.911 C 318.932 107.370,318.732 107.342,315.277 107.342 L 311.646 107.342 311.707 121.203 M332.212 115.626 L 332.271 123.924 332.342 115.759 L 332.412 107.595 335.824 107.595 L 339.236 107.595 339.305 121.266 L 339.374 134.937 339.370 121.203 L 339.367 107.468 335.759 107.398 L 332.152 107.328 332.212 115.626 M193.789 121.266 C 193.789 128.854,193.821 131.959,193.861 128.165 C 193.900 124.370,193.900 118.161,193.861 114.367 C 193.821 110.573,193.789 113.677,193.789 121.266 M152.715 111.880 L 152.658 116.038 151.962 115.431 L 151.266 114.824 151.954 115.563 C 152.915 116.594,152.933 116.518,152.848 111.871 L 152.771 107.722 152.715 111.880 M255.443 109.446 C 255.443 109.490,255.813 109.860,256.266 110.269 L 257.089 111.013 256.345 110.190 C 255.652 109.423,255.443 109.251,255.443 109.446 M245.636 112.587 C 246.021 112.645,246.591 112.643,246.902 112.583 C 247.214 112.523,246.899 112.476,246.203 112.477 C 245.506 112.479,245.252 112.529,245.636 112.587 M241.252 114.620 L 240.380 115.570 241.329 114.697 C 242.213 113.885,242.395 113.671,242.202 113.671 C 242.159 113.671,241.732 114.098,241.252 114.620 M250.504 114.431 C 251.705 115.834,251.721 115.849,251.447 115.316 C 251.303 115.038,250.862 114.526,250.466 114.178 L 249.747 113.546 250.504 114.431 M141.123 115.759 L 140.380 116.582 141.203 115.839 C 141.655 115.430,142.025 115.059,142.025 115.016 C 142.025 114.820,141.816 114.993,141.123 115.759 M178.811 118.164 C 180.316 118.209,182.708 118.208,184.128 118.163 C 185.547 118.118,184.316 118.082,181.392 118.082 C 178.468 118.082,177.307 118.119,178.811 118.164 M318.794 126.527 L 318.853 135.063 318.924 126.848 C 318.971 121.360,319.084 118.577,319.265 118.466 C 319.437 118.360,319.389 118.242,319.135 118.144 C 318.773 118.006,318.740 118.827,318.794 126.527 M231.478 121.266 C 231.478 122.310,231.522 122.737,231.577 122.215 C 231.631 121.693,231.631 120.839,231.577 120.316 C 231.522 119.794,231.478 120.222,231.478 121.266 M253.278 119.681 L 260.227 119.755 260.323 120.953 L 260.419 122.152 260.400 120.886 L 260.380 119.620 253.354 119.614 L 246.329 119.608 253.278 119.681 M131.729 121.392 C 131.730 122.367,131.776 122.735,131.830 122.210 C 131.885 121.684,131.884 120.887,131.828 120.437 C 131.772 119.988,131.728 120.418,131.729 121.392 M139.063 121.266 C 139.063 122.032,139.111 122.345,139.169 121.962 C 139.227 121.579,139.227 120.953,139.169 120.570 C 139.111 120.187,139.063 120.500,139.063 121.266 M238.807 121.392 C 238.808 122.089,238.858 122.343,238.916 121.959 C 238.974 121.574,238.972 121.004,238.912 120.693 C 238.852 120.381,238.805 120.696,238.807 121.392 M178.811 123.733 C 180.316 123.778,182.708 123.778,184.128 123.733 C 185.547 123.688,184.316 123.651,181.392 123.651 C 178.468 123.652,177.307 123.689,178.811 123.733 M249.160 125.249 C 250.995 125.306,251.898 125.432,251.969 125.641 C 252.027 125.811,252.062 125.778,252.047 125.570 C 252.024 125.258,251.523 125.188,249.237 125.177 L 246.456 125.165 249.160 125.249 M152.598 129.050 C 152.722 134.091,152.815 134.582,152.864 130.443 C 152.890 128.180,152.826 126.329,152.722 126.329 C 152.617 126.328,152.562 127.553,152.598 129.050 M135.570 131.139 C 136.255 131.835,136.873 132.405,136.943 132.405 C 137.013 132.405,136.509 131.835,135.823 131.139 C 135.137 130.443,134.519 129.873,134.449 129.873 C 134.380 129.873,134.884 130.443,135.570 131.139 M282.152 130.301 C 286.500 130.483,290.829 130.490,290.721 130.316 C 290.656 130.212,288.303 130.149,285.491 130.177 C 282.680 130.205,281.177 130.260,282.152 130.301 M85.882 131.392 C 85.882 131.880,85.934 132.079,85.997 131.835 C 86.061 131.592,86.061 131.193,85.997 130.949 C 85.934 130.706,85.882 130.905,85.882 131.392 M256.064 132.215 L 255.063 133.291 256.139 132.290 C 257.140 131.360,257.332 131.139,257.140 131.139 C 257.099 131.139,256.614 131.623,256.064 132.215 M100.820 156.645 L 133.666 156.711 133.735 168.166 L 133.805 179.620 133.801 168.101 L 133.797 156.582 100.886 156.581 L 67.975 156.579 100.820 156.645 M156.368 156.646 C 156.304 156.750,175.425 156.835,198.861 156.835 C 222.296 156.835,241.418 156.750,241.353 156.646 C 241.289 156.541,222.167 156.456,198.861 156.456 C 175.554 156.456,156.433 156.541,156.368 156.646 M297.276 156.645 L 329.868 156.711 329.938 168.166 L 330.008 179.620 330.004 168.101 L 330.000 156.582 297.342 156.581 L 264.684 156.579 297.276 156.645 M264.167 168.354 C 264.167 174.690,264.200 177.282,264.240 174.114 C 264.280 170.946,264.280 165.763,264.240 162.595 C 264.200 159.427,264.167 162.019,264.167 168.354 M153.544 203.544 C 153.544 216.606,153.630 227.241,153.734 227.176 C 153.839 227.112,153.924 216.477,153.924 203.544 C 153.924 190.611,153.839 179.977,153.734 179.913 C 153.630 179.848,153.544 190.482,153.544 203.544 M349.747 203.544 C 349.747 216.606,349.832 227.241,349.937 227.176 C 350.041 227.112,350.127 216.477,350.127 203.544 C 350.127 190.611,350.041 179.977,349.937 179.913 C 349.832 179.848,349.747 190.482,349.747 203.544 " stroke="none" fill="#8c842d" fill-rule="evenodd"></path><path id="path4" d="M54.257 63.481 C 56.877 63.522,61.092 63.522,63.624 63.481 C 66.156 63.439,64.013 63.406,58.861 63.406 C 53.709 63.406,51.637 63.440,54.257 63.481 M334.620 63.481 C 337.161 63.522,341.320 63.522,343.861 63.481 C 346.402 63.439,344.323 63.406,339.241 63.406 C 334.158 63.406,332.079 63.439,334.620 63.481 M168.984 121.266 L 168.987 135.063 172.469 135.074 L 175.950 135.086 172.534 135.004 L 169.118 134.922 169.049 121.195 L 168.981 107.468 168.984 121.266 M235.301 110.696 L 234.557 111.519 235.380 110.775 C 235.832 110.366,236.203 109.996,236.203 109.953 C 236.203 109.757,235.994 109.929,235.301 110.696 M246.171 122.405 C 246.171 123.937,246.213 124.531,246.263 123.725 C 246.314 122.919,246.313 121.666,246.262 120.940 C 246.211 120.214,246.170 120.873,246.171 122.405 M62.405 134.937 L 58.861 135.085 62.327 135.138 C 64.423 135.169,65.855 135.090,65.949 134.937 C 66.035 134.797,66.071 134.707,66.028 134.736 C 65.985 134.765,64.354 134.855,62.405 134.937 M75.384 135.120 C 75.839 135.177,76.523 135.175,76.903 135.118 C 77.284 135.060,76.911 135.014,76.076 135.015 C 75.241 135.017,74.929 135.064,75.384 135.120 M88.153 135.124 C 89.087 135.173,90.682 135.173,91.698 135.125 C 92.713 135.077,91.949 135.037,90.000 135.037 C 88.051 135.036,87.220 135.076,88.153 135.124 M110.823 135.125 C 111.832 135.173,113.484 135.173,114.494 135.125 C 115.503 135.077,114.677 135.037,112.658 135.037 C 110.639 135.037,109.813 135.077,110.823 135.125 M188.407 135.124 C 189.340 135.173,190.935 135.173,191.951 135.125 C 192.967 135.077,192.203 135.037,190.253 135.037 C 188.304 135.036,187.473 135.076,188.407 135.124 M211.456 135.124 C 212.396 135.173,213.934 135.173,214.873 135.124 C 215.813 135.076,215.044 135.036,213.165 135.036 C 211.285 135.036,210.516 135.076,211.456 135.124 M273.239 135.125 C 274.325 135.173,276.034 135.172,277.037 135.124 C 278.040 135.077,277.152 135.038,275.063 135.038 C 272.975 135.038,272.154 135.078,273.239 135.125 M294.505 135.125 C 295.591 135.173,297.300 135.172,298.303 135.124 C 299.306 135.077,298.418 135.038,296.329 135.038 C 294.241 135.038,293.420 135.078,294.505 135.125 M313.470 135.124 C 314.404 135.173,315.999 135.173,317.014 135.125 C 318.030 135.077,317.266 135.037,315.316 135.037 C 313.367 135.036,312.536 135.076,313.470 135.124 M333.861 135.125 C 334.870 135.173,336.522 135.173,337.532 135.125 C 338.541 135.077,337.715 135.037,335.696 135.037 C 333.677 135.037,332.851 135.077,333.861 135.125 M146.139 135.871 C 146.383 135.934,146.782 135.934,147.025 135.871 C 147.269 135.807,147.070 135.755,146.582 135.755 C 146.095 135.755,145.896 135.807,146.139 135.871 M74.640 227.278 C 89.167 227.315,112.864 227.315,127.299 227.278 C 141.734 227.242,129.848 227.213,100.886 227.213 C 71.924 227.213,60.114 227.242,74.640 227.278 M270.843 227.278 C 285.370 227.315,309.066 227.315,323.501 227.278 C 337.936 227.242,326.051 227.213,297.089 227.213 C 268.127 227.213,256.316 227.242,270.843 227.278 " stroke="none" fill="#848434" fill-rule="evenodd"></path></g></svg>